<svg viewBox="0 0 1920 1080" xmlns="http://www.w3.org/2000/svg" fill-rule="evenodd" clip-rule="evenodd" stroke-linecap="round" stroke-linejoin="round" stroke-miterlimit="1.5"><g id="Layer1" transform="translate(-110.748 -312.845) scale(1.38104)"><path d="M363.824 431.575s8.971-46.58 51.798-63.521c33.643-13.308 125.624-23.91 154.767-24.225 14.068-.152 26.354 15.88 40.417 16.293 69.072 2.026 305.469 2.715 374.01 0 13.538-.537 23.714-17.134 37.234-16.293 30.79 1.914 107.39 8.037 146.84 25.667 24.99 11.168 54.82 63.828 54.82 63.828" fill="#fff" stroke="#000" stroke-width="3.62"/><path d="M363.51 432.394c-47.778 59.906-76.569 246.517-84.429 330.183-7.872 83.795 4.746 156.858 60.971 172.617 131.244 36.785 143.06-84.88 219.849-92.914 116.149-12.153 367.266-13.437 477.039 0 65.75 8.047 71.04 118.328 181.62 100.62 87.1-13.947 99.5-79.877 96.85-174.258-2.4-85.087-44.17-275.177-92.87-336.449-10.77-13.55-155.75-32.238-206.51-27.355-37.26 3.584-61.161 6.47-98.076 12.653-57.147 9.57-186.194 9.655-244.806 0-40.42-6.659-57.421-8.304-98.155-12.653-50.492-5.391-198.266 10.984-211.483 27.556z" fill="#fff" stroke="#000" stroke-width="3.62"/><circle cx="936.118" cy="745.179" r="62.212" fill="none" stroke="#000" stroke-width="3.62" transform="translate(3.386 -5.136)"/><circle cx="936.118" cy="745.179" r="62.212" fill="none" stroke="#000" stroke-width="3.62" transform="translate(-279.076 -5.136)"/><circle cx="936.118" cy="745.179" r="62.212" fill="none" stroke="#000" stroke-width="2.58" transform="translate(-372.032 -303.981) scale(1.40104)"/><circle cx="936.118" cy="745.179" r="62.212" fill="none" stroke="#000" stroke-width="2.58" transform="translate(-654.494 -303.981) scale(1.40104)"/><circle cx="794.11" cy="674.573" r="15.678" fill="none" stroke="#000" stroke-width="3.62"/><path d="M935.733 477.945c0-20.065-16.633-36.355-37.121-36.355H672.797c-20.488 0-37.121 16.29-37.121 36.355v72.711c0 20.065 16.633 36.355 37.121 36.355h225.815c20.488 0 37.121-16.29 37.121-36.355v-72.711z" fill="none" stroke="#000" stroke-width="3.58" transform="matrix(1 0 0 1.02106 0 -12.362)"/><path d="M606.312 440.292c0-3.926-2.857-7.113-6.377-7.113-3.52 0-6.378 3.187-6.378 7.113v26.823c0 3.926 2.858 7.114 6.378 7.114s6.377-3.188 6.377-7.114v-26.823z" fill="none" stroke="#000" stroke-width="2.58" transform="matrix(1.27741 -.73751 .66122 1.14526 -468.876 413.748)"/><path d="M606.312 440.292c0-3.926-2.857-7.113-6.377-7.113-3.52 0-6.378 3.187-6.378 7.113v26.823c0 3.926 2.858 7.114 6.378 7.114s6.377-3.188 6.377-7.114v-26.823z" fill="none" stroke="#000" stroke-width="2.58" transform="matrix(1.27741 .73751 -.66122 1.14526 501.324 -471.173)"/><path d="M495.983 511.086a6.225 6.225 0 012.312.483 6.204 6.204 0 013.381 3.55c.248.677.368 1.391.373 2.112v47.257h47.257a6.147 6.147 0 016.145 6.145v49.161a6.148 6.148 0 01-6.145 6.146h-47.257v47.257a6.205 6.205 0 01-.673 2.796 6.204 6.204 0 01-5.472 3.349h-49.162a6.204 6.204 0 01-5.472-3.349 6.205 6.205 0 01-.673-2.796V625.94H393.34a6.148 6.148 0 01-6.145-6.146v-49.161a6.147 6.147 0 016.145-6.145h47.257v-47.257a6.255 6.255 0 01.373-2.112 6.204 6.204 0 013.381-3.55 6.225 6.225 0 012.312-.483l.079-.001h49.162l.079.001z" fill="none" stroke="#000" stroke-width="3.62"/><circle cx="1117.42" cy="665.528" r="34.056" fill="none" stroke="#000" stroke-width="3.62" transform="translate(5.745 8.59)"/><circle cx="1117.42" cy="665.528" r="34.056" fill="none" stroke="#000" stroke-width="3.62" transform="rotate(90 1115.996 597.265)"/><circle cx="1117.42" cy="665.528" r="34.056" fill="none" stroke="#000" stroke-width="3.62" transform="translate(5.745 -142.268)"/><circle cx="1117.42" cy="665.528" r="34.056" fill="none" stroke="#000" stroke-width="3.62" transform="rotate(90 1191.426 672.695)"/><path d="M558.323 403.859c17.025.746 29.099-23.433 29.099-23.433s13.228-20.279 33.692-20.039" fill="none" stroke="#000" stroke-width="3.62"/><path d="M558.323 403.859c17.025.746 29.099-23.433 29.099-23.433s13.228-20.279 33.692-20.039" fill="none" stroke="#000" stroke-width="3.63" transform="matrix(-.9963 0 0 1 1570.41 .834)"/><path d="M703.58 395.446a4.975 4.975 0 00-4.973-4.974h-15.973a4.975 4.975 0 00-4.973 4.974 4.975 4.975 0 004.973 4.973h15.973a4.975 4.975 0 004.973-4.973z" fill="none" stroke="#000" stroke-width="3.62"/><path d="M828.977 383.21c0-4.902-2.859-8.882-6.38-8.882H750.86c-3.522 0-6.381 3.98-6.381 8.882 0 4.902 2.859 8.882 6.381 8.882h71.737c3.521 0 6.38-3.98 6.38-8.882z" fill="none" stroke="#000" stroke-width="4.01" transform="matrix(1.03671 0 0 .74473 -30.435 95.554)"/><path d="M747.991 387.558s-38.149 3.346-38.241 6.894c-.206 7.953-3.67 14.744 77.489 15.453 71.771.627 67.678-8.185 67.943-15.453.14-3.815-32.82-6.894-32.82-6.894h-74.371z" fill="none" stroke="#000" stroke-width="3.62"/><path d="M537.023 699.006s9.531-24.342 32.435-43.031c12.88-10.511 30.072-19.238 52.353-20.478 24.056-1.34 61.801-1.801 104.223-1.82 87.956-.039 195.933 1.832 244.278 1.832 14.788 0 26.839 7.847 36.598 17.89 21.2 21.835 31.57 54.505 31.57 54.505.99 3.115 4.74 4.951 8.37 4.098 3.63-.854 5.77-4.076 4.77-7.192 0 0-11.31-35.293-34.25-58.91-12.43-12.792-28.224-22.097-47.058-22.097-48.347 0-156.327-1.871-244.285-1.832-42.778.02-80.839.494-105.097 1.844-25.875 1.441-45.898 11.466-60.856 23.673-25.427 20.748-35.968 47.794-35.968 47.794-1.197 3.063.726 6.383 4.291 7.411 3.565 1.027 7.43-.625 8.626-3.687z" fill="none" stroke="#000" stroke-width="3.25" stroke-linecap="butt" stroke-miterlimit="2" transform="matrix(1.02746 0 0 1.196 -8.898 -118.001)"/><path d="M1012.65 357.283c-3.78-.232-7.99.412-11.05 3.078-2.301 2.008-4.019 5.181-4.268 10.154-.338 6.731.654 14.626 2.988 20.665 2.33 6.026 6.13 10.157 10.92 10.435 15.65.91 40.81 1.21 65.5 2.476 9.57.49 19.07 1.125 27.92 1.998 11.04 1.089 23.39 2.805 35.31 4.659 23.92 3.719 46.15 7.991 52.86 8.91 1.72.235 3.02-.173 3.98-.952.88-.716 1.5-1.812 1.77-3.258.52-2.856-.43-7.437-2.47-12.279-2.31-5.477-5.97-11.32-10.07-15.294-2.29-2.218-4.74-3.86-7.16-4.642-13.11-4.234-38.54-9.082-66.03-13.438-39.16-6.204-82.5-11.426-100.2-12.512zm-.25 3.613c17.64 1.082 60.82 6.289 99.83 12.471 27.23 4.316 52.44 9.1 65.43 13.294 4.99 1.614 9.87 7.844 13.2 14.205 2.52 4.802 4.15 9.724 4.07 12.988-.03.934-.1 1.7-.59 2.097-.23.186-.56.18-.97.123-6.7-.917-28.9-5.185-52.79-8.899-12-1.865-24.42-3.591-35.53-4.687-8.91-.879-18.47-1.519-28.1-2.012-24.69-1.265-49.83-1.565-65.48-2.475-1.42-.083-2.66-.752-3.76-1.789-1.57-1.493-2.82-3.702-3.82-6.284-2.18-5.622-3.08-12.975-2.76-19.24.18-3.721 1.31-6.154 3.04-7.656 2.26-1.978 5.43-2.308 8.23-2.136z" transform="matrix(.95275 0 0 1 51.609 -4.62)"/><path d="M1012.65 357.283c17.72 1.087 61.09 6.312 100.26 12.521 27.49 4.355 52.91 9.203 66.01 13.435 2.46.794 4.94 2.469 7.27 4.732 4.09 3.987 7.73 9.823 10.03 15.287 1.6 3.812 2.53 7.449 2.58 10.173.04 2.245-.58 3.965-1.62 4.988-1.01.981-2.42 1.504-4.37 1.238-6.71-.919-28.94-5.191-52.85-8.909-11.93-1.854-24.27-3.57-35.32-4.66-8.84-.872-18.34-1.507-27.9-1.997-24.7-1.266-49.85-1.566-65.51-2.476-2.4-.14-4.54-1.182-6.37-2.956-1.89-1.833-3.46-4.489-4.66-7.626-2.3-6.015-3.274-13.839-2.939-20.515.244-4.877 1.91-8.02 4.149-10.028 3.09-2.776 7.39-3.443 11.24-3.207zm-.26 3.613c-2.8-.172-5.98.164-8.23 2.182-1.68 1.513-2.78 3.933-2.96 7.607-.31 6.231.57 13.535 2.72 19.149.99 2.594 2.24 4.819 3.8 6.335 1.09 1.057 2.33 1.749 3.76 1.833 15.65.909 40.79 1.209 65.48 2.474 9.63.493 19.2 1.134 28.1 2.013 11.12 1.096 23.55 2.823 35.55 4.689 23.89 3.713 46.08 7.98 52.78 8.898.31.042.57.054.78-.044.23-.108.34-.347.44-.619.16-.442.23-.976.25-1.581.07-3.252-1.54-8.136-4.03-12.909-3.33-6.381-8.21-12.65-13.22-14.268-12.98-4.191-38.15-8.97-65.37-13.284-39.01-6.183-82.21-11.393-99.85-12.475z" transform="matrix(-.91842 0 0 1 1487.31 -3.62)"/><path d="M539.343 292.072l.15.001h.014a16.7 16.7 0 011.801.104c.43.052.857.127 1.278.232.315.078.626.175.929.293.326.127.643.28.944.46l.982.756a5.546 5.546 0 011.297 2.009c.358.933.503 1.97.553 2.95l.023.803-.013.988-.081 1.499-.168 1.933-2.868 41.558c-.062.888-.76 1.6-1.647 1.679-8.498.748-17.06 1.666-25.685 2.702a1351.972 1351.972 0 00-25.631 3.356 1.81 1.81 0 01-2.023-1.425 15.073 15.073 0 01-.297-2.782 15.081 15.081 0 01.218-2.862l9.99-46.565.027-.109c.873-3.116 1.78-4.862 3.12-5.924 1.369-1.084 3.282-1.528 6.492-1.655l.071-.001h30.524zm-30.486 3.62c-2.123.084-3.444.154-4.353.874-.889.704-1.291 1.958-1.868 4.013l-9.967 46.461a11.434 11.434 0 00-.133 2.517 1314.818 1314.818 0 0123.884-3.112 825.066 825.066 0 0124.258-2.577l2.763-40.029c.053-.643.121-1.286.168-1.931.034-.454.056-.91.074-1.365.01-.278.012-.557.011-.835-.001-.215-.011-.429-.018-.643a7.953 7.953 0 00-.046-.597c-.08-.747-.267-1.827-1.037-2.203-.91-.444-1.833-.533-2.829-.567l-.294-.005-.127-.001h-30.486z"/><path d="M508.819 292.072l-.072.001c-3.215.127-5.13.573-6.5 1.661-1.337 1.062-2.243 2.807-3.116 5.919-.01.036-.019.073-.027.109l-9.989 46.565-.014.073a15.076 15.076 0 00-.211 2.744c.012.968.114 1.907.29 2.752a1.814 1.814 0 002.028 1.426c8.605-1.202 17.157-2.342 25.648-3.368 8.632-1.043 17.202-1.967 25.699-2.716a1.811 1.811 0 001.65-1.679l2.851-41.46.168-1.932.081-1.499.013-.988-.023-.802c-.05-.98-.195-2.016-.553-2.949a5.532 5.532 0 00-1.297-2.01l-.983-.756a6.254 6.254 0 00-.945-.461 7.76 7.76 0 00-.929-.293c-.421-.105-.849-.18-1.279-.232a16.718 16.718 0 00-1.802-.104h-.014l-.15-.001h-30.524zm30.651 3.621l.294.005c.994.034 1.917.123 2.826.566.77.376.956 1.458 1.036 2.203.022.198.039.398.046.597.007.215.017.429.018.644.001.278-.001.557-.011.835-.018.456-.041.911-.074 1.366-.047.644-.115 1.287-.168 1.931l-2.746 39.93a810.987 810.987 0 00-24.272 2.59 1363.97 1363.97 0 00-23.889 3.123 11.578 11.578 0 01.143-2.443l9.967-46.462c.576-2.053.979-3.307 1.867-4.012.908-.721 2.227-.79 4.35-.874h30.479l.134.001z" transform="matrix(-.99777 0 0 1 1585.9 -.193)"/><path d="M545.003 281.749h.136c2.996.033 5.937.793 8.602 2.125a21.365 21.365 0 016.893 5.483 19.59 19.59 0 012.82 4.553 17.141 17.141 0 011.394 5.244 15.932 15.932 0 01-.03 3.387l-3.856 41.891a1.812 1.812 0 01-1.702 1.642c-13.749.772-27.672 2.028-41.736 3.695-13.709 1.624-27.552 3.637-41.5 5.969a1.809 1.809 0 01-2.052-2.237l13.303-51.62c.502-1.794.953-3.613 1.496-5.401a36.24 36.24 0 011.313-3.674c.336-.791.714-1.566 1.142-2.312a17.19 17.19 0 011.482-2.188 15.185 15.185 0 011.983-2.053c1.382-1.182 2.945-2.074 4.609-2.738 2.382-.95 4.976-1.43 7.515-1.644l1.902-.114h.008l.19-.007.063-.001h36.025zm-36.143 3.626c-1.981.118-3.931.277-5.863.754-1.302.322-2.579.77-3.766 1.399-.779.413-1.514.905-2.186 1.477-3.278 2.787-4.488 7.197-5.561 11.183-.236.878-.471 1.756-.713 2.632l-12.599 48.892c13.078-2.149 26.061-4.015 38.926-5.539 13.608-1.612 27.084-2.842 40.401-3.624l3.714-40.34c.112-1.081.12-2.16-.032-3.239-1.066-7.564-8.4-13.345-15.851-13.596l-.227-.004-.1-.001H509.01l-.15.006z"/><path d="M508.978 281.749l-.063.001-.198.007-1.902.114c-2.541.215-5.136.694-7.519 1.645-1.664.664-3.227 1.557-4.609 2.739a15.087 15.087 0 00-1.984 2.052 17.201 17.201 0 00-1.482 2.189 22.129 22.129 0 00-1.142 2.311 36.164 36.164 0 00-1.312 3.675c-.544 1.787-.994 3.606-1.496 5.4l-.01.036-13.293 51.584a1.805 1.805 0 00.421 1.675 1.817 1.817 0 001.636.561c13.947-2.332 27.787-4.311 41.492-5.9 14.064-1.63 27.985-2.851 41.736-3.623a1.81 1.81 0 001.704-1.642s3.866-42.033 3.861-41.992a16.281 16.281 0 00.034-3.426 17.133 17.133 0 00-1.393-5.243 19.56 19.56 0 00-2.821-4.553 21.347 21.347 0 00-6.891-5.483c-2.667-1.333-5.609-2.094-8.608-2.127h-36.161zm36.125 3.621l.227.004c7.462.252 14.782 6.044 15.847 13.596.152 1.079.144 2.158.032 3.239l-3.722 40.482c-13.315.779-26.786 1.974-40.389 3.551a833.535 833.535 0 00-38.922 5.47l12.59-48.857c.245-.886.482-1.775.721-2.663 1.073-3.986 2.281-8.398 5.562-11.189a12.146 12.146 0 012.185-1.476c1.186-.628 2.463-1.076 3.765-1.398 1.928-.476 3.876-.635 5.854-.754l.157-.006h35.987l.106.001z" transform="matrix(-.99777 0 0 1 1585.9 -.193)"/></g><g id="Layer2" font-family="'Helvetica-Bold','Helvetica'" font-weight="700" font-size="24"><text x="1212.65" y="219.214" transform="translate(225.741 -76.425)">Click Izquierdo</text><text x="1269.32" y="219.214" transform="translate(144.522 480.366)">Click</text><text x="1244.67" y="243.214" transform="translate(144.522 480.366)">Izquierdo</text><text x="1217.97" y="219.214" transform="translate(-843.688 -76.425)">Click Derecho</text><text x="1225.98" y="219.214" transform="translate(-983.978 14.52)">Scroll Arriba</text><text x="1253.31" y="219.214" transform="translate(-758.288 286.368)">Flechas</text><text x="1219.96" y="243.214" transform="translate(-758.288 286.368)">Direccionales</text><text x="1260" y="219.214" transform="translate(-501.887 486.383)">Mouse</text><text x="1264.65" y="243.214" transform="translate(-501.887 486.383)">Scroll</text><text x="1243.32" y="219.214" transform="translate(-312.982 449.367)">Encender</text><text x="1255.34" y="243.214" transform="translate(-312.982 449.367)">Control</text><text x="1256.66" y="219.214" transform="translate(-494.657 -76.753)">Apagar</text><text x="1255.34" y="243.214" transform="translate(-494.657 -76.753)">Control</text><text x="1236.66" y="219.214" transform="translate(-323.527 -76.425)">Coneccion</text><text x="1260" y="243.214" transform="translate(-323.527 -76.425)">USB-C</text><text x="1260" y="219.214" transform="translate(-111.796 498.383)">Mouse</text><text x="1267.33" y="219.214" transform="translate(-62.734 222.422)">Enter</text><text x="1255.97" y="219.214" transform="translate(245.103 372.425)">Escape</text><text x="1227.99" y="219.214" transform="translate(352.726 14.52)">Scroll Abajo</text></g></svg>