<svg xmlns="http://www.w3.org/2000/svg" viewBox="0 0 911 421"><g id="copy"><path opacity=".7" d="M0 0v421h911V0H0zm271 407c0 2.8-2.2 5-5 5h-68c-2.8 0-5-2.2-5-5v-58c0-2.8 2.2-5 5-5h68c2.8 0 5 2.2 5 5v58zm61-68c0 2.8-2.2 5-5 5h-51c-2.8 0-5-2.2-5-5v-50c0-2.8 2.2-5 5-5h51c2.8 0 5 2.2 5 5v50z"/><path fill="none" stroke="#fff" stroke-width="2" d="M0 0v421h911V0H0zm271 407c0 2.8-2.2 5-5 5h-68c-2.8 0-5-2.2-5-5v-58c0-2.8 2.2-5 5-5h68c2.8 0 5 2.2 5 5v58zm61-68c0 2.8-2.2 5-5 5h-51c-2.8 0-5-2.2-5-5v-50c0-2.8 2.2-5 5-5h51c2.8 0 5 2.2 5 5v50z"/></g><g id="cut"><path opacity=".7" d="M0 0v421h911V0H0zm271 339c0 2.8-2.2 5-5 5 2.8 0 5 2.2 5 5v58c0 2.8-2.2 5-5 5h-68c-2.8 0-5-2.2-5-5v-58c0-2 .8 5 5-5h17c-2.8 0-5-2.2-5-5v-50c0-2.8 2.2-5 5-5h51c2.8 0 5 2.2 5 5v50z"/><path fill="none" stroke="#fff" stroke-width="2" d="M0 0v421h911V0H0zm271 339c0 2.8-2.2 5-5 5 2.8 0 5 2.2 5 5v58c0 2.8-2.2 5-5 5h-68c-2.8 0-5-2.2-5-5v-58c0-2.8 2.2-5 5-5h17c-2.8 0-5-2.2-5-5v-50c0-2.8 2.2-5 5-5h51c2.8 0 5 2.2 5 5v50z"/></g><g id="paste"><path opacity=".7" d="M0 0v421h911V0H0zm271 407c0 2.8-2.2 5-5 5h-68c-2.8 0-5-2.2-5-5v-58c0-2.8 2.2-5 5-5h68c2.8 0 5 2.2 5 5v58zm122-68c0 2.8-2.2 5-5 5h-51c-2.8 0-5-2.2-5-5v-50c0-2.8 2.2-5 5-5h51c2.8 0 5 2.2 5 5v50z"/><path fill="none" stroke="#fff" stroke-width="2" d="M0 0v421h911V0H0zm271 407c0 2.8-2.2 5-5 5h-68c-2.8 0-5-2.2-5-5v-58c0-2.8 2.2-5 5-5h68c2.8 0 5 2.2 5 5v58zm122-68c0 2.8-2.2 5-5 5h-51c-2.8 0-5-2.2-5-5v-50c0-2.8 2.2-5 5-5h51c2.8 0 5 2.2 5 5v50z"/></g><g id="arroba"><path opacity=".7" d="M0 0v421h911V0H0zm193 407c0 2.8-2.2 5-5 5h-51c-2.8 0-5-2.2-5-5v-58c0-2.8 2.2-5 5-5h51c2.8 0 5 2.2 5 5v58zm0-248c0 2.8-2.2 5-5 5h-51c-2.8 0-5-2.2-5-5v-50c0-2.8 2.2-5 5-5h51c2.8 0 5 2.2 5 5v50z"/><path fill="none" stroke="#fff" stroke-width="2" d="M0 0v421h911V0H0zm193 407c0 2.8-2.2 5-5 5h-51c-2.8 0-5-2.2-5-5v-58c0-2.8 2.2-5 5-5h51c2.8 0 5 2.2 5 5v58zm0-248c0 2.8-2.2 5-5 5h-51c-2.8 0-5-2.2-5-5v-50c0-2.8 2.2-5 5-5h51c2.8 0 5 2.2 5 5v50z"/></g><g id="captura-completa"><path opacity=".7" d="M0 0v421h911V0H0zm194 109c0-2.8 2.2-5 5-5h51c2.8 0 5 2.2 5 5v50c0 2.8-2.2 5-5 5h-51c-2.8 0-5-2.2-5-5v-50zm-47 230c0 2.8 2.2 5-5 5H13c-2.8 0-5-2.2-5-5v-50c0-2.8 2.2-5 5-5h129c2.8 0 5 2.2 5 5v50zm124 68c0 2.8-2.2 5-5 5h-68c-2.8 0-5-2.2-5-5v-58c0-2.8 2.2-5 5-5h68c2.8 0 5 2.2 5 5v58z"/><path fill="none" stroke="#fff" stroke-width="2" d="M0 0v421h911V0H0zm194 109c0-2.8 2.2-5 5-5h51c2.8 0 5 2.2 5 5v50c0 2.8-2.2 5-5 5h-51c-2.8 0-5-2.2-5-5v-50zm-47 230c0 2.8-2.2 5-5 5H13c-2.8 0-5-2.2-5-5v-50c0-2.8 2.2-5 5-5h129c2.8 0 5 2.2 5 5v50zm124 68c0 2.8-2.2 5-5 5h-68c-2.8 0-5-2.2-5-5v-58c0-2.8 2.2-5 5-5h68c2.8 0 5 2.2 5 5v58z"/></g><g id="captura-seccion"><path opacity=".7" d="M0 0v421h911V0H0zm147 339c0 2.8-2.2 5-5 5H13c-2.8 0-5-2.2-5-5v-50c0-2.8 2.2-5 5-5h129c2.8 0 5 2.2 5 5v50zm124 68c0 2.8-2.2 5-5 5h-68c-2.8 0-5-2.2-5-5v-58c0-2.8 2.2-5 5-5h68c2.8 0 5 2.2 5 5v58zm45-248c0 2.8-2.2 5-5 5h-51c-2.8 0-5-2.2-5-5v-50c0-2.8 2.2-5 5-5h51c2.8 0 5 2.2 5 5v50z"/><path fill="none" stroke="#fff" stroke-width="2" d="M0 0v421h911V0H0zm147 339c0 2.8-2.2 5-5 5H13c-2.8 0-5-2.2-5-5v-50c0-2.8 2.2-5 5-5h129c2.8 0 5 2.2 5 5v50zm124 68c0 2.8-2.2 5-5 5h-68c-2.8 0-5-2.2-5-5v-58c0-2.8 2.2-5 5-5h68c2.8 0 5 2.2 5 5v58zm45-248c0 2.8-2.2 5-5 5h-51c-2.8 0-5-2.2-5-5v-50c0-2.8 2.2-5 5-5h51c2.8 0 5 2.2 5 5v50z"/></g><g id="cambiar-programas"><path opacity=".7" d="M0 0v421h911V0H0zm101 219c0 2.8-2.2 5-5 5H13c-2.8 0-5-2.2-5-5v-50c0-2.8 2.2-5 5-5h83c2.8 0 5 2.2 5 5v50zm170 188c0 2.8-2.2 5-5 5h-68c-2.8 0-5-2.2-5-5v-58c0-2.8 2.2-5 5-5h68c2.8 0 5 2.2 5 5v58z"/><path fill="none" stroke="#fff" stroke-width="2" d="M0 0v421h911V0H0zm101 219c0 2.8-2.2 5-5 5H13c-2.8 0-5-2.2-5-5v-50c0-2.8 2.2-5 5-5h83c2.8 0 5 2.2 5 5v50zm170 188c0 2.8-2.2 5-5 5h-68c-2.8 0-5-2.2-5-5v-58c0-2.8 2.2-5 5-5h68c2.8 0 5 2.2 5 5v58z"/></g><g id="spotlight"><path opacity=".7" d="M0 0v421h911V0H0zm579 407c0 2.8-2.2 5-5 5H276c-2.8 0-5-2.2-5-5 0 2.8-2.2 5-5 5h-68c-2.8 0-5-2.2-5-5v-58c0-2.8 2.2-5 5-5h68c2.8 0 5 2.2 5 5 0-2.8 2.2-5 5-5h298c2.8 0 5 2.2 5 5v58z"/><path fill="none" stroke="#fff" stroke-width="2" d="M0 0v421h911V0H0zm579 407c0 2.8-2.2 5-5 5H276c-2.8 0-5-2.2-5-5 0 2.8-2.2 5-5 5h-68c-2.8 0-5-2.2-5-5v-58c0-2.8 2.2-5 5-5h68c2.8 0 5 2.2 5 5 0-2.8 2.2-5 5-5h298c2.8 0 5 2.2 5 5v58z"/></g><g id="cerrar-aplicacion"><path opacity=".7" d="M0 0v421h911V0H0zm162 219c0 2.8-2.2 5-5 5h-51c-2.8 0-5-2.2-5-5v-50c0-2.8 2.2-5 5-5h51c2.8 0 5 2.2 5 5v50zm109 188c0 2.8-2.2 5-5 5h-68c-2.8 0-5-2.2-5-5v-58c0-2.8 2.2-5 5-5h68c2.8 0 5 2.2 5 5v58z"/><path fill="none" stroke="#fff" stroke-width="2" d="M0 0v421h911V0H0zm162 219c0 2.8-2.2 5-5 5h-51c-2.8 0-5-2.2-5-5v-50c0-2.8 2.2-5 5-5h51c2.8 0 5 2.2 5 5v50zm109 188c0 2.8-2.2 5-5 5h-68c-2.8 0-5-2.2-5-5v-58c0-2.8 2.2-5 5-5h68c2.8 0 5 2.2 5 5v58z"/></g><g id="cerrar-ventana"><path opacity=".7" d="M0 0v421h911V0H0zm163 219v-50c0-2.8 2.2-5 5-5h51c2.8 0 5 2.2 5 5v50c0 2.8-2.2 5-5 5h-51c-2.8 0-5-2.2-5-5zm108 188c0 2.8-2.2 5-5 5h-68c-2.8 0-5-2.2-5-5v-58c0-2.8 2.2-5 5-5h68c2.8 0 5 2.2 5 5v58z"/><path fill="none" stroke="#fff" stroke-width="2" d="M0 0v421h911V0H0zm163 219v-50c0-2.8 2.2-5 5-5h51c2.8 0 5 2.2 5 5v50c0 2.8-2.2 5-5 5h-51c-2.8 0-5-2.2-5-5zm108 188c0 2.8-2.2 5-5 5h-68c-2.8 0-5-2.2-5-5v-58c0-2.8 2.2-5 5-5h68c2.8 0 5 2.2 5 5v58z"/></g><g id="minimizar"><path opacity=".7" d="M0 0v421h911V0H0zm271 407c0 2.8-2.2 5-5 5h-68c-2.8 0-5-2.2-5-5v-58c0-2.8 2.2-5 5-5h68c2.8 0 5 2.2 5 5v58zm308-68c0 2.8-2.2 5-5 5h-51c-2.8 0-5-2.2-5-5v-50c0-2.8 2.2-5 5-5h51c2.8 0 5 2.2 5 5v50z"/><path fill="none" stroke="#fff" stroke-width="2" d="M0 0v421h911V0H0zm271 407c0 2.8-2.2 5-5 5h-68c-2.8 0-5-2.2-5-5v-58c0-2.8 2.2-5 5-5h68c2.8 0 5 2.2 5 5v58zm308-68c0 2.8-2.2 5-5 5h-51c-2.8 0-5-2.2-5-5v-50c0-2.8 2.2-5 5-5h51c2.8 0 5 2.2 5 5v50z"/></g><path opacity=".7" d="M69 152.5H47c-11.8 0-21.5-9.7-21.5-21.5V50c0-11.8 9.7-21.5 21.5-21.5h22c11.8 0 21.5 9.7 21.5 21.5v81c0 11.8-9.7 21.5-21.5 21.5z" id="click-izquierdo"/><path opacity=".7" d="M179.5 153h-22c-11.8 0-21.5-9.7-21.5-21.5v-81c0-11.8 9.7-21.5 21.5-21.5h22c11.8 0 21.5 9.7 21.5 21.5v81c0 11.8-9.7 21.5-21.5 21.5z" id="click-derecho"/><path opacity=".7" d="M114 24h-2c-12.1 0-22 9.7-22 21.5v174c0 11.8 9.9 21.5 22 21.5h2c12.1 0 22-9.7 22-21.5v-174c0-11.8-9.9-21.5-22-21.5zm-1 205l-10.7-24h8.9v-19.8h3.7V205h8.9L113 229zm1.8-171.8V77h-3.7V57.2h-8.9l10.7-24 10.7 24h-8.8z" id="desplazamiento"/><g id="mission-control" opacity=".7"><circle cx="84" cy="188" r="29"/><circle cx="142" cy="188" r="29"/></g></svg>