<svg version="1.1" id="Layer_1" xmlns="http://www.w3.org/2000/svg" x="0" y="0" viewBox="0 0 800 600" xml:space="preserve"><path d="M29.5 31.7v26.9l4.3-.4V43.6l4.9 13.8 4.6-.5V31.7h-4.2v14.8l-5.3-14.8zm17.9 0v24.8l11.7-.8v-4.3l-7.3.4v-6.1h5.6v-4.3h-5.8v-5.5h7.5v-4.2zm14.4 0v4.2h4.3v19.3h4.4V35.9h4.3v-4.2zm15.8 0v23.5h4.2v-9.7h5.5V41h-5.7v-5.1h7.6v-4.2zm14.4 0v23.5l11.3.7v-4.3l-7-.4V31.7zm14.9 0v24.4l4.2.4V31.7zm7.6 0l4.9 12.3-5.3 12.7 4.7.5 3-6.8 2.9 7.6 4.9.6-5.5-14.2 5.5-12.7h-4.7l-2.9 6.5-2.8-6.5z" id="netflix-logo-big" fill="#FFF"/><path d="M101.7 53.4c-1.5.3-5.3.5-5.3.5l-.5 1.5s1.9-.2 3.3 0c0 0 .5-.1.5.5V57s0 .3-.5.4c-.5.1-4.1.2-4.1.2l-.6 2s-.2.5.3.3c.5-.1 4.2-.8 4.7-.7s1.1.8.9 1.5c-.2.8-4 3.2-6.2 3 0 0-1.2.1-2.2-1.5-.9-1.5.4-4.5.4-4.5s-.6-1.4-.2-1.8c0 0 .3-.2 1-.3l.9-1.9s-1 .1-1.7-.7c-.6-.7-.6-1.1-.2-1.3.5-.2 4.8-1 7.8-.9 0 0 1-.1 1.9 1.7.1 0 .5.7-.2.9zm-11.3 7.3c-.4.9-1.4 1.9-2.7 1.3s-3.2-4.7-3.2-4.7-.8-1.5-.9-1.5c0 0-.2-.3-.3 1.4-.1 1.7 0 4.9-.6 5.4s-1.4.3-1.8-.3-.5-2-.3-4.4.8-5 1.5-5.9c.7-.8 1.3-.2 1.5 0 0 0 1 .9 2.6 3.5l.3.5s1.5 2.4 1.6 2.4c0 0 .1.1.2 0 .2 0 .1-.8.1-.8s-.3-2.7-1.6-7.2c0 0-.2-.6-.1-1.1s.7-.3.7-.3 2.1 1 3 4.4c1 3.4.4 6.4 0 7.3zm-10.1-8.6c-.2.3-.3.8-1.1 1 0 0-8.3.6-8.7 1.1 0 0-.3.3.2.4.5.1 2.3.3 3.2.4 1 0 4.2 0 5.4 1.5 0 0 .7.7.7 2.3s-.3 2.2-.9 2.8c-.7.5-6.3 3.1-9.9-.8 0 0-1.7-1.9.6-3.3 0 0 1.6-1 5.7.2 0 0 1.3.5 1.2.9-.1.5-1 1-2.4 1s-2.3-.7-2.1-.6-1.5-.8-2-.2c-.5.5-.4.9.1 1.2 1.3.7 6.1.5 7.6-1.1 0 0 .6-.7-.3-1.2s-3.4-.8-4.4-.9c-.9-.1-4.4 0-4.9-.9 0 0-.5-.6.1-2.4.6-1.9 4.6-2.6 6.4-2.7 0 0 4.8-.2 5.7.8-.2-.1-.1.2-.2.5zM66.6 63c-.6.4-1.8.2-2.2-.2-.4-.4-.5-2.2-.4-4.9s.1-6.1.7-6.7c.6-.5 1-.1 1.3.3.3.4.6.8.6 1.6.1.9.3 5.4.3 5.4s.2 4.1-.3 4.5zm4.2-22.2c-.5-1.3-2.9-1.1-2.9-1.1-5 .4-6.6 3.9-6.8 4.8-.2.8-.1 2 .9 2.8-.3.8-.1 1.1 0 1.3.1.3.5 1 1 1 .3-.1.6-.3 1-1 1 .4 2.2.6 3.9.1 2.7-.9 5.3-3.5 5.3-5.6 0-2.3-2.4-2.3-2.4-2.3zm-7.9 4.6c-.2-.3-.2-.8.3-1.6.7-1.1 1.7-1.6 2.9-1.7-1.6 1.1-2.6 2.5-3.2 3.3zm8.3-1.5c-1.4 2.8-4.5 2.9-6.3 2.6 1.1-1.7 3.6-3.8 5.1-4 1.8-.3 1.2 1.4 1.2 1.4zm40.9 8c-2.5-1.7-6.5 3.8-8.3 6.5-.3-1.4.7-3.1.7-3.1s1.5-2.6 1.7-3.1.3-1.6.1-1.7c-.2-.1-.6.2-.6.2-3.4 3-3.8 6.4-3.8 6.4-.3 1.8.1 3.1.6 4-1.9 4-2.8 7.5-2.5 9.5.2 1.6 1.4 2.7 2 2.9.7.3.8-.5.8-.5.6-4.3 1.5-7.1 2.7-9.9 3.5.8 6.1-2.6 7.1-4.2.5-1 .8-2.3.8-3.5-.1-1.6-.4-2.9-1.3-3.5zm-2.3 6.8c-.4.4-1.7 1.1-3.1 1.3 1.3-2.6 3-4.4 3.9-5.4 1-1.2 1.2-.1 1.2-.1.2 2-1.3 3.6-2 4.2zM50.4 41.5s-11.5-5.9-20.9-2.6c0 0-.6 0-1.1.8s-1 1.3-.7 1.9c.3.6 1.7.9 3 .4 0 0 .6-.4-.2-.6-.7-.2-1.1-.3-1.1-.3s-.4-.1 0-.3 4.7-1.6 12.3.4 18 8.1 17.7 14.5c-.3 6.4-10.4 6.7-10.4 6.7s-2 .1-4.8-.4c-.1-2.1-.2-5.7-.1-7.9 3.9 0 7.9.7 8.2 1.6 0 0 .2.4-.7.9-.8.4-1.4.6-.8 1 0 0 1 .5 1.6.4s2.2-.8 2.3-2.5c.2-1.8-1.9-3.3-4.9-3.9-2.3-.4-3.6-.6-5.7-.5 0-1.9-.3-4.3-.7-4.9-.5-.7-1.1-1.7-1.6-.6-.4.9-.7 3-.8 5.8-3.2.5-6.8 1.9-7.9 3.2-1.2 1.5 0 2.7.1 2.8.1.2 2.4 3.5 7.5 5.9.1.9.3 1.9.6 2.5.8 1.2 2.2.3 2.4.2.1-.2.2-.5.3-1.4 2.3.6 6.4 1.2 10.8-.1 6.6-2 7.6-6.1 7.8-8.6.4-2.6-1.4-9-12.2-14.4zm-9.6 19.6c-2.3-.8-4.8-2.2-6.8-4.3 0 0-.7-.8.3-1.3 1-.4 3.1-1 6.8-1.3 0 1.9 0 3.2-.3 6.9zm91.7-6.4V56c0 .3-.2.5-.5.5h-6.3v.9c0 2-.1 3.6-.3 5.4 0 .3-.3.5-.5.5h-1.4c-.1 0-.3-.1-.4-.2-.1-.1-.1-.2-.1-.4.2-1.8.3-3.4.3-5.3v-.9H117c-.3 0-.5-.2-.5-.5v-1.3c0-.3.2-.5.5-.5h6.2c-.1-2.2-.4-4.3-.8-6.4 0-.1 0-.3.1-.4.1-.1.2-.2.3-.2h1.5c.2 0 .4.2.5.4.4 2.2.7 4.3.8 6.5h6.4c.2.1.5.3.5.6z" id="disney-logo-big" fill="#FFF"/><g id="youtube-logo-big"><rect fill="#FFF" width="160" height="90" rx="10" ry="10"/><path fill="#EB3323" d="M51.8 33.6c-.6-2.1-2.2-3.7-4.2-4.2-3.7-1-18.6-1-18.6-1s-15 0-18.6 1c-2.1.6-3.7 2.2-4.2 4.2C5 37.2 5 45 5 45s0 7.8 1 11.4c.6 2.1 2.2 3.7 4.2 4.2 3.7 1 18.6 1 18.6 1s15 0 18.6-1c2.1-.6 3.7-2.2 4.2-4.2 1-3.7 1-11.4 1-11.4s.1-7.8-.8-11.4z"/><path fill="#FFF" d="M24.1 52.1L36.5 45l-12.4-7.1z"/><path fill="#232323" d="M79.6 55.4c.3-.7.4-1.8.4-3.4v-6.6c0-1.5-.1-2.6-.4-3.3s-.7-.9-1.4-.9-1.1.4-1.3 1c-.3.7-.4 1.8-.4 3.3v6.6c0 1.6.1 2.6.4 3.4.3.7.7 1 1.4 1 .7-.1 1-.4 1.3-1.1zm-5.2 3.3c-.9-.7-1.6-1.6-2.1-3-.4-1.3-.6-3.1-.6-5.3v-3c0-2.2.2-4 .7-5.4s1.2-2.3 2.2-3c.9-.7 2.2-.9 3.8-.9 1.6 0 2.8.3 3.7.9.9.7 1.6 1.6 2.1 3 .5 1.3.7 3.2.7 5.4v3c0 2.3-.2 4-.7 5.3-.4 1.3-1.1 2.3-2.1 3-.9.7-2.2.9-3.8.9-1.7 0-3-.3-3.9-.9zm73.1-17.1c-.3.3-.4.8-.5 1.4-.1.7-.1 1.7-.1 3.1v1.5h3.5v-1.5c0-1.3 0-2.3-.1-3.1-.1-.7-.3-1.2-.5-1.5-.3-.3-.6-.5-1.1-.5-.5.2-.9.3-1.2.6zm-.5 8.8v1c0 1.3 0 2.3.1 3s.3 1.1.5 1.5c.3.3.7.5 1.1.5.7 0 1.2-.3 1.5-.8.3-.6.4-1.5.5-2.7l4 .3v.8c0 2-.6 3.4-1.6 4.3-1 .9-2.5 1.4-4.5 1.4-2.3 0-3.9-.8-4.9-2.2-.9-1.5-1.4-3.8-1.4-6.8V47c0-3.2.5-5.4 1.5-6.8.9-1.4 2.6-2.2 5-2.2 1.6 0 2.9.3 3.7.8s1.5 1.5 1.9 2.7.6 3 .6 5.2v3.6l-8 .1zm-84.1-.3l-5.3-19.3h4.7l1.9 8.8c.5 2.2.8 4 1 5.5h.1c.2-1.1.5-2.9 1-5.5l2-8.8H73l-5.4 19.3v9.3h-4.7v-9.3c-.1 0 0 0 0 0zM100 38.3v20.9h-3.7l-.3-2.5h-.2c-1 2-2.5 2.9-4.5 2.9-1.4 0-2.4-.5-3.1-1.4s-1-2.3-1-4.2V38.3h4.7v15.4c0 .9.1 1.6.3 2 .2.4.6.6 1 .6s.8-.1 1.2-.4c.4-.3.7-.6.8-.9V38.3h4.8zm24.2 0v20.9h-3.7l-.4-2.5h-.1c-1 2-2.5 2.9-4.5 2.9-1.4 0-2.4-.5-3.1-1.4s-1-2.3-1-4.2V38.3h4.7v15.4c0 .9.1 1.6.3 2 .2.4.6.6 1 .6s.8-.1 1.2-.4c.4-.3.7-.6.8-.9V38.3h4.8z"/><path fill="#232323" d="M112.9 34.5h-4.7v24.7h-4.7V34.5h-4.7v-3.8h14v3.8zm22.6 15.7c0 1.5-.1 2.7-.2 3.6-.1.8-.4 1.5-.7 1.9s-.7.6-1.2.6c-.4 0-.7-.1-1.1-.3-.3-.2-.6-.5-.8-.8v-12c.2-.6.5-1 .8-1.4.4-.4.8-.6 1.2-.6.5 0 .8.2 1.1.6.3.4.5 1 .6 1.9.1.8.2 2.2.2 3.8l.1 2.7zm4.4-8.5c-.3-1.3-.7-2.2-1.4-2.9-.7-.6-1.5-.8-2.6-.8-.8 0-1.7.3-2.4.8s-1.3 1.1-1.8 2V29.6H127v29.7h3.9l.5-2h.1c.4.8.9 1.2 1.7 1.7.7.4 1.5.7 2.4.7 1.6 0 2.8-.8 3.6-2.2.7-1.5 1.1-3.8 1.1-6.8v-3.3c-.1-2.5-.2-4.4-.4-5.7z"/></g><g id="airbnb-logo-big"><rect fill="#FFF" width="160" height="90" rx="10" ry="10"/><path fill="#FF5A5F" d="M71.5 39.6v.8s-1.5-1.9-4.6-1.9c-5.2 0-9.1 3.8-9.1 9.3s3.9 9.3 9.1 9.3c3.2 0 4.6-2 4.6-2v.8c0 .4.3.7.7.7H76V38.7h-3.8c-.5.1-.7.5-.7.9zm0 11.2c-.8 1-2.2 2-3.8 2-1.1 0-2.2-.3-3-.8-.3-.2-.6-.4-.8-.6-.3-.3-.5-.5-.7-.8-.6-.8-.8-1.9-.8-3s.4-2.3.8-3c.2-.3.5-.6.7-.8.3-.3.6-.5.8-.6.8-.6 1.9-.8 3-.8 1.7 0 3.2.9 3.8 2v6.4zm74.4-12.5c-3.1 0-4.6 1.9-4.6 1.9v-9.9h-4.5v26.2h3.8c.4 0 .7-.4.7-.7V55s1.4 2 4.6 2c5.2 0 9.1-3.9 9.1-9.3 0-5.3-4-9.4-9.1-9.4zm4.5 9.9c-.1.4-.1.8-.2 1-.3.8-.8 1.6-1.3 2.1-.2.1-.3.2-.4.4-.3.2-.6.4-.8.6-.2.1-.4.2-.5.2-.4.1-.7.2-.9.3-.4.1-.8.1-1 .1h-.5c-.1 0-.4-.1-.5-.1-.3-.1-.6-.2-.8-.3l-.6-.3c-.5-.3-.8-.7-1.2-.9-.1-.2-.2-.3-.3-.4v-6.4c.8-.9 2.3-2 3.8-2 3 0 5.3 1.9 5.3 5.1 0 .2 0 .4-.1.6zM132.3 40c-1.3-1.1-2.9-1.7-5-1.7-1.8 0-3.5.6-4.8 1.9v-.8c0-.4-.3-.7-.7-.7h-3.6v17.6h4.5V44.2c.8-1 2.3-1.8 3.7-1.8 2.5 0 3.5 1.1 3.5 4v9.9h4.5V46c.1-3-.5-4.7-2.1-6zm-41.9.2v-.8c0-.4-.3-.7-.7-.7h-3.8v17.6h4.5V44.2c2.3-2.6 6.1-1.4 6.1-1.4v-4.1s-.8-.3-2.1-.3c-1.3-.1-3.1.9-4 1.8zm17.1-1.9c-3.1 0-4.6 1.9-4.6 1.9v-9.9h-4.4v26.2h3.8c.3 0 .7-.4.7-.7V55s1.4 2 4.6 2c5.2 0 9.1-3.9 9.1-9.3-.1-5.3-4.1-9.4-9.2-9.4zm4.5 9.9c-.1.4-.1.8-.2 1-.3.8-.8 1.6-1.3 2.1-.2.1-.3.2-.4.4-.3.2-.6.4-.8.6-.2.1-.4.2-.5.2-.4.1-.7.2-.9.3-.4.1-.8.1-1 .1h-.5c-.2 0-.4-.1-.5-.1-.3-.1-.6-.2-.8-.3l-.6-.3c-.5-.3-.8-.7-1.2-.9-.1-.2-.2-.3-.3-.4v-6.4c.8-.9 2.3-2 3.8-2 1.1 0 2.2.3 3 .8.3.2.6.4.8.6.3.3.5.5.7.8.6.8.8 1.9.8 3 0 .1 0 .3-.1.5zM80.9 30.4c-1.8 0-3.1 1.3-3.1 3.1s1.3 3.1 3.1 3.1 3.1-1.3 3.1-3.1c-.1-1.7-1.4-3.1-3.1-3.1zm-2.2 8.4h4.5v17.6h-4.5zM47.8 54.9c-.3-.6-.5-1.1-.8-1.7-.4-.8-.8-1.7-1-2.3l-.1-.1c-3.3-7-6.8-14.2-10.3-21.2l-.2-.3c-.4-.8-.8-1.4-1.1-2.3-.5-.8-.9-1.8-1.7-2.5-1.5-1.9-3.7-2.9-5.9-2.9-2.3 0-4.4 1-6 2.8-.8.8-1.2 1.8-1.7 2.5-.4.8-.8 1.5-1.1 2.3l-.2.3c-3.7 7-7.1 14.2-10.3 21.2v.1c-.4.8-.8 1.6-1 2.3-.3.6-.6 1.1-.8 1.8-.7 1.8-.8 3.4-.6 5.1.6 3.6 2.8 6.5 6.1 7.8 1.2.6 2.4.8 3.8.8.4 0 .8-.1 1.2-.1 1.6-.2 3.2-.8 4.7-1.6 2-1 3.8-2.6 5.8-4.9 2.1 2.3 3.9 3.8 5.8 4.9 1.6.8 3.2 1.4 4.7 1.6.4.1.8.1 1.2.1 1.3 0 2.6-.3 3.8-.8 3.3-1.3 5.5-4.3 6.1-7.8.4-1.8.2-3.4-.4-5.1zm-21.2 2.5c-2.5-3.2-4.1-6.2-4.8-8.7-.3-1-.3-2.1-.2-2.8.1-.8.4-1.4.8-2 .8-1.2 2.3-2.1 4.1-2.1s3.3.8 4.1 2.1c.4.6.7 1.2.8 2 .2.8.1 1.9-.2 2.8-.3.9-.6 2-1 3-.8 1.6-1.9 3.6-3.6 5.7zm19 2.1c-.1.4-.4.8-.6 1.3-.3.8-.7 1.3-1 2-.3.4-.7.8-.9.9s-.5.4-.8.6c-.3.2-.6.4-.8.5s-.3.2-.5.2c-.5.2-.8.4-1.3.4-.3.1-.7.1-.8.1h-.5c-.3 0-.7 0-.8-.1-1-.2-2.1-.5-3.1-.9-.2-.1-.3-.2-.5-.3-1-.6-2.2-1.3-3.3-2.3-.4-.4-.8-.7-1-.9-.4-.4-.8-.8-1-1.1.2-.3.4-.5.6-.8.4-.5.8-.9 1-1.4.2-.3.4-.5.5-.8.4-.5.7-.8.8-1.3 1.3-2.3 2.3-4.3 2.7-6.3.4-1.4.4-2.7.3-3.9-.2-1.1-.7-2.3-1.2-3.2-1.4-2.2-3.8-3.4-6.7-3.4S21.5 40 20 42.2c-.7.9-1 2.1-1.2 3.2-.2 1.2-.2 2.5.3 3.9.8 3.1 2.6 6.7 5.6 10.4-.5.6-.9 1-1.4 1.5s-.8.8-1.3 1.2c-.8.8-1.8 1.3-2.5 1.9-1.2.8-2.3 1-3.6 1.2-1.2.2-2.4-.1-3.6-.5-2.3-.9-3.9-3.1-4.2-5.4-.2-1.1-.1-2.3.5-3.7.2-.5.4-.9.7-1.5.4-.8.8-1.6 1-2.3l.1-.1c2.4-5.3 5-10.5 7.7-15.8.8-1.8 1.8-3.6 2.6-5.3l.2-.3c.4-.8.8-1.4 1.1-2.2.4-.8.8-1.4 1.3-2.1.9-1.1 2.3-1.8 3.8-1.8 1 0 2.2.4 2.9.9.2.1.3.3.5.4l.4.4c.6.7.9 1.3 1.3 2.1s.8 1.4 1.1 2.2l.2.3c.8 1.8 1.8 3.6 2.6 5.3.8 1.8 1.8 3.6 2.6 5.3 1.8 3.6 3.4 7 5.1 10.5v.1c.4.8.8 1.6 1 2.3.1.2.1.3.2.5.1.3.2.7.3.8.1.2.1.3.2.4.1.4.2.7.3.8.1.3.1.7.2.8-.3 1.2-.2 1.4-.4 1.9z"/></g><g id="facebook-logo-big"><rect fill="#0075FB" width="160" height="90" rx="15" ry="15"/><path fill="#FFF" d="M19.1 30.3v4.6h-2.5s-2.2-.3-2.2 1.9v3.6h4.8l-.6 5h-4.2v13.8H8.8v-14H5v-4.9h3.9v-4.1s-.5-2.3 1.5-4.1c2.1-1.9 4.7-1.7 4.7-1.7l4-.1zm13.3 10.1v2.4c-1.4-1.9-3.4-3-5.5-3-4.3 0-7.8 3.8-7.8 9.9s3.5 9.9 7.8 9.9c2.2 0 4.2-1.2 5.6-3.1v2.4h5.3V40.3l-5.4.1zm-.3 11.3c0 1.9-1.6 3.7-3.6 3.7S25 53.5 25 51.7v-3.6c0-1.9 1.6-3.7 3.6-3.7s3.6 1.8 3.6 3.7v3.6h-.1zm49.1 7.5v-2.4c1.4 1.9 3.4 3 5.5 3 4.3 0 7.8-3.8 7.8-9.9S91 40 86.7 40c-2.3 0-4.2 1.2-5.6 3.1V30.6l-5.5.7v27.9h5.6zm.4-11.3c0-1.9 1.6-3.7 3.6-3.7s3.6 1.8 3.6 3.7v3.6c0 1.9-1.6 3.7-3.6 3.7s-3.6-1.8-3.6-3.7v-3.6zm-31.8 7.3s-4.3.3-4.3-5.2v-.3c0-5.5 4.3-5.2 4.3-5.2 2.9 0 3.9.9 3.9.9l1.3-4c-2.3-1.7-9.3-2-12.5.9-2.7 2.5-2.7 6.6-2.6 7.6-.1 1-.1 5.1 2.6 7.6 3.1 2.9 10.1 2.6 12.5.9l-1.3-4c0-.2-1.1.8-3.9.8zm23.6-3.4S75.6 40.1 65 40s-9.2 10.6-9.2 10.6c.3 6.5 3.2 8.3 8.3 8.9 5.2.6 8.9-1.3 8.9-1.3l-1.2-3.8s-4.1 1.2-7.4.9-3-3.7-3-3.7l12 .2zm-12-3.8s-.3-4.1 3.5-4.1 3.5 4.1 3.5 4.1h-7zm44.2-7.9c-6.9 0-9.3 4.2-9.3 9.8 0 6 3 9.8 9.3 9.8 5.2 0 9.3-3.5 9.3-9.8.1-5.4-2.7-9.8-9.3-9.8zm3.6 11.5c0 1.9-1.7 3.7-3.7 3.7-2.1 0-3.7-1.8-3.7-3.7V48c0-1.9 1.7-3.7 3.7-3.7 2.1 0 3.7 1.8 3.7 3.7v3.6zm17-11.5c-6.9 0-9.3 4.2-9.3 9.8 0 6 3 9.8 9.3 9.8 5.2 0 9.3-3.5 9.3-9.8 0-5.4-2.7-9.8-9.3-9.8zm3.6 11.5c0 1.9-1.7 3.7-3.7 3.7-2.1 0-3.7-1.8-3.7-3.7V48c0-1.9 1.7-3.7 3.7-3.7 2.1 0 3.7 1.8 3.7 3.7v3.6zm25.2 7.6l-6.1-9.4 5.8-9.5h-5.9l-5.7 8.5V30.5l-5.6.5v28.2h5.6v-9.6l6.1 9.6z"/></g><g id="google-logo-big"><rect fill="#FFF" width="160" height="90" rx="10" ry="10"/><path fill="#4285F4" d="M41.8 37.8H24.4V43h12.4c-.7 7.3-6.7 10.4-12.4 10.4-7.3 0-13.7-5.7-13.7-13.8 0-7.9 6.1-13.9 13.7-13.9 5.9 0 9.4 3.7 9.4 3.7l3.7-3.7s-4.7-5.2-13.2-5.2c-11-.1-19.3 9-19.3 19 0 9.7 7.9 19.1 19.5 19.1 10.2 0 17.7-7 17.7-17.3 0-2.3-.4-3.5-.4-3.5z"/><path fill="#EA4335" d="M56.2 34c-7.2 0-12.4 5.6-12.4 12.2 0 6.7 5 12.4 12.4 12.4 6.8 0 12.2-5.2 12.2-12.2.2-8.2-6.3-12.4-12.2-12.4zm.1 4.8c3.6 0 6.8 2.8 6.8 7.5 0 4.5-3.4 7.4-6.9 7.4-3.9 0-7-3.1-7-7.5.1-4.2 3.1-7.4 7.1-7.4z"/><path fill="#FBBC05" d="M83 34c-7.2 0-12.4 5.6-12.4 12.2 0 6.7 5 12.4 12.4 12.4 6.7 0 12.2-5.2 12.2-12.2C95.4 38.2 88.9 34 83 34zm.1 4.8c3.6 0 6.8 2.8 6.8 7.5 0 4.5-3.4 7.4-6.9 7.4-3.9 0-7-3.1-7-7.5.1-4.2 3.2-7.4 7.1-7.4z"/><path fill="#4285F4" d="M109.3 34c-6.6 0-11.8 5.8-11.8 12.3 0 7.4 6 12.3 11.6 12.3 3.5 0 5.3-1.4 6.8-3V58c0 4.2-2.5 6.8-6.5 6.8-3.8 0-5.6-2.8-6.3-4.4l-4.7 2c1.7 3.6 5.1 7.2 11.1 7.2 6.6 0 11.5-4.1 11.5-12.8v-22h-5.2v2.1c-1.4-1.7-3.6-2.9-6.5-2.9zm.5 4.8c3.2 0 6.6 2.7 6.6 7.5s-3.3 7.4-6.7 7.4c-3.5 0-6.7-2.8-6.7-7.4 0-4.7 3.3-7.5 6.8-7.5z"/><path fill="#EA4335" d="M143.9 34c-6.2 0-11.4 5-11.4 12.3 0 7.7 5.8 12.3 12 12.3 5.2 0 8.3-2.8 10.3-5.3l-4.2-2.8c-1.1 1.7-2.9 3.4-6 3.4-3.5 0-5.1-1.9-6-3.8l16.4-6.8-.8-2c-1.6-4-5.4-7.3-10.3-7.3zm.2 4.7c2.2 0 3.8 1.2 4.5 2.6l-10.9 4.6c-.4-3.5 3-7.2 6.4-7.2z"/><path fill="#34A853" d="M124.6 57.8h5.4V21.7h-5.4v36.1z"/></g><g id="twitter-logo-big"><rect fill="#00CDFF" width="160" height="90" rx="10" ry="10"/><path fill="#FFF" d="M155 44.1c-1.1 1.3-2.6 1.6-4.2 1.9-.3.1-.6.3-.7.5-.8 1.3-1.3 2.8-2.1 4.1-1.6 2.5-3.8 4.3-6.4 5.7-3.6 2-7.4 2.9-11.4 2.8-5.9-.2-10.9-2.3-14.8-6.8-.3-.3-.5-.7-.7-1.1 4.8 3.3 9.4 3.4 14-.1-.8-.6-1.5-.9-2.1-1.5-.6-.7-.4-1.2.7-2.2-1.2-.1-2.2-.5-3.1-1.2-.1-.1-.2-.1-.3-.2-1.1-1.2-1-1.8.7-2.3.1 0 .2-.1.4-.1-.6-.3-1.1-.6-1.7-.8-.8-.6-1.4-1.4-1.8-2.3-.2-.6-.2-1 .7-1 .3 0 .6-.1 1-.2-1.6-1.3-2.9-2.7-2.8-5.1 2.5.8 4.8 1.8 7.1 2.8 2.2 1 4.6 2.1 6.4 4 .7-1.4 1.2-2.8 1.9-4.1.9-1.9 2.1-3.5 3.7-4.8.3-.3.7-.8 1.1-.3.1.1.4-.1.6-.2.4-.2.8-.4 1.2-.5.7-.2.7-.1.7.7.4 0 .8-.1 1.2-.1.3 0 .7.2.7.4.1.2-.1.6-.4.7-.5.3-.9.5-1.5.8.8.4 1.6.6 2.2.9 2.4 1.3 4.1 3.4 4.8 6.1.1.5.4.8.9.8h2.5c.5 0 .9-.1 1.5-.2-.6 1.7-1.9 2-3.2 2.3v.3c1 .1 2.1.1 3.2.3 0-.2 0-.1 0 0zM35.2 54.7c-1.6 1.3-3.4 2-5.4 1.9-3-.1-5.1-1.7-6.6-4.1-.7-1.1-.8-2.4-.8-3.8-.1-1.7-.1-3.4 0-5.1.1-2.1 1.4-3.2 3.4-2.9 1.1.2 2.1 1.1 2.1 2.3.1 1.9 0 3.8.1 5.7 0 .9.7 2 1.4 2.3 1 .4 2.1.4 2.7-.6.4-.5.6-1.2.6-1.8.1-1.6 0-3.3 0-4.9.1-2.1 1.5-3.3 3.4-2.9 1.2.2 2.2 1.5 2.2 3v5c0 .9.3 1.8 1.3 2.2s2.2.3 2.7-.6c.4-.6.7-1.2.7-2 .1-1.7 0-3.4 0-5.2 0-1.4 1-2.5 2.4-2.6s2.7.8 2.8 2.2c.2 2.8.5 5.7-.3 8.4-.8 2.9-4 5.2-7 5.2-2.2.1-4-.4-5.7-1.7zM10.8 41h7.6c2 0 3.2 1.9 2.5 3.7-.4 1-1.3 1.7-2.5 1.7h-7.5c-.5 1.9 0 3.4 1.2 4 .3.2.8.3 1.2.3h5.2c2 0 3.4 1.9 2.9 3.8-.3 1.2-1.5 2.1-2.7 2.1h-6.1c-4 0-7.7-3.8-7.8-7.8 0-3.8.1-7.8 0-11.6 0-1.5 1.2-2.8 2.8-2.9 1.5-.1 3 1.2 3 2.8.2 1.2.2 2.5.2 3.9zm80.7 9.3c.7 1.2 1.8 1.4 2.8 1.5 1.7.1 3.5 0 5.2 0 1.1 0 2 .6 2.2 1.5.3.9.3 2-.7 2.6-.4.3-.8.6-1.3.6-2.3.1-4.7.1-7 0-3-.1-6.3-2.7-7-5.7-.7-2.6-.4-5.2 1.3-7.4 1.1-1.5 2.8-2.3 4.6-2.6 1.9-.3 3.8-.3 5.5.3 2.9.9 5.3 3.8 5.2 6.8-.1 1.5-.8 2.4-2.4 2.4H92c.1-.1-.2 0-.5 0zm.2-4h5c-.6-1.1-1.6-1.6-3.2-1.3-1.1.1-1.6.5-1.8 1.3zM77.4 41h4.5c1.3 0 2.2.7 2.6 1.6.5 1.2.2 2.3-.8 3.2-.5.4-1.1.5-1.7.6-1.5.1-2.9 0-4.4 0-.4 2-.2 3.3 1.2 4 .4.2.8.3 1.2.3.8.1 1.8 0 2.6 0 1.3.1 2.3.9 2.6 2.2.3 1.4-.2 2.6-1.4 3.4-.2.1-.5.3-.7.3-1.9-.1-3.8.1-5.5-.3-2.5-.6-4.3-2.2-5.3-4.7-.5-1.1-.8-2.4-.8-3.7-.1-3.6-.1-7.1 0-10.7 0-2.2 2-3.5 4-2.8 1 .4 1.9 1.5 1.9 2.6v4zM63 41h4.5c2.1 0 3.2 1.4 2.7 3.5-.2.9-.9 1.7-2 1.8-1.5.1-3 .1-4.6.1H63c-.4 1.9-.2 3.4 1.3 4 .4.2.8.3 1.2.3H68c1.4.1 2.3.9 2.6 2.2.3 1.3-.3 2.5-1.5 3.2-.2.1-.5.3-.7.3-1.9-.1-3.8.1-5.5-.3-2.4-.6-4.1-2.3-5.2-4.5-.6-1.2-.8-2.5-.8-3.8V37.4c0-1.8 1.3-3.1 2.9-3.1s2.9 1.3 2.9 3.1c.3 1 .3 2.3.3 3.6z"/><path fill="#FFF" d="M103.6 51c.2-1.6.1-3.2.6-4.7.6-2.2 2.2-3.7 4.1-4.7 1.2-.7 2.6-.7 3.9-.7h3.1c1.5 0 2.7 1.2 2.7 2.6 0 1.5-1.1 2.6-2.6 2.7h-3.3c-1.9 0-3.1 1.1-3 2.9.1 1.5 0 3 0 4.5 0 1.6-1 2.7-2.6 2.7-1.7 0-2.7-.9-2.8-2.6 0-.8 0-1.8-.1-2.7.1 0 0 0 0 0zm-48.1-2.4c0 1.7-.1 3.4 0 5.2.1 1-1.1 2.4-2.1 2.7-1.4.3-2.8-.3-3.4-1.4-.2-.5-.4-1.1-.4-1.6v-9.6c0-2.2 1.6-3.5 3.7-3.1 1.1.2 2.2 1.4 2.2 2.6v5.2zm.1-12c0 1.6-1.2 2.8-2.9 2.9-1.6.1-3-1.4-3-3s1.4-2.8 3-2.8c1.7 0 3.1 1.5 2.9 2.9z"/></g><g id="maps-logo-big"><rect fill="#FFF" width="160" height="90" rx="10" ry="10"/><path fill="#767676" d="M95.1 48.6l5-2.1c-.3-.7-1.1-1.2-2.1-1.2-1.2-.1-3 1-2.9 3.3m5.8 1.8l1.9 1.2c-.7.9-2.1 2.4-4.7 2.4-3.2 0-5.4-2.4-5.4-5.5 0-3.3 2.3-5.5 5.1-5.5 2.9 0 4.3 2.3 4.8 3.6l.3.7-7.5 3.1c.6 1.1 1.5 1.7 2.7 1.7 1.4-.1 2.3-.7 2.8-1.7M88.8 37.5h2.4v16.4h-2.4zm-3.9 11.1c0-2-1.3-3.4-3-3.4s-3.1 1.4-3.1 3.4 1.4 3.4 3.1 3.4 3-1.4 3-3.4zm2.1-5.2v10c0 4.1-2.4 5.8-5.3 5.8-2.7 0-4.3-1.8-5-3.3l2.2-.8c.4.9 1.3 2 2.8 2 1.9 0 3-1.1 3-3.3V53h-.1c-.6.7-1.6 1.3-2.9 1.3-2.8 0-5.3-2.4-5.3-5.5 0-3.2 2.5-5.6 5.3-5.6 1.3 0 2.3.6 2.9 1.2h.1v-.9c0-.1 2.3-.1 2.3-.1zm-26.7 5.2c0-2-1.4-3.4-3.1-3.4-1.7 0-3.1 1.4-3.1 3.4s1.4 3.4 3.1 3.4c1.6 0 3.1-1.4 3.1-3.4m2.4 0c0 3.2-2.4 5.5-5.5 5.5-3 0-5.5-2.3-5.5-5.5s2.4-5.5 5.5-5.5c3-.1 5.5 2.3 5.5 5.5m9.9 0c0-2-1.4-3.4-3.1-3.4s-3.1 1.4-3.1 3.4 1.4 3.4 3.1 3.4 3.1-1.4 3.1-3.4m2.5 0c0 3.2-2.4 5.5-5.5 5.5s-5.5-2.3-5.5-5.5 2.4-5.5 5.5-5.5 5.5 2.3 5.5 5.5m-32.7 5.6c-4.8 0-8.8-3.8-8.8-8.6s4-8.6 8.8-8.6c2.6 0 4.5 1 5.9 2.3L46.6 41c-1-.9-2.3-1.7-4.3-1.7-3.5 0-6.2 2.8-6.2 6.3s2.7 6.3 6.2 6.3c2.2 0 3.6-.9 4.4-1.7.7-.7 1.1-1.7 1.3-3h-5.6v-2.3h8c.1.4.1.9.1 1.5 0 1.8-.5 3.9-2.1 5.5-1.5 1.4-3.5 2.3-6 2.3"/><path id="path3911" fill="#767676" d="M108.7 53.7V39.2h1.9l5.1 8.9h.1l5.1-8.9h1.9v14.5h-1.9v-8.6l.1-2.4h-.1l-4.6 8H115l-4.6-8h-.1l.1 2.4v8.6h-1.7z"/><path id="path3913" fill="#767676" d="M128.3 54.2c-1 0-2-.3-2.6-.9-.7-.7-1-1.4-1-2.4 0-1.1.5-2 1.3-2.5.8-.7 1.9-.9 3.1-.9 1.1 0 2 .2 2.7.7v-.3c0-.7-.3-1.3-.7-1.8-.5-.5-1.1-.7-1.9-.7-.6 0-1 .1-1.5.4-.5.3-.7.7-.9 1l-1.7-.7c.2-.6.7-1.1 1.4-1.7.7-.6 1.6-.7 2.7-.7 1.3 0 2.3.4 3.2 1.1.8.7 1.3 1.8 1.3 3.2v6h-1.8v-1.3h-.1c-1 .7-2 1.5-3.5 1.5zm.5-1.9c.7 0 1.5-.3 2.1-.8.7-.6.9-1.2.9-2.1-.6-.5-1.3-.7-2.3-.7-.9 0-1.6.2-2.1.6-.5.4-.7.8-.7 1.4 0 .5.2.8.7 1.1.3.5.7.5 1.4.5z"/><path id="path3915" fill="#767676" d="M140.8 54.2c-.7 0-1.4-.2-2.1-.5-.6-.4-1-.7-1.3-1.2h-.1l.1 1.4v4.4h-1.9V43.9h1.8v1.4h.1c.3-.5.7-.8 1.3-1.2.7-.4 1.3-.5 2.1-.5 1.3 0 2.3.5 3.3 1.5.9 1 1.4 2.2 1.4 3.7s-.5 2.8-1.4 3.7c-.8 1.1-2 1.7-3.3 1.7zm-.3-1.9c.8 0 1.6-.4 2.2-1 .7-.7.9-1.5.9-2.6s-.3-2-.9-2.6c-.7-.7-1.4-1-2.2-1s-1.6.4-2.2.9c-.7.7-.9 1.5-.9 2.6s.3 2 .9 2.6c.6.8 1.3 1.1 2.2 1.1z"/><path id="path3917" fill="#767676" d="M151 54.2c-1.1 0-2.1-.3-2.7-.8-.7-.6-1.2-1.2-1.6-2.1l1.7-.7c.6 1.2 1.4 1.9 2.7 1.9.6 0 1-.1 1.4-.4.4-.3.6-.6.6-1 0-.7-.5-1.1-1.4-1.3l-2-.5c-.7-.2-1.2-.5-1.8-.9-.6-.5-.8-1-.8-1.9s.4-1.6 1.1-2.2c.7-.6 1.7-.8 2.8-.8.8 0 1.7.2 2.3.7.7.4 1.2.9 1.5 1.7l-1.6.7c-.4-.8-1.1-1.3-2.2-1.3-.6 0-1 .1-1.4.4s-.6.6-.6.9c0 .6.5.9 1.3 1.1l2 .5c.9.2 1.6.6 2.1 1.1.5.6.7 1.1.7 1.8 0 .8-.4 1.7-1.1 2.2s-1.8.9-3 .9z"/><path id="path835_1_" fill="#34A853" d="M10.5 51.8c.8 1.1 1.8 2.5 2.2 3.4.6 1.1.8 1.9 1.2 3.2.3.7.5.9 1 .9s.8-.4 1-.9c.4-1.3.7-2.2 1.1-3.2.9-1.7 2.2-3.3 3.4-4.8.3-.4 2.4-2.8 3.4-4.8 0 0 1.1-2.2 1.1-5.1 0-2.8-1.1-4.7-1.1-4.7l-3.3.8-2 5.2-.5.8-.1.1-.2.2-.2.3"/><path id="path833_1_" fill="#FBBC04" d="M5.9 45.4C7 47.8 9 50 10.4 51.9l7.4-8.8s-1 1.4-2.9 1.4c-2.2 0-3.8-1.7-3.8-3.8 0-1.5.8-2.4.8-2.4"/><path id="path831_1_" fill="#4285F4" d="M18 31c2.4.8 4.6 2.4 5.9 5l-6 7s.8-1 .8-2.4c0-2.2-1.9-3.8-3.8-3.8s-3 1.4-3 1.4"/><path id="path829_1_" fill="#1A73E8" d="M7.3 34.1c1.5-1.8 4-3.6 7.7-3.6 1.7 0 3.1.5 3.1.5l-6 7.1"/><path id="path827" fill="#EA4335" d="M5.9 45.4s-.9-2-.9-4.8c0-2.6 1-5 2.3-6.5L12 38l-6.1 7.4z"/></g><path id="airbnb-logo-small" fill="#FF5A5F" d="M24.7 19.1c-.2-.3-.3-.6-.5-1-.2-.5-.5-1-.6-1.3l-.1-.1c-1.9-4-3.9-8.2-5.9-12.2l-.1-.2c-.2-.5-.5-.8-.6-1.3-.3-.5-.5-1-1-1.4-.8-1-2.1-1.6-3.4-1.6S10 .6 9.1 1.6c-.5.5-.7 1-1 1.4-.2.5-.5.9-.6 1.4l-.1.1c-2.1 4-4.1 8.2-5.9 12.2v.1c-.2.5-.5.9-.6 1.3-.2.3-.3.6-.5 1-.4 1-.5 2-.3 2.9.3 2.1 1.6 3.7 3.5 4.5.6.4 1.3.5 2.1.5h.7c.9-.1 1.8-.5 2.7-.9 1.1-.6 2.2-1.5 3.3-2.8 1.2 1.3 2.2 2.2 3.3 2.8.9.5 1.8.8 2.7.9h.8c.7 0 1.5-.2 2.2-.5 1.9-.7 3.2-2.5 3.5-4.5.2-1 .1-1.9-.2-2.9zm-12.2 1.5c-1.4-1.8-2.4-3.6-2.8-5-.2-.6-.2-1.2-.1-1.6.1-.5.2-.8.5-1.1.5-.7 1.3-1.2 2.4-1.2s1.9.5 2.4 1.2c.2.3.4.7.5 1.1.1.5.1 1.1-.1 1.6s-.3 1.1-.6 1.7c-.6.9-1.3 2.1-2.2 3.3zm10.9 1.2c-.1.2-.2.5-.3.7-.2.5-.4.7-.6 1.1-.2.2-.4.5-.5.5-.1.1-.3.2-.5.3-.2.1-.3.2-.5.3-.1.1-.2.1-.3.1-.3.1-.5.2-.7.2-.2.1-.4.1-.5.1h-.3c-.2 0-.4 0-.5-.1-.6-.1-1.2-.3-1.8-.5-.1-.1-.2-.1-.3-.2-.6-.3-1.3-.7-1.9-1.3-.2-.2-.5-.4-.6-.5l-.6-.6c.1-.2.2-.3.3-.5.2-.3.5-.5.6-.8.1-.2.2-.3.3-.5.2-.3.4-.5.5-.7.7-1.3 1.3-2.5 1.6-3.6.2-.8.2-1.6.2-2.2-.1-.6-.4-1.3-.7-1.8-.8-1.3-2.2-2-3.9-2s-3 .7-3.9 2c-.2.6-.4 1.2-.5 1.9-.1.7-.1 1.4.2 2.2.5 1.8 1.5 3.9 3.2 6-.3.3-.5.6-.8.9l-.7.7c-.5.5-1 .7-1.4 1.1-.7.5-1.3.6-2.1.7-.7.1-1.4-.1-2.1-.3-1.3-.5-2.2-1.8-2.4-3.1-.1-.6-.1-1.3.3-2.1.1-.3.2-.5.4-.9.2-.5.5-.9.6-1.3l.1-.1c1.4-3 2.9-6 4.4-9.1.5-1 1-2.1 1.5-3l.1-.2c.2-.5.5-.8.6-1.3.2-.5.5-.8.7-1.2.5-.6 1.3-1 2.2-1 .6 0 1.3.2 1.7.5.1.1.2.2.3.2l.2.2c.3.4.5.7.7 1.2s.5.8.6 1.3l.1.2c.5 1 1 2.1 1.5 3 .5 1 1 2.1 1.5 3 1 2.1 2 4 2.9 6v.1c.2.5.5.9.6 1.3.1.2.1.3.1.4.1.2.1.4.2.5s.1.2.1.2c.1.2.1.4.2.5.1.2.1.4.1.5-.2.6-.1.7-.2 1z"/><g transform="translate(-15.982 -408.819)" id="lipari-logo"><g id="Logo-White"><path d="M368.55 349.487c.276 0 .499.205.499.457 0 .253-.223.458-.499.458h-48.279c-.276 0-.5-.205-.5-.458 0-.252.224-.457.5-.457h48.279z" fill="#fff" transform="matrix(2.84738 0 0 3.10615 -787.416 -501.37)"/><path d="M367.809 349.487c.208 0 .377.205.377.457 0 .253-.169.458-.377.458h-47.538c-.208 0-.376-.205-.376-.458 0-.252.168-.457.376-.457h47.538z" fill="#fff" transform="matrix(3.78072 0 0 3.10615 -1128.604 -494.504)"/><path d="M367.189 349.487c.15 0 .273.205.273.457 0 .253-.123.458-.273.458h-46.918c-.151 0-.273-.205-.273-.458 0-.252.122-.457.273-.457h46.918z" fill="#fff" transform="matrix(5.21287 0 0 3.10615 -1652.12 -487.15)"/><path d="M368.55 350.402c.268 0 .486-.205.486-.458 0-.252-.218-.457-.486-.457h-48.279c-.268 0-.486.205-.486.457 0 .253.218.458.486.458h48.279z" fill="#fff" transform="matrix(2.92856 0 0 -3.10726 -847.499 1790.628)"/><path d="M367.809 350.402c.202 0 .366-.205.366-.458 0-.252-.164-.457-.366-.457h-47.538c-.202 0-.366.205-.366.457 0 .253.164.458.366.458h47.538z" fill="#fff" transform="matrix(3.88851 0 0 -3.10726 -1198.411 1783.76)"/><path d="M320.271 350.402c-.268 0-.486-.205-.486-.458 0-.252.218-.457.486-.457h48.279c.268 0 .486.205.486.457 0 .253-.218.458-.486.458h-48.279z" fill="#fff" transform="matrix(-2.92856 0 0 -3.10726 1445.436 1790.628)"/><path d="M320.271 350.402c-.202 0-.366-.205-.366-.458 0-.252.164-.457.366-.457h47.538c.202 0 .366.205.366.457 0 .253-.164.458-.366.458h-47.538z" fill="#fff" transform="matrix(-3.88851 0 0 -3.10726 1796.348 1783.76)"/><g fill="#fff"><path d="M320.271 349.487c-.276 0-.5.205-.5.457 0 .253.224.458.5.458h48.279c.276 0 .499-.205.499-.458 0-.252-.223-.457-.499-.457h-48.279z" transform="matrix(-2.84738 0 0 3.10615 1385.314 -501.37)"/><path d="M320.271 349.487c-.208 0-.376.205-.376.457 0 .253.168.458.376.458h47.538c.208 0 .377-.205.377-.458 0-.252-.169-.457-.377-.457h-47.538z" transform="matrix(-3.78072 0 0 3.10615 1726.501 -494.504)"/><path d="M320.271 349.487c-.151 0-.273.205-.273.457 0 .253.122.458.273.458h46.918c.15 0 .273-.205.273-.458 0-.252-.123-.457-.273-.457h-46.918z" transform="matrix(-5.21287 0 0 3.10615 2250.018 -487.15)"/></g><text x="347.757" y="340.001" font-family="'AdobeNaskh-Medium','Adobe Naskh'" font-weight="500" font-size="12" fill="#fff" transform="translate(-722.131 -366.423) scale(2.84391)">CA<tspan x="359.622" y="340.001">S</tspan>A</text><text x="332.179" y="373.129" font-family="'AdobeFangsongStd-Regular','Adobe Fangsong Std',serif" font-size="12" fill="#fff" transform="matrix(8.46143 0 0 7.37793 -2665.208 -2072.98)">LIPARI</text><g fill="#fff"><path d="M366.885 390.261l.506 1.557h1.637l-1.325.963.507 1.558-1.325-.963-1.325.963.506-1.558-1.325-.963h1.637l.507-1.557z" transform="translate(-744.44 -415.845) scale(2.84391)"/><path d="M366.885 390.261l.506 1.557h1.637l-1.325.963.507 1.558-1.325-.963-1.325.963.506-1.558-1.325-.963h1.637l.507-1.557z" transform="translate(-767.19 -415.845) scale(2.84391)"/><path d="M366.885 390.261l.506 1.557h1.637l-1.325.963.507 1.558-1.325-.963-1.325.963.506-1.558-1.325-.963h1.637l.507-1.557z" transform="translate(-789.942 -415.845) scale(2.84391)"/><path d="M366.885 390.261l.506 1.557h1.637l-1.325.963.507 1.558-1.325-.963-1.325.963.506-1.558-1.325-.963h1.637l.507-1.557z" transform="translate(-721.688 -415.845) scale(2.84391)"/><path d="M366.885 390.261l.506 1.557h1.637l-1.325.963.507 1.558-1.325-.963-1.325.963.506-1.558-1.325-.963h1.637l.507-1.557z" transform="translate(-698.937 -415.845) scale(2.84391)"/></g><path d="M385.324 329.657l-3.993 7.501-.03.005 4.023-7.506zm-1.763-2.91l-24.785 6.692-.082-.042a38.026 38.026 0 01-7.44-4.992 38.355 38.355 0 01-7.426-8.623l39.733 6.965zm1.751 2.788zm-.008-.097z" transform="translate(-779.38 -405.129) scale(2.84391)"/><path d="M383.691 327.23a.5.5 0 00-.044-.975l-39.733-6.966a.501.501 0 00-.509.76 38.876 38.876 0 007.523 8.735 38.52 38.52 0 007.538 5.058l.083.043a.503.503 0 00.357.037l24.785-6.692zm-38.816-6.757a37.778 37.778 0 006.705 7.552 37.477 37.477 0 007.252 4.881l22.426-6.055-36.383-6.378z" fill="#fff" transform="translate(-779.38 -405.129) scale(2.84391)"/><path d="M351.69 303.237l33.102 23.925-25.253-4.626a37.958 37.958 0 01-7.849-19.299z" transform="translate(-779.38 -405.129) scale(2.84391)"/><path d="M351.983 302.831a.5.5 0 00-.79.46 38.46 38.46 0 007.952 19.554.504.504 0 00.304.183l25.253 4.625a.5.5 0 00.383-.897l-33.102-23.925zm.346 1.484a37.442 37.442 0 007.487 17.764l22.891 4.192-30.378-21.956z" fill="#fff" transform="translate(-779.38 -405.129) scale(2.84391)"/><path d="M384.542 326.981l-19.436-14.048-.015-.097a38.12 38.12 0 01-.308-8.432 38.391 38.391 0 011.908-9.376l17.851 31.953z" transform="translate(-779.38 -405.129) scale(2.84391)"/><path d="M384.249 327.386a.501.501 0 00.73-.649l-17.851-31.953a.5.5 0 00-.911.085 38.937 38.937 0 00-1.933 9.498 38.629 38.629 0 00.313 8.542l.015.099c.02.133.092.252.201.33l19.436 14.048zm-17.433-31.109a37.798 37.798 0 00-1.535 8.165 37.632 37.632 0 00.289 8.209l17.433 12.601-16.187-28.975z" fill="#fff" transform="translate(-779.38 -405.129) scale(2.84391)"/><path d="M374.414 308.852a38.013 38.013 0 0110.337-15.463l.021 33.764-10.358-18.301z" transform="translate(-779.38 -405.129) scale(2.84391)"/><path d="M373.943 308.684a.497.497 0 00.036.414l10.357 18.301a.5.5 0 00.936-.246l-.021-33.764a.5.5 0 00-.835-.37 38.505 38.505 0 00-10.473 15.665zm10.309-14.146a37.496 37.496 0 00-9.29 14.267l9.308 16.447-.018-30.714z" fill="#fff" transform="translate(-779.38 -405.129) scale(2.84391)"/><path d="M385.467 326.233a11.633 11.633 0 00-.143 3.424l-5.578 10.406a38.346 38.346 0 01-14.065 3.659c-4.481.28-9.005-.25-13.301-1.553a38.378 38.378 0 01-9.563-4.421l42.65-11.515z" transform="translate(-780.752 -404.843) scale(2.84391)"/><path d="M385.958 326.329a.502.502 0 00-.621-.579l-42.65 11.515a.5.5 0 00-.14.904 38.874 38.874 0 009.687 4.478 38.31 38.31 0 0013.478 1.574 38.841 38.841 0 0014.249-3.706.507.507 0 00.226-.216l5.577-10.406a.498.498 0 00.057-.286 11.159 11.159 0 01.137-3.278zm-1.107.588l-40.79 11.013a37.715 37.715 0 008.464 3.76 37.282 37.282 0 0013.125 1.533 37.842 37.842 0 0013.733-3.541l5.429-10.128c-.079-.88-.07-1.763.039-2.637z" fill="#fff" transform="translate(-780.752 -404.843) scale(2.84391)"/><path d="M376.754 346.758l8.57-16.101c-.289-2.79.378-5.155 1.686-7.174.934-1.443 1.659-2.525 3.598-3.755 0 0 1.774-1.401 5.813-1.165 2.798.163 6.466 1.883 6.466 1.883l15.952 2.68c-11.847-1.003-16.269-.632-17.857-.101-1.192 2.128-2.568 3.977-4.114 5.566-.995 1.024-1.292 2.547-1.262 3.974.103 3.428-.292 5.795-2.956 11.345a21.951 21.951 0 01-1.642 2.848h-14.254z" transform="translate(-780.752 -407.687) scale(2.84391)"/><path d="M390.321 319.319c.222-.167 2.119-1.489 6.129-1.255 2.656.155 6.076 1.669 6.585 1.9l15.887 2.668a.5.5 0 01-.125.992c-11.296-.956-15.765-.672-17.478-.181-1.191 2.096-2.56 3.921-4.092 5.497-.904.929-1.148 2.319-1.121 3.61.105 3.497-.288 5.914-3.005 11.576a22.36 22.36 0 01-1.68 2.913.5.5 0 01-.413.219h-14.254a.5.5 0 01-.442-.734l8.5-15.969c-.262-2.849.436-5.271 1.778-7.343.97-1.498 1.727-2.618 3.731-3.893zm19.044 2.722l-6.561-1.102a.483.483 0 01-.129-.04s-3.564-1.678-6.283-1.837c-3.798-.222-5.474 1.059-5.474 1.059l-.042.03c-1.859 1.179-2.55 2.22-3.447 3.604-1.248 1.928-1.883 4.186-1.608 6.851a.5.5 0 01-.056.286l-8.179 15.366h13.155a21.62 21.62 0 001.459-2.564c2.609-5.438 3.008-7.755 2.906-11.118-.033-1.56.317-3.215 1.404-4.333 1.516-1.56 2.866-3.374 4.036-5.463a.499.499 0 01.278-.23c1.08-.36 3.456-.66 8.541-.509z" fill="#fff" transform="translate(-780.752 -407.687) scale(2.84391)"/><g fill="#fff"><path d="M433.166 341.744c.324.356.657.383 1 0 0-28.831-23.407-52.237-52.238-52.237s-52.238 23.406-52.238 52.237a.5.5 0 001 0c0-28.279 22.959-51.237 51.238-51.237s51.238 22.958 51.238 51.237z" transform="translate(-786.44 -407.687) scale(2.84391)"/><path d="M325.892 339.561a53.016 53.016 0 01-.215-4.771c0-28.813 23.392-52.206 52.205-52.206s52.206 23.393 52.206 52.206c0 1.608-.073 3.199-.216 4.771a.486.486 0 00.97.088c.145-1.601.219-3.221.219-4.859 0-29.35-23.829-53.179-53.179-53.179s-53.178 23.829-53.178 53.179c0 1.638.074 3.258.219 4.859a.487.487 0 00.969-.088z" transform="translate(-804.401 -414.016) scale(2.92189)"/></g></g></g></svg>