<svg viewBox="0 0 800 600" xmlns="http://www.w3.org/2000/svg" fill-rule="evenodd" clip-rule="evenodd" stroke-linejoin="round" stroke-miterlimit="2"><path d="M29.5 31.7v26.9l4.3-.4V43.6l4.9 13.8 4.6-.5V31.7h-4.2v14.8l-5.3-14.8h-4.3zm17.9 0v24.8l11.7-.8v-4.3l-7.3.4v-6.1h5.6v-4.3h-5.8v-5.5h7.5v-4.2H47.4zm14.4 0v4.2h4.3v19.3h4.4V35.9h4.3v-4.2h-13zm15.8 0v23.5h4.2v-9.7h5.5V41h-5.7v-5.1h7.6v-4.2H77.6zm14.4 0v23.5l11.3.7v-4.3l-7-.4V31.7H92zm14.9 0v24.4l4.2.4V31.7h-4.2zm7.6 0l4.9 12.3-5.3 12.7 4.7.5 3-6.8 2.9 7.6 4.9.6-5.5-14.2 5.5-12.7h-4.7l-2.9 6.5-2.8-6.5h-4.7z" id="netflix-logo-big" fill="#fff" fill-rule="nonzero"/><path d="M101.7 53.4c-1.5.3-5.3.5-5.3.5l-.5 1.5s1.9-.2 3.3 0c0 0 .5-.1.5.5V57s0 .3-.5.4c-.5.1-4.1.2-4.1.2l-.6 2s-.2.5.3.3c.5-.1 4.2-.8 4.7-.7.5.1 1.1.8.9 1.5-.2.8-4 3.2-6.2 3 0 0-1.2.1-2.2-1.5-.9-1.5.4-4.5.4-4.5s-.6-1.4-.2-1.8c0 0 .3-.2 1-.3l.9-1.9s-1 .1-1.7-.7c-.6-.7-.6-1.1-.2-1.3.5-.2 4.8-1 7.8-.9 0 0 1-.1 1.9 1.7.1 0 .5.7-.2.9zm-11.3 7.3c-.4.9-1.4 1.9-2.7 1.3-1.3-.6-3.2-4.7-3.2-4.7s-.8-1.5-.9-1.5c0 0-.2-.3-.3 1.4-.1 1.7 0 4.9-.6 5.4s-1.4.3-1.8-.3c-.4-.6-.5-2-.3-4.4.2-2.4.8-5 1.5-5.9.7-.8 1.3-.2 1.5 0 0 0 1 .9 2.6 3.5l.3.5s1.5 2.4 1.6 2.4c0 0 .1.1.2 0 .2 0 .1-.8.1-.8s-.3-2.7-1.6-7.2c0 0-.2-.6-.1-1.1.1-.5.7-.3.7-.3s2.1 1 3 4.4c1 3.4.4 6.4 0 7.3zm-10.1-8.6c-.2.3-.3.8-1.1 1 0 0-8.3.6-8.7 1.1 0 0-.3.3.2.4.5.1 2.3.3 3.2.4 1 0 4.2 0 5.4 1.5 0 0 .7.7.7 2.3 0 1.6-.3 2.2-.9 2.8-.7.5-6.3 3.1-9.9-.8 0 0-1.7-1.9.6-3.3 0 0 1.6-1 5.7.2 0 0 1.3.5 1.2.9-.1.5-1 1-2.4 1s-2.3-.7-2.1-.6c.2.1-1.5-.8-2-.2-.5.5-.4.9.1 1.2 1.3.7 6.1.5 7.6-1.1 0 0 .6-.7-.3-1.2-.9-.5-3.4-.8-4.4-.9-.9-.1-4.4 0-4.9-.9 0 0-.5-.6.1-2.4.6-1.9 4.6-2.6 6.4-2.7 0 0 4.8-.2 5.7.8-.2-.1-.1.2-.2.5zM66.6 63c-.6.4-1.8.2-2.2-.2-.4-.4-.5-2.2-.4-4.9.1-2.7.1-6.1.7-6.7.6-.5 1-.1 1.3.3.3.4.6.8.6 1.6.1.9.3 5.4.3 5.4s.2 4.1-.3 4.5zm4.2-22.2c-.5-1.3-2.9-1.1-2.9-1.1-5 .4-6.6 3.9-6.8 4.8-.2.8-.1 2 .9 2.8-.3.8-.1 1.1 0 1.3.1.3.5 1 1 1 .3-.1.6-.3 1-1 1 .4 2.2.6 3.9.1 2.7-.9 5.3-3.5 5.3-5.6 0-2.3-2.4-2.3-2.4-2.3zm-7.9 4.6c-.2-.3-.2-.8.3-1.6.7-1.1 1.7-1.6 2.9-1.7-1.6 1.1-2.6 2.5-3.2 3.3zm8.3-1.5c-1.4 2.8-4.5 2.9-6.3 2.6 1.1-1.7 3.6-3.8 5.1-4 1.8-.3 1.2 1.4 1.2 1.4zm40.9 8c-2.5-1.7-6.5 3.8-8.3 6.5-.3-1.4.7-3.1.7-3.1s1.5-2.6 1.7-3.1c.2-.5.3-1.6.1-1.7-.2-.1-.6.2-.6.2-3.4 3-3.8 6.4-3.8 6.4-.3 1.8.1 3.1.6 4-1.9 4-2.8 7.5-2.5 9.5.2 1.6 1.4 2.7 2 2.9.7.3.8-.5.8-.5.6-4.3 1.5-7.1 2.7-9.9 3.5.8 6.1-2.6 7.1-4.2.5-1 .8-2.3.8-3.5-.1-1.6-.4-2.9-1.3-3.5zm-2.3 6.8c-.4.4-1.7 1.1-3.1 1.3 1.3-2.6 3-4.4 3.9-5.4 1-1.2 1.2-.1 1.2-.1.2 2-1.3 3.6-2 4.2zM50.4 41.5s-11.5-5.9-20.9-2.6c0 0-.6 0-1.1.8-.5.8-1 1.3-.7 1.9.3.6 1.7.9 3 .4 0 0 .6-.4-.2-.6-.7-.2-1.1-.3-1.1-.3s-.4-.1 0-.3c.4-.2 4.7-1.6 12.3.4 7.6 2 18 8.1 17.7 14.5-.3 6.4-10.4 6.7-10.4 6.7s-2 .1-4.8-.4c-.1-2.1-.2-5.7-.1-7.9 3.9 0 7.9.7 8.2 1.6 0 0 .2.4-.7.9-.8.4-1.4.6-.8 1 0 0 1 .5 1.6.4.6-.1 2.2-.8 2.3-2.5.2-1.8-1.9-3.3-4.9-3.9-2.3-.4-3.6-.6-5.7-.5 0-1.9-.3-4.3-.7-4.9-.5-.7-1.1-1.7-1.6-.6-.4.9-.7 3-.8 5.8-3.2.5-6.8 1.9-7.9 3.2-1.2 1.5 0 2.7.1 2.8.1.2 2.4 3.5 7.5 5.9.1.9.3 1.9.6 2.5.8 1.2 2.2.3 2.4.2.1-.2.2-.5.3-1.4 2.3.6 6.4 1.2 10.8-.1 6.6-2 7.6-6.1 7.8-8.6.4-2.6-1.4-9-12.2-14.4zm-9.6 19.6c-2.3-.8-4.8-2.2-6.8-4.3 0 0-.7-.8.3-1.3 1-.4 3.1-1 6.8-1.3 0 1.9 0 3.2-.3 6.9zm91.7-6.4V56c0 .3-.2.5-.5.5h-6.3v.9c0 2-.1 3.6-.3 5.4 0 .3-.3.5-.5.5h-1.4c-.1 0-.3-.1-.4-.2-.1-.1-.1-.2-.1-.4.2-1.8.3-3.4.3-5.3v-.9H117c-.3 0-.5-.2-.5-.5v-1.3c0-.3.2-.5.5-.5h6.2c-.1-2.2-.4-4.3-.8-6.4 0-.1 0-.3.1-.4.1-.1.2-.2.3-.2h1.5c.2 0 .4.2.5.4.4 2.2.7 4.3.8 6.5h6.4c.2.1.5.3.5.6z" id="disney-logo-big" fill="#fff" fill-rule="nonzero"/><g id="youtube-logo-big"><path d="M160 10c0-5.519-4.481-10-10-10H10C4.481 0 0 4.481 0 10v70c0 5.519 4.481 10 10 10h140c5.519 0 10-4.481 10-10V10z" fill="#fff"/><path d="M51.8 33.6c-.6-2.1-2.2-3.7-4.2-4.2-3.7-1-18.6-1-18.6-1s-15 0-18.6 1c-2.1.6-3.7 2.2-4.2 4.2C5 37.2 5 45 5 45s0 7.8 1 11.4c.6 2.1 2.2 3.7 4.2 4.2 3.7 1 18.6 1 18.6 1s15 0 18.6-1c2.1-.6 3.7-2.2 4.2-4.2 1-3.7 1-11.4 1-11.4s.1-7.8-.8-11.4z" fill="#eb3323" fill-rule="nonzero"/><path d="M24.1 52.1L36.5 45l-12.4-7.1v14.2z" fill="#fff" fill-rule="nonzero"/><path d="M79.6 55.4c.3-.7.4-1.8.4-3.4v-6.6c0-1.5-.1-2.6-.4-3.3-.3-.7-.7-.9-1.4-.9s-1.1.4-1.3 1c-.3.7-.4 1.8-.4 3.3v6.6c0 1.6.1 2.6.4 3.4.3.7.7 1 1.4 1 .7-.1 1-.4 1.3-1.1zm-5.2 3.3c-.9-.7-1.6-1.6-2.1-3-.4-1.3-.6-3.1-.6-5.3v-3c0-2.2.2-4 .7-5.4.5-1.4 1.2-2.3 2.2-3 .9-.7 2.2-.9 3.8-.9 1.6 0 2.8.3 3.7.9.9.7 1.6 1.6 2.1 3 .5 1.3.7 3.2.7 5.4v3c0 2.3-.2 4-.7 5.3-.4 1.3-1.1 2.3-2.1 3-.9.7-2.2.9-3.8.9-1.7 0-3-.3-3.9-.9zm73.1-17.1c-.3.3-.4.8-.5 1.4-.1.7-.1 1.7-.1 3.1v1.5h3.5v-1.5c0-1.3 0-2.3-.1-3.1-.1-.7-.3-1.2-.5-1.5-.3-.3-.6-.5-1.1-.5-.5.2-.9.3-1.2.6zm-.5 8.8v1c0 1.3 0 2.3.1 3 .1.7.3 1.1.5 1.5.3.3.7.5 1.1.5.7 0 1.2-.3 1.5-.8.3-.6.4-1.5.5-2.7l4 .3v.8c0 2-.6 3.4-1.6 4.3-1 .9-2.5 1.4-4.5 1.4-2.3 0-3.9-.8-4.9-2.2-.9-1.5-1.4-3.8-1.4-6.8V47c0-3.2.5-5.4 1.5-6.8.9-1.4 2.6-2.2 5-2.2 1.6 0 2.9.3 3.7.8.8.5 1.5 1.5 1.9 2.7.4 1.2.6 3 .6 5.2v3.6l-8 .1zm-84.1-.3l-5.3-19.3h4.7l1.9 8.8c.5 2.2.8 4 1 5.5h.1c.2-1.1.5-2.9 1-5.5l2-8.8H73l-5.4 19.3v9.3h-4.7v-9.3zM100 38.3v20.9h-3.7l-.3-2.5h-.2c-1 2-2.5 2.9-4.5 2.9-1.4 0-2.4-.5-3.1-1.4-.7-.9-1-2.3-1-4.2V38.3h4.7v15.4c0 .9.1 1.6.3 2 .2.4.6.6 1 .6s.8-.1 1.2-.4c.4-.3.7-.6.8-.9V38.3h4.8zm24.2 0v20.9h-3.7l-.4-2.5h-.1c-1 2-2.5 2.9-4.5 2.9-1.4 0-2.4-.5-3.1-1.4-.7-.9-1-2.3-1-4.2V38.3h4.7v15.4c0 .9.1 1.6.3 2 .2.4.6.6 1 .6s.8-.1 1.2-.4c.4-.3.7-.6.8-.9V38.3h4.8z" fill="#232323" fill-rule="nonzero"/><path d="M112.8 34.5h-4.6v24.7h-4.7V34.5h-4.7v-3.8h14v3.8zm22.7 15.7c0 1.5-.1 2.7-.2 3.6-.1.8-.4 1.5-.7 1.9-.3.4-.7.6-1.2.6-.4 0-.7-.1-1.1-.3-.3-.2-.6-.5-.8-.8v-12c.2-.6.5-1 .8-1.4.4-.4.8-.6 1.2-.6.5 0 .8.2 1.1.6.3.4.5 1 .6 1.9.1.8.2 2.2.2 3.8l.1 2.7zm4.4-8.5c-.3-1.3-.7-2.2-1.4-2.9-.7-.6-1.5-.8-2.6-.8-.8 0-1.7.3-2.4.8s-1.3 1.1-1.8 2V29.6H127v29.7h3.9l.5-2h.1c.4.8.9 1.2 1.7 1.7.7.4 1.5.7 2.4.7 1.6 0 2.8-.8 3.6-2.2.7-1.5 1.1-3.8 1.1-6.8v-3.3c-.1-2.5-.2-4.4-.4-5.7z" fill="#232323" fill-rule="nonzero"/></g><g id="google-logo-big"><path d="M160 10c0-5.519-4.481-10-10-10H10C4.481 0 0 4.481 0 10v70c0 5.519 4.481 10 10 10h140c5.519 0 10-4.481 10-10V10z" fill="#fff"/><path d="M41.8 37.8H24.4V43h12.4c-.7 7.3-6.7 10.4-12.4 10.4-7.3 0-13.7-5.7-13.7-13.8 0-7.9 6.1-13.9 13.7-13.9 5.9 0 9.4 3.7 9.4 3.7l3.7-3.7s-4.7-5.2-13.2-5.2c-11-.1-19.3 9-19.3 19 0 9.7 7.9 19.1 19.5 19.1 10.2 0 17.7-7 17.7-17.3 0-2.3-.4-3.5-.4-3.5z" fill="#4285f4" fill-rule="nonzero"/><path d="M56.2 34c-7.2 0-12.4 5.6-12.4 12.2 0 6.7 5 12.4 12.4 12.4 6.8 0 12.2-5.2 12.2-12.2.2-8.2-6.3-12.4-12.2-12.4zm.1 4.8c3.6 0 6.8 2.8 6.8 7.5 0 4.5-3.4 7.4-6.9 7.4-3.9 0-7-3.1-7-7.5.1-4.2 3.1-7.4 7.1-7.4z" fill="#ea4335" fill-rule="nonzero"/><path d="M83 34c-7.2 0-12.4 5.6-12.4 12.2 0 6.7 5 12.4 12.4 12.4 6.7 0 12.2-5.2 12.2-12.2C95.4 38.2 88.9 34 83 34zm.1 4.8c3.6 0 6.8 2.8 6.8 7.5 0 4.5-3.4 7.4-6.9 7.4-3.9 0-7-3.1-7-7.5.1-4.2 3.2-7.4 7.1-7.4z" fill="#fbbc05" fill-rule="nonzero"/><path d="M109.3 34c-6.6 0-11.8 5.8-11.8 12.3 0 7.4 6 12.3 11.6 12.3 3.5 0 5.3-1.4 6.8-3V58c0 4.2-2.5 6.8-6.5 6.8-3.8 0-5.6-2.8-6.3-4.4l-4.7 2c1.7 3.6 5.1 7.2 11.1 7.2 6.6 0 11.5-4.1 11.5-12.8v-22h-5.2v2.1c-1.4-1.7-3.6-2.9-6.5-2.9zm.5 4.8c3.2 0 6.6 2.7 6.6 7.5s-3.3 7.4-6.7 7.4c-3.5 0-6.7-2.8-6.7-7.4 0-4.7 3.3-7.5 6.8-7.5z" fill="#4285f4" fill-rule="nonzero"/><path d="M143.9 34c-6.2 0-11.4 5-11.4 12.3 0 7.7 5.8 12.3 12 12.3 5.2 0 8.3-2.8 10.3-5.3l-4.2-2.8c-1.1 1.7-2.9 3.4-6 3.4-3.5 0-5.1-1.9-6-3.8l16.4-6.8-.8-2c-1.6-4-5.4-7.3-10.3-7.3zm.2 4.7c2.2 0 3.8 1.2 4.5 2.6l-10.9 4.6c-.4-3.5 3-7.2 6.4-7.2z" fill="#ea4335" fill-rule="nonzero"/><path fill="#34a853" d="M124.6 21.7h5.4v36.1h-5.4z"/></g><g id="lipari-logo"><path d="M368.55 349.487c.276 0 .499.205.499.457 0 .253-.223.458-.499.458h-48.279c-.276 0-.5-.205-.5-.458 0-.252.224-.457.5-.457h48.279z" fill="#fff" transform="matrix(2.84737 0 0 3.10615 -803.399 -910.19)"/><path d="M367.809 349.487c.208 0 .377.205.377.457 0 .253-.169.458-.377.458h-47.538c-.208 0-.376-.205-.376-.458 0-.252.168-.457.376-.457h47.538z" fill="#fff" transform="matrix(3.7807 0 0 3.10615 -1144.585 -903.324)"/><path d="M367.189 349.487c.15 0 .273.205.273.457 0 .253-.123.458-.273.458h-46.918c-.151 0-.273-.205-.273-.458 0-.252.122-.457.273-.457h46.918z" fill="#fff" transform="matrix(5.21285 0 0 3.10615 -1668.1 -895.97)"/><path d="M368.55 350.402c.268 0 .486-.205.486-.458 0-.252-.218-.457-.486-.457h-48.279c-.268 0-.486.205-.486.457 0 .253.218.458.486.458h48.279z" fill="#fff" transform="matrix(2.92855 0 0 -3.10726 -863.48 1381.806)"/><path d="M367.809 350.402c.202 0 .366-.205.366-.458 0-.252-.164-.457-.366-.457h-47.538c-.202 0-.366.205-.366.457 0 .253.164.458.366.458h47.538z" fill="#fff" transform="matrix(3.8885 0 0 -3.10726 -1214.392 1374.938)"/><path d="M320.271 350.402c-.268 0-.486-.205-.486-.458 0-.252.218-.457.486-.457h48.279c.268 0 .486.205.486.457 0 .253-.218.458-.486.458h-48.279z" fill="#fff" transform="matrix(-2.92855 0 0 -3.10726 1429.456 1381.806)"/><path d="M320.271 350.402c-.202 0-.366-.205-.366-.458 0-.252.164-.457.366-.457h47.538c.202 0 .366.205.366.457 0 .253-.164.458-.366.458h-47.538z" fill="#fff" transform="matrix(-3.8885 0 0 -3.10726 1780.367 1374.938)"/><path d="M320.271 349.487c-.276 0-.5.205-.5.457 0 .253.224.458.5.458h48.279c.276 0 .499-.205.499-.458 0-.252-.223-.457-.499-.457h-48.279z" fill="#fff" transform="matrix(-2.84737 0 0 3.10615 1369.33 -910.19)"/><path d="M320.271 349.487c-.208 0-.376.205-.376.457 0 .253.168.458.376.458h47.538c.208 0 .377-.205.377-.458 0-.252-.169-.457-.377-.457h-47.538z" fill="#fff" transform="matrix(-3.7807 0 0 3.10615 1710.516 -903.324)"/><path d="M320.271 349.487c-.151 0-.273.205-.273.457 0 .253.122.458.273.458h46.918c.15 0 .273-.205.273-.458 0-.252-.123-.457-.273-.457h-46.918z" fill="#fff" transform="matrix(-5.21285 0 0 3.10615 2234.03 -895.97)"/><path d="M.425-.335c.001.003.023.002.026-.002 0-.037.007-.095.012-.12C.428-.459.374-.47.313-.47a.327.327 0 00-.153.033.224.224 0 00-.121.205c0 .158.097.246.264.246a.384.384 0 00.114-.018.26.26 0 00.058-.104C.473-.114.46-.121.455-.122a.298.298 0 01-.056.075.119.119 0 01-.078.024c-.128 0-.184-.105-.184-.216 0-.132.058-.203.154-.203.033 0 .064.004.09.018.029.015.037.037.044.089z" fill="#fff" fill-rule="nonzero" transform="translate(250.876 191.688) scale(34.12692)"/><path d="M-.016-.021c-.003.003-.002.021 0 .023L.066 0l.095.002C.165 0 .166-.019.163-.021a.349.349 0 01-.037-.007C.106-.033.105-.042.105-.054c0-.015.02-.069.035-.108.001-.003.005-.007.007-.007h.126l.007.004c.012.031.033.089.04.118.002.005.002.013-.008.017-.008.004-.023.006-.038.009-.003.002-.003.02 0 .023L.379 0l.1.002C.482 0 .484-.019.481-.021.427-.029.422-.034.399-.09.373-.154.301-.361.28-.417.276-.431.271-.446.269-.458l-.031.001-.032-.001a6.33 6.33 0 01-.137.372c-.022.052-.032.058-.085.065zm.229-.344l.052.151c0 .003-.002.006-.003.006H.16C.157-.209.157-.21.157-.214l.052-.151h.004z" fill="#fff" fill-rule="nonzero" transform="translate(268.155 191.688) scale(34.12692)"/><path d="M.054-.134C.05-.136.031-.131.029-.126a.506.506 0 00.023.115.241.241 0 00.111.025c.111 0 .173-.065.173-.14 0-.056-.028-.088-.076-.117C.232-.26.203-.275.172-.295.141-.316.123-.337.124-.374c0-.037.025-.07.071-.07.023 0 .043.004.059.016.018.011.026.033.032.079.003.002.021.002.023-.002.003-.041.008-.08.013-.107C.288-.461.257-.47.203-.47c-.084 0-.154.046-.154.13 0 .073.05.109.116.148.068.041.09.065.09.107 0 .048-.035.069-.071.069a.119.119 0 01-.072-.02C.085-.055.069-.084.054-.134z" fill="#fff" fill-rule="nonzero" transform="translate(284.619 191.688) scale(34.12692)"/><path d="M-.016-.021c-.003.003-.002.021 0 .023L.066 0l.095.002C.165 0 .166-.019.163-.021a.349.349 0 01-.037-.007C.106-.033.105-.042.105-.054c0-.015.02-.069.035-.108.001-.003.005-.007.007-.007h.126l.007.004c.012.031.033.089.04.118.002.005.002.013-.008.017-.008.004-.023.006-.038.009-.003.002-.003.02 0 .023L.379 0l.1.002C.482 0 .484-.019.481-.021.427-.029.422-.034.399-.09.373-.154.301-.361.28-.417.276-.431.271-.446.269-.458l-.031.001-.032-.001a6.33 6.33 0 01-.137.372c-.022.052-.032.058-.085.065zm.229-.344l.052.151c0 .003-.002.006-.003.006H.16C.157-.209.157-.21.157-.214l.052-.151h.004z" fill="#fff" fill-rule="nonzero" transform="translate(297.265 191.688) scale(34.12692)"/><path d="M.499-.162C.47-.046.46-.039.402-.039h-.18c-.027 0-.034-.005-.034-.048v-.544c0-.073.005-.077.081-.077v-.03H.035v.03c.073 0 .08.004.08.077v.522c0 .073-.007.079-.08.079V0H.5l.036-.162H.499z" fill="#fff" fill-rule="nonzero" transform="matrix(101.53728 0 0 88.53516 129.523 271.12)"/><path d="M.032 0h.247v-.03C.198-.03.192-.036.192-.107v-.524c0-.073.006-.077.087-.077v-.03H.033v.03c.08 0 .086.004.086.077v.524c0 .071-.006.077-.087.077V0z" fill="#fff" fill-rule="nonzero" transform="matrix(101.53728 0 0 88.53516 186.587 271.12)"/><path d="M.035 0h.247v-.03C.193-.03.188-.035.188-.107v-.227h.086c.114 0 .174-.02.218-.055.043-.035.064-.086.064-.151a.188.188 0 00-.065-.149C.451-.721.394-.738.283-.738H.035v.03c.074 0 .08.004.08.077v.524c0 .071-.006.077-.08.077V0zm.153-.372V-.64c0-.051.003-.06.025-.06h.058c.072 0 .208.004.208.159 0 .142-.099.169-.205.169H.188z" fill="#fff" fill-rule="nonzero" transform="matrix(101.53728 0 0 88.53516 218.165 271.12)"/><path d="M.483-.097a.133.133 0 01.009.041c0 .02-.014.026-.056.026V0h.191v-.03C.59-.03.578-.04.558-.1L.326-.753H.29l-.209.667C.066-.039.055-.03.016-.03V0h.162v-.03c-.04 0-.055-.005-.055-.027 0-.011.004-.026.01-.048l.038-.133h.264l.048.141zm-.299-.18l.11-.361h.003l.125.361H.184z" fill="#fff" fill-rule="nonzero" transform="matrix(101.53728 0 0 88.53516 278.884 271.12)"/><path d="M.035-.738v.03c.074 0 .08.004.08.077v.523c0 .072-.006.078-.08.078V0h.234v-.03C.193-.03.188-.034.188-.107v-.237h.098L.485 0h.126v-.03C.562-.03.548-.038.509-.101L.36-.354C.464-.37.546-.439.546-.548c0-.065-.023-.111-.068-.143C.429-.727.375-.738.286-.738H.035zM.283-.7c.067 0 .109.014.138.038a.14.14 0 01.048.111c0 .118-.073.168-.206.168H.188v-.255C.188-.692.19-.7.214-.7h.069z" fill="#fff" transform="matrix(101.53728 0 0 88.53516 344.274 271.12)"/><path d="M.032 0h.247v-.03C.198-.03.192-.036.192-.107v-.524c0-.073.006-.077.087-.077v-.03H.033v.03c.08 0 .086.004.086.077v.524c0 .071-.006.077-.087.077V0z" fill="#fff" fill-rule="nonzero" transform="matrix(101.53728 0 0 88.53516 406.72 271.12)"/><g fill="#fff"><path d="M366.885 390.261l.506 1.557h1.637l-1.325.963.507 1.558-1.325-.963-1.325.963.506-1.558-1.325-.963h1.637l.507-1.557z" transform="translate(-760.421 -824.666) scale(2.84391)"/><path d="M366.885 390.261l.506 1.557h1.637l-1.325.963.507 1.558-1.325-.963-1.325.963.506-1.558-1.325-.963h1.637l.507-1.557z" transform="translate(-783.173 -824.666) scale(2.84391)"/><path d="M366.885 390.261l.506 1.557h1.637l-1.325.963.507 1.558-1.325-.963-1.325.963.506-1.558-1.325-.963h1.637l.507-1.557z" transform="translate(-805.924 -824.666) scale(2.84391)"/><path d="M366.885 390.261l.506 1.557h1.637l-1.325.963.507 1.558-1.325-.963-1.325.963.506-1.558-1.325-.963h1.637l.507-1.557z" transform="translate(-737.67 -824.666) scale(2.84391)"/><path d="M366.885 390.261l.506 1.557h1.637l-1.325.963.507 1.558-1.325-.963-1.325.963.506-1.558-1.325-.963h1.637l.507-1.557z" transform="translate(-714.919 -824.666) scale(2.84391)"/></g><path d="M385.324 329.657l-3.993 7.501-.03.005 4.023-7.506zm-1.763-2.91l-24.785 6.692-.082-.042a38.026 38.026 0 01-7.44-4.992 38.355 38.355 0 01-7.426-8.623l39.733 6.965z" transform="translate(-795.362 -813.949) scale(2.84391)"/><path d="M383.691 327.23a.5.5 0 00-.044-.975l-39.733-6.966a.501.501 0 00-.509.76 38.876 38.876 0 007.523 8.735 38.52 38.52 0 007.538 5.058l.083.043a.503.503 0 00.357.037l24.785-6.692zm-38.816-6.757a37.778 37.778 0 006.705 7.552 37.477 37.477 0 007.252 4.881l22.426-6.055-36.383-6.378z" fill="#fff" transform="translate(-795.362 -813.949) scale(2.84391)"/><path d="M351.69 303.237l33.102 23.925-25.253-4.626a37.958 37.958 0 01-7.849-19.299z" transform="translate(-795.362 -813.949) scale(2.84391)"/><path d="M351.983 302.831a.5.5 0 00-.79.46 38.46 38.46 0 007.952 19.554.504.504 0 00.304.183l25.253 4.625a.5.5 0 00.383-.897l-33.102-23.925zm.346 1.484a37.442 37.442 0 007.487 17.764l22.891 4.192-30.378-21.956z" fill="#fff" transform="translate(-795.362 -813.949) scale(2.84391)"/><path d="M384.542 326.981l-19.436-14.048-.015-.097a38.12 38.12 0 01-.308-8.432 38.391 38.391 0 011.908-9.376l17.851 31.953z" transform="translate(-795.362 -813.949) scale(2.84391)"/><path d="M384.249 327.386a.501.501 0 00.73-.649l-17.851-31.953a.5.5 0 00-.911.085 38.937 38.937 0 00-1.933 9.498 38.629 38.629 0 00.313 8.542l.015.099c.02.133.092.252.201.33l19.436 14.048zm-17.433-31.109a37.798 37.798 0 00-1.535 8.165 37.632 37.632 0 00.289 8.209l17.433 12.601-16.187-28.975z" fill="#fff" transform="translate(-795.362 -813.949) scale(2.84391)"/><path d="M374.414 308.852a38.013 38.013 0 0110.337-15.463l.021 33.764-10.358-18.301z" transform="translate(-795.362 -813.949) scale(2.84391)"/><path d="M373.943 308.684a.497.497 0 00.036.414l10.357 18.301a.5.5 0 00.936-.246l-.021-33.764a.5.5 0 00-.835-.37 38.505 38.505 0 00-10.473 15.665zm10.309-14.146a37.496 37.496 0 00-9.29 14.267l9.308 16.447-.018-30.714z" fill="#fff" transform="translate(-795.362 -813.949) scale(2.84391)"/><path d="M385.467 326.233a11.633 11.633 0 00-.143 3.424l-5.578 10.406a38.346 38.346 0 01-14.065 3.659c-4.481.28-9.005-.25-13.301-1.553a38.378 38.378 0 01-9.563-4.421l42.65-11.515z" transform="translate(-796.734 -813.664) scale(2.84391)"/><path d="M385.958 326.329a.502.502 0 00-.621-.579l-42.65 11.515a.5.5 0 00-.14.904 38.874 38.874 0 009.687 4.478 38.31 38.31 0 0013.478 1.574 38.841 38.841 0 0014.249-3.706.507.507 0 00.226-.216l5.577-10.406a.498.498 0 00.057-.286 11.159 11.159 0 01.137-3.278zm-1.107.588l-40.79 11.013a37.715 37.715 0 008.464 3.76 37.282 37.282 0 0013.125 1.533 37.842 37.842 0 0013.733-3.541l5.429-10.128c-.079-.88-.07-1.763.039-2.637z" fill="#fff" transform="translate(-796.734 -813.664) scale(2.84391)"/><path d="M376.754 346.758l8.57-16.101c-.289-2.79.378-5.155 1.686-7.174.934-1.443 1.659-2.525 3.598-3.755 0 0 1.774-1.401 5.813-1.165 2.798.163 6.466 1.883 6.466 1.883l15.952 2.68c-11.847-1.003-16.269-.632-17.857-.101-1.192 2.128-2.568 3.977-4.114 5.566-.995 1.024-1.292 2.547-1.262 3.974.103 3.428-.292 5.795-2.956 11.345a21.951 21.951 0 01-1.642 2.848h-14.254z" transform="translate(-796.734 -816.508) scale(2.84391)"/><path d="M390.321 319.319c.222-.167 2.119-1.489 6.129-1.255 2.656.155 6.076 1.669 6.585 1.9l15.887 2.668a.5.5 0 01-.125.992c-11.296-.956-15.765-.672-17.478-.181-1.191 2.096-2.56 3.921-4.092 5.497-.904.929-1.148 2.319-1.121 3.61.105 3.497-.288 5.914-3.005 11.576a22.36 22.36 0 01-1.68 2.913.5.5 0 01-.413.219h-14.254a.5.5 0 01-.442-.734l8.5-15.969c-.262-2.849.436-5.271 1.778-7.343.97-1.498 1.727-2.618 3.731-3.893zm19.044 2.722l-6.561-1.102a.483.483 0 01-.129-.04s-3.564-1.678-6.283-1.837c-3.798-.222-5.474 1.059-5.474 1.059l-.042.03c-1.859 1.179-2.55 2.22-3.447 3.604-1.248 1.928-1.883 4.186-1.608 6.851a.5.5 0 01-.056.286l-8.179 15.366h13.155a21.62 21.62 0 001.459-2.564c2.609-5.438 3.008-7.755 2.906-11.118-.033-1.56.317-3.215 1.404-4.333 1.516-1.56 2.866-3.374 4.036-5.463a.499.499 0 01.278-.23c1.08-.36 3.456-.66 8.541-.509z" fill="#fff" transform="translate(-796.734 -816.508) scale(2.84391)"/><path d="M433.166 341.744c.324.356.657.383 1 0 0-28.831-23.407-52.237-52.238-52.237s-52.238 23.406-52.238 52.237a.5.5 0 001 0c0-28.279 22.959-51.237 51.238-51.237s51.238 22.958 51.238 51.237z" fill="#fff" transform="translate(-802.422 -816.508) scale(2.84391)"/><path d="M325.892 339.561a53.016 53.016 0 01-.215-4.771c0-28.813 23.392-52.206 52.205-52.206s52.206 23.393 52.206 52.206c0 1.608-.073 3.199-.216 4.771a.486.486 0 00.97.088c.145-1.601.219-3.221.219-4.859 0-29.35-23.829-53.179-53.179-53.179s-53.178 23.829-53.178 53.179c0 1.638.074 3.258.219 4.859a.487.487 0 00.969-.088z" fill="#fff" transform="translate(-820.384 -822.836) scale(2.92189)"/></g></svg>