<svg id="Layer_1" xmlns="http://www.w3.org/2000/svg" viewBox="0 0 3400 2750"><style>.st0{fill:#ff5a5f}.st1{fill:#424242}</style><path class="st0" d="M45.7 35.5c-.3-.6-.5-1.3-.8-1.8-.4-.9-.8-1.8-1.2-2.6l-.1-.1c-3.3-7.4-7-15-10.9-22.5l-.2-.3-1.2-2.4c-.5-.9-1-1.9-1.8-2.8-1.5-1.9-3.8-3-6.3-3s-4.8 1.1-6.4 3c-.8.9-1.3 1.9-1.8 2.8l-1.2 2.4-.2.3c-3.8 7.4-7.5 15-11 22.5l-.1.1c-.4.8-.8 1.7-1.2 2.6-.3.6-.5 1.2-.8 1.8C0 37.3-.2 39 0 40.8c.6 3.8 3.1 6.9 6.5 8.3 1.3.6 2.7.8 4.1.8.4 0 .9-.1 1.3-.1 1.7-.2 3.4-.8 5-1.7 2.1-1.2 4-2.8 6.2-5.2 2.2 2.4 4.2 4.1 6.2 5.2 1.7 1 3.4 1.5 5 1.7.4.1.9.1 1.3.1 1.4 0 2.8-.3 4.1-.8 3.5-1.4 6-4.6 6.5-8.3.4-1.7.2-3.5-.5-5.3zm-22.5 2.6c-2.7-3.4-4.5-6.6-5.1-9.3-.3-1.2-.3-2.2-.2-3.1.1-.8.4-1.5.8-2.1 1-1.4 2.6-2.2 4.4-2.2s3.5.8 4.4 2.2c.4.6.7 1.3.8 2.1.2.9.1 2-.2 3.1-.5 2.6-2.2 5.8-4.9 9.3zm19.9 2.3c-.4 2.6-2.1 4.9-4.6 5.9-1.2.5-2.5.7-3.8.5s-2.5-.6-3.8-1.3c-1.8-1-3.6-2.6-5.7-4.9 3.3-4.1 5.3-7.8 6.1-11.1.4-1.6.4-3 .3-4.3-.2-1.3-.7-2.4-1.4-3.4-1.6-2.3-4.2-3.6-7.1-3.6s-5.5 1.4-7.1 3.6c-.7 1-1.2 2.2-1.4 3.4-.2 1.3-.2 2.8.3 4.3.8 3.3 2.8 7.1 6.1 11.1-2.1 2.3-3.9 3.9-5.7 4.9-1.3.8-2.6 1.2-3.8 1.3-1.4.2-2.7-.1-3.8-.5-2.5-1-4.2-3.3-4.6-5.9-.2-1.3-.1-2.5.5-3.9.2-.5.4-1 .7-1.6.4-.8.8-1.7 1.2-2.5l.1-.1c3.5-7.5 7.2-15.1 11-22.5l.2-.3c.4-.8.8-1.6 1.2-2.3.4-.8.9-1.6 1.4-2.2 1.1-1.2 2.5-1.9 4-1.9 1.6 0 3 .7 4 1.9.6.7 1 1.4 1.4 2.2s.8 1.6 1.2 2.3v.4c3.8 7.5 7.5 15.1 11 22.5v.1c.4.8.8 1.7 1.2 2.5.3.6.5 1.1.7 1.6.3 1.3.4 2.5.2 3.8z" id="airbnb-logo-small"/><g id="lipari-logo"><path class="st1" d="M83.2 74.4C82 79 77.7 91.4 75.5 95c-3.8 1-14.1 3.2-23.8 3.2C16.3 98.2 0 72.9 0 49.5 0 19.4 21.8.4 54.1.4c11.5 0 20.2 2.4 24.8 3 .8 6.7 1.2 14.5 2.2 20.4l-2.2.4C76.3 15.5 74.3 9.5 66.2 6c-4-1.8-10.7-2.4-16.2-2.4-25.4.3-37.7 20.7-37.7 43.3 0 27.3 14.3 47.7 40 47.7 16.2 0 22.6-9.1 28.7-21.2l2.2 1zm62.6 14.3c-1.4 1-2.6 1.4-4.4 1.4-2.8 0-5.3-2.2-5.3-9.3 0-8.7.2-17.2.2-25.7 0-7.7-1.4-13.1-6.3-17.6-2.8-2.2-6.7-3.4-10.5-3.4-5.9 1.2-16 6.9-19.8 9.7-2.4 1.8-3.4 3-3.4 4.2 0 2.8 3 5.1 5.1 5.1.6 0 2.2-.2 2.8-2.2 1-3.4 2.2-7.1 3.8-8.7 1.6-1.8 4-2.6 6.7-2.6 7.7 0 12.7 6.7 12.7 17v4.2c-3.8 2.6-13.9 5.7-21.6 8.5-6.7 2.2-10.3 6.3-10.3 12.7 0 7.7 6.3 15.8 15.8 15.8 3.2 0 10.7-5.7 16-9.3.6 3.4 1.8 4.8 3.2 6.5 2.2 2 4.4 2.8 6.5 2.8l9.9-7.3-1.1-1.8zM127 85.5c-3 3.4-7.7 5.1-11.3 5.1-5.1 0-10.5-3.8-10.5-10.7 0-5.3 3.4-7.7 8.3-9.7 3.8-1.8 11.3-4.6 13.7-6.3 0 7.2-.2 14.7-.2 21.6zm60.4-34.8c-2.2-9.3-7.7-13.3-14.1-13.3-6.3 0-9.7 3.2-9.7 9.5 0 7.1 5.1 10.1 11.9 13.7 10.1 5.1 16 9.7 16 18.4 0 12.1-10.7 18.8-21 18.8-5.9 0-11.7-1.8-14.1-2.8-.6-1.8-2.4-11.3-2.8-15.4l1.8-.6c2.2 8.3 7.9 15.6 17.2 15.6 6.7 0 10.7-3.8 10.7-10.3 0-6.9-4.2-10.5-11.3-14.3-8.3-4.6-16-9.1-16-18.8-.2-9.7 8.1-17.2 19.8-17.2 5.5 0 9.7 1.2 12.1 1.4 0 2.8 1.4 12.1 1.8 14.5l-2.3.8zm65.7 38c-1.2 1-2.6 1.4-4.4 1.4-2.8 0-5.3-2.2-5.3-9.3 0-8.7.2-17.2.2-25.7 0-7.7-1.4-13.1-6.3-17.6-2.8-2.2-6.7-3.4-10.5-3.4-5.9 1.2-16 6.9-19.8 9.7-2.4 1.8-3.4 3-3.4 4.2 0 2.8 3 5.1 5.1 5.1.6 0 2.2-.2 2.8-2.2 1-3.4 2.2-7.1 3.8-8.7 1.6-1.8 4-2.6 6.7-2.6 7.7 0 12.7 6.7 12.7 17v4.2c-3.8 2.6-13.9 5.7-21.6 8.5-6.7 2.2-10.3 6.3-10.3 12.7 0 7.7 6.3 15.8 15.8 15.8 3.2 0 10.7-5.7 16-9.3.6 3.4 1.8 4.8 3.2 6.5 2.2 2 4.4 2.8 6.5 2.8l9.9-7.3-1.1-1.8zm-18.8-3.2c-3 3.4-7.7 5.1-11.3 5.1-5.1 0-10.5-3.8-10.5-10.7 0-5.3 3.4-7.7 8.3-9.7 3.8-1.8 11.3-4.6 13.7-6.3.2 7.2-.2 14.7-.2 21.6z"/><path d="M198.9 140.6c-.8 4-3.6 16.6-5.3 21.6h-63.5v-1.8c12.7-1.8 13.5-2.8 13.5-14.7V84.9c0-11.7-1.4-12.7-12.5-14.1V69h34.3v1.8c-9.9 1.8-11.7 2.4-11.7 14.1v63c0 10.3 1.8 10.7 11.3 10.7l9.7-.2c8.5 0 11.9-.2 15.8-5.7 2.4-3.6 4.4-7.7 6.5-12.7l1.9.6zm6.9 21.9v-1.8c8.3-1.6 9.5-2.2 9.5-12.5v-28.9c0-9.7-.8-10.3-8.3-11.9V106c5.7-1.2 12.1-2.8 17.8-5.7-.2 2.8-.2 11.3-.2 17.8V148c0 10.7 1.2 11.1 9.5 12.7v1.8h-28.3zm13.5-80.7c-3 0-6.1-2.8-6.1-6.1 0-3.8 3-6.3 6.3-6.3s6.1 2.4 6.1 6.3c0 3.5-2.8 6.1-6.3 6.1zm19.6 23.5c5.9-1 13.3-3.4 18.4-6.1-.2 2.2-.4 6.7-.4 11.1l11.3-6.7c3.2-1.8 6.3-3 8.7-3 15.2 0 23.6 13.1 23.6 25.9 0 20.4-16.2 34.5-34.3 37.6-3.8-.2-7.5-1.4-9.3-2.6v21.6c0 13.3 1.2 13.9 11.3 15.6v1.8h-30.3v-1.8c8.3-1.6 9.9-2.2 9.9-13.1v-67.7c0-8.7-1.6-9.5-8.7-11.1v-1.4h-.2v-.1zm18 47.7c3.2 3.6 8.7 5.3 13.7 5.3 11.3 0 20-8.7 20-26.9 0-15.2-8.9-23.6-18.8-23.6-5.5 0-11.3 2.8-15.2 5.9V153h.3zm105.1 2.2c-1.2 1-2.6 1.4-4.4 1.4-2.8 0-5.3-2.2-5.3-9.3 0-8.7.2-17.2.2-25.7 0-7.7-1.4-13.1-6.3-17.6-2.8-2.2-6.7-3.4-10.5-3.4-5.9 1.2-16 6.9-19.8 9.7-2.4 1.8-3.4 3-3.4 4.2 0 2.8 3 5.1 5.1 5.1.6 0 2.2-.2 2.8-2.2 1-3.4 2.2-7.1 3.8-8.7 1.6-1.8 4-2.6 6.7-2.6 7.7 0 12.7 6.7 12.7 17v4.2c-3.8 2.6-13.9 5.7-21.6 8.5-6.7 2.2-10.3 6.3-10.3 12.7 0 7.7 6.3 15.8 15.8 15.8 3.2 0 10.7-5.7 16-9.3.6 3.4 1.8 4.8 3.2 6.5 2.2 2 4.4 2.8 6.5 2.8l9.9-7.3-1.1-1.8zm-18.8-3.3c-3 3.4-7.7 5.1-11.3 5.1-5.1 0-10.5-3.8-10.5-10.7 0-5.3 3.4-7.7 8.3-9.7 3.8-1.8 11.3-4.6 13.7-6.3.2 7.3-.2 14.8-.2 21.6zm54.3 10.6h-29.3v-1.8c7.9-1.4 8.9-2 8.9-12.5v-28.9c0-9.3 0-10.1-7.3-11.7v-1.4c6.5-1.2 11.7-3.2 17.2-6.1-.2 2.6-.2 10.3-.4 15.6 3.4-6.1 10.7-14.9 17.4-14.9 4.2 0 7.1 2.8 7.1 5.7 0 2.6-1.6 5.3-3.6 6.7-1.4 1-2.6.8-3.2 0-2.2-2.2-3.8-3.6-6.5-3.6-2.8 0-7.3 3.2-11.1 10.3v28.7c0 10.3.8 10.9 11.1 12.5v1.6h-.3v-.2zm19.6 0v-1.8c8.3-1.6 9.5-2.2 9.5-12.5v-28.9c0-9.7-.8-10.3-8.3-11.9V106c5.7-1.2 12.1-2.8 17.8-5.7-.2 2.8-.2 11.3-.2 17.8V148c0 10.7 1.2 11.1 9.5 12.7v1.8h-28.3zm13.6-80.7c-3 0-6.1-2.8-6.1-6.1 0-3.8 3-6.3 6.3-6.3s6.1 2.4 6.1 6.3c-.3 3.5-2.9 6.1-6.3 6.1z"/></g></svg>