<svg id="Layer_1" xmlns="http://www.w3.org/2000/svg" viewBox="0 0 800 600"><path d="M29.5 31.7v26.9l4.3-.4V43.6l4.9 13.8 4.6-.5V31.7h-4.2v14.8l-5.3-14.8zm17.9 0v24.8l11.7-.8v-4.3l-7.3.4v-6.1h5.6v-4.3h-5.8v-5.5h7.5v-4.2zm14.4 0v4.2h4.3v19.3h4.4V35.9h4.3v-4.2zm15.8 0v23.5h4.2v-9.7h5.5V41h-5.7v-5.1h7.6v-4.2zm14.4 0v23.5l11.3.7v-4.3l-7-.4V31.7zm14.9 0v24.4l4.2.4V31.7zm7.6 0l4.9 12.3-5.3 12.7 4.7.5 3-6.8 2.9 7.6 4.9.6-5.5-14.2 5.5-12.7h-4.7l-2.9 6.5-2.8-6.5z" id="netflix-logo-big" fill="#FFF"/><path d="M101.7 53.4c-1.5.3-5.3.5-5.3.5l-.5 1.5s1.9-.2 3.3 0c0 0 .5-.1.5.5V57s0 .3-.5.4c-.5.1-4.1.2-4.1.2l-.6 2s-.2.5.3.3c.5-.1 4.2-.8 4.7-.7s1.1.8.9 1.5c-.2.8-4 3.2-6.2 3 0 0-1.2.1-2.2-1.5-.9-1.5.4-4.5.4-4.5s-.6-1.4-.2-1.8c0 0 .3-.2 1-.3l.9-1.9s-1 .1-1.7-.7c-.6-.7-.6-1.1-.2-1.3.5-.2 4.8-1 7.8-.9 0 0 1-.1 1.9 1.7.1 0 .5.7-.2.9zm-11.3 7.3c-.4.9-1.4 1.9-2.7 1.3s-3.2-4.7-3.2-4.7-.8-1.5-.9-1.5c0 0-.2-.3-.3 1.4-.1 1.7 0 4.9-.6 5.4s-1.4.3-1.8-.3-.5-2-.3-4.4.8-5 1.5-5.9c.7-.8 1.3-.2 1.5 0 0 0 1 .9 2.6 3.5l.3.5s1.5 2.4 1.6 2.4c0 0 .1.1.2 0 .2 0 .1-.8.1-.8s-.3-2.7-1.6-7.2c0 0-.2-.6-.1-1.1s.7-.3.7-.3 2.1 1 3 4.4c1 3.4.4 6.4 0 7.3zm-10.1-8.6c-.2.3-.3.8-1.1 1 0 0-8.3.6-8.7 1.1 0 0-.3.3.2.4.5.1 2.3.3 3.2.4 1 0 4.2 0 5.4 1.5 0 0 .7.7.7 2.3s-.3 2.2-.9 2.8c-.7.5-6.3 3.1-9.9-.8 0 0-1.7-1.9.6-3.3 0 0 1.6-1 5.7.2 0 0 1.3.5 1.2.9-.1.5-1 1-2.4 1s-2.3-.7-2.1-.6-1.5-.8-2-.2c-.5.5-.4.9.1 1.2 1.3.7 6.1.5 7.6-1.1 0 0 .6-.7-.3-1.2s-3.4-.8-4.4-.9c-.9-.1-4.4 0-4.9-.9 0 0-.5-.6.1-2.4.6-1.9 4.6-2.6 6.4-2.7 0 0 4.8-.2 5.7.8-.2-.1-.1.2-.2.5zM66.6 63c-.6.4-1.8.2-2.2-.2-.4-.4-.5-2.2-.4-4.9s.1-6.1.7-6.7c.6-.5 1-.1 1.3.3.3.4.6.8.6 1.6.1.9.3 5.4.3 5.4s.2 4.1-.3 4.5zm4.2-22.2c-.5-1.3-2.9-1.1-2.9-1.1-5 .4-6.6 3.9-6.8 4.8-.2.8-.1 2 .9 2.8-.3.8-.1 1.1 0 1.3.1.3.5 1 1 1 .3-.1.6-.3 1-1 1 .4 2.2.6 3.9.1 2.7-.9 5.3-3.5 5.3-5.6 0-2.3-2.4-2.3-2.4-2.3zm-7.9 4.6c-.2-.3-.2-.8.3-1.6.7-1.1 1.7-1.6 2.9-1.7-1.6 1.1-2.6 2.5-3.2 3.3zm8.3-1.5c-1.4 2.8-4.5 2.9-6.3 2.6 1.1-1.7 3.6-3.8 5.1-4 1.8-.3 1.2 1.4 1.2 1.4zm40.9 8c-2.5-1.7-6.5 3.8-8.3 6.5-.3-1.4.7-3.1.7-3.1s1.5-2.6 1.7-3.1.3-1.6.1-1.7c-.2-.1-.6.2-.6.2-3.4 3-3.8 6.4-3.8 6.4-.3 1.8.1 3.1.6 4-1.9 4-2.8 7.5-2.5 9.5.2 1.6 1.4 2.7 2 2.9.7.3.8-.5.8-.5.6-4.3 1.5-7.1 2.7-9.9 3.5.8 6.1-2.6 7.1-4.2.5-1 .8-2.3.8-3.5-.1-1.6-.4-2.9-1.3-3.5zm-2.3 6.8c-.4.4-1.7 1.1-3.1 1.3 1.3-2.6 3-4.4 3.9-5.4 1-1.2 1.2-.1 1.2-.1.2 2-1.3 3.6-2 4.2zM50.4 41.5s-11.5-5.9-20.9-2.6c0 0-.6 0-1.1.8s-1 1.3-.7 1.9c.3.6 1.7.9 3 .4 0 0 .6-.4-.2-.6-.7-.2-1.1-.3-1.1-.3s-.4-.1 0-.3 4.7-1.6 12.3.4 18 8.1 17.7 14.5c-.3 6.4-10.4 6.7-10.4 6.7s-2 .1-4.8-.4c-.1-2.1-.2-5.7-.1-7.9 3.9 0 7.9.7 8.2 1.6 0 0 .2.4-.7.9-.8.4-1.4.6-.8 1 0 0 1 .5 1.6.4s2.2-.8 2.3-2.5c.2-1.8-1.9-3.3-4.9-3.9-2.3-.4-3.6-.6-5.7-.5 0-1.9-.3-4.3-.7-4.9-.5-.7-1.1-1.7-1.6-.6-.4.9-.7 3-.8 5.8-3.2.5-6.8 1.9-7.9 3.2-1.2 1.5 0 2.7.1 2.8.1.2 2.4 3.5 7.5 5.9.1.9.3 1.9.6 2.5.8 1.2 2.2.3 2.4.2.1-.2.2-.5.3-1.4 2.3.6 6.4 1.2 10.8-.1 6.6-2 7.6-6.1 7.8-8.6.4-2.6-1.4-9-12.2-14.4zm-9.6 19.6c-2.3-.8-4.8-2.2-6.8-4.3 0 0-.7-.8.3-1.3 1-.4 3.1-1 6.8-1.3 0 1.9 0 3.2-.3 6.9zm91.7-6.4V56c0 .3-.2.5-.5.5h-6.3v.9c0 2-.1 3.6-.3 5.4 0 .3-.3.5-.5.5h-1.4c-.1 0-.3-.1-.4-.2-.1-.1-.1-.2-.1-.4.2-1.8.3-3.4.3-5.3v-.9H117c-.3 0-.5-.2-.5-.5v-1.3c0-.3.2-.5.5-.5h6.2c-.1-2.2-.4-4.3-.8-6.4 0-.1 0-.3.1-.4.1-.1.2-.2.3-.2h1.5c.2 0 .4.2.5.4.4 2.2.7 4.3.8 6.5h6.4c.2.1.5.3.5.6z" id="disney-logo-big" fill="#FFF"/><g id="youtube-logo-big"><rect fill="#FFF" width="160" height="90" rx="10" ry="10"/><path fill="#EB3323" d="M51.8 33.6c-.6-2.1-2.2-3.7-4.2-4.2-3.7-1-18.6-1-18.6-1s-15 0-18.6 1c-2.1.6-3.7 2.2-4.2 4.2C5 37.2 5 45 5 45s0 7.8 1 11.4c.6 2.1 2.2 3.7 4.2 4.2 3.7 1 18.6 1 18.6 1s15 0 18.6-1c2.1-.6 3.7-2.2 4.2-4.2 1-3.7 1-11.4 1-11.4s.1-7.8-.8-11.4z"/><path fill="#FFF" d="M24.1 52.1L36.5 45l-12.4-7.1z"/><path fill="#232323" d="M79.6 55.4c.3-.7.4-1.8.4-3.4v-6.6c0-1.5-.1-2.6-.4-3.3s-.7-.9-1.4-.9-1.1.4-1.3 1c-.3.7-.4 1.8-.4 3.3v6.6c0 1.6.1 2.6.4 3.4.3.7.7 1 1.4 1 .7-.1 1-.4 1.3-1.1zm-5.2 3.3c-.9-.7-1.6-1.6-2.1-3-.4-1.3-.6-3.1-.6-5.3v-3c0-2.2.2-4 .7-5.4s1.2-2.3 2.2-3c.9-.7 2.2-.9 3.8-.9 1.6 0 2.8.3 3.7.9.9.7 1.6 1.6 2.1 3 .5 1.3.7 3.2.7 5.4v3c0 2.3-.2 4-.7 5.3-.4 1.3-1.1 2.3-2.1 3-.9.7-2.2.9-3.8.9-1.7 0-3-.3-3.9-.9zm73.1-17.1c-.3.3-.4.8-.5 1.4-.1.7-.1 1.7-.1 3.1v1.5h3.5v-1.5c0-1.3 0-2.3-.1-3.1-.1-.7-.3-1.2-.5-1.5-.3-.3-.6-.5-1.1-.5-.5.2-.9.3-1.2.6zm-.5 8.8v1c0 1.3 0 2.3.1 3s.3 1.1.5 1.5c.3.3.7.5 1.1.5.7 0 1.2-.3 1.5-.8.3-.6.4-1.5.5-2.7l4 .3v.8c0 2-.6 3.4-1.6 4.3-1 .9-2.5 1.4-4.5 1.4-2.3 0-3.9-.8-4.9-2.2-.9-1.5-1.4-3.8-1.4-6.8V47c0-3.2.5-5.4 1.5-6.8.9-1.4 2.6-2.2 5-2.2 1.6 0 2.9.3 3.7.8s1.5 1.5 1.9 2.7.6 3 .6 5.2v3.6l-8 .1zm-84.1-.3l-5.3-19.3h4.7l1.9 8.8c.5 2.2.8 4 1 5.5h.1c.2-1.1.5-2.9 1-5.5l2-8.8H73l-5.4 19.3v9.3h-4.7v-9.3c-.1 0 0 0 0 0zM100 38.3v20.9h-3.7l-.3-2.5h-.2c-1 2-2.5 2.9-4.5 2.9-1.4 0-2.4-.5-3.1-1.4s-1-2.3-1-4.2V38.3h4.7v15.4c0 .9.1 1.6.3 2 .2.4.6.6 1 .6s.8-.1 1.2-.4c.4-.3.7-.6.8-.9V38.3h4.8zm24.2 0v20.9h-3.7l-.4-2.5h-.1c-1 2-2.5 2.9-4.5 2.9-1.4 0-2.4-.5-3.1-1.4s-1-2.3-1-4.2V38.3h4.7v15.4c0 .9.1 1.6.3 2 .2.4.6.6 1 .6s.8-.1 1.2-.4c.4-.3.7-.6.8-.9V38.3h4.8z"/><path fill="#232323" d="M112.9 34.5h-4.7v24.7h-4.7V34.5h-4.7v-3.8h14v3.8zm22.6 15.7c0 1.5-.1 2.7-.2 3.6-.1.8-.4 1.5-.7 1.9s-.7.6-1.2.6c-.4 0-.7-.1-1.1-.3-.3-.2-.6-.5-.8-.8v-12c.2-.6.5-1 .8-1.4.4-.4.8-.6 1.2-.6.5 0 .8.2 1.1.6.3.4.5 1 .6 1.9.1.8.2 2.2.2 3.8l.1 2.7zm4.4-8.5c-.3-1.3-.7-2.2-1.4-2.9-.7-.6-1.5-.8-2.6-.8-.8 0-1.7.3-2.4.8s-1.3 1.1-1.8 2V29.6H127v29.7h3.9l.5-2h.1c.4.8.9 1.2 1.7 1.7.7.4 1.5.7 2.4.7 1.6 0 2.8-.8 3.6-2.2.7-1.5 1.1-3.8 1.1-6.8v-3.3c-.1-2.5-.2-4.4-.4-5.7z"/></g><g id="airbnb-logo-big"><rect fill="#FFF" width="160" height="90" rx="10" ry="10"/><path fill="#FF5A5F" d="M71.5 39.6v.8s-1.5-1.9-4.6-1.9c-5.2 0-9.1 3.8-9.1 9.3s3.9 9.3 9.1 9.3c3.2 0 4.6-2 4.6-2v.8c0 .4.3.7.7.7H76V38.7h-3.8c-.5.1-.7.5-.7.9zm0 11.2c-.8 1-2.2 2-3.8 2-1.1 0-2.2-.3-3-.8-.3-.2-.6-.4-.8-.6-.3-.3-.5-.5-.7-.8-.6-.8-.8-1.9-.8-3s.4-2.3.8-3c.2-.3.5-.6.7-.8.3-.3.6-.5.8-.6.8-.6 1.9-.8 3-.8 1.7 0 3.2.9 3.8 2v6.4zm74.4-12.5c-3.1 0-4.6 1.9-4.6 1.9v-9.9h-4.5v26.2h3.8c.4 0 .7-.4.7-.7V55s1.4 2 4.6 2c5.2 0 9.1-3.9 9.1-9.3 0-5.3-4-9.4-9.1-9.4zm4.5 9.9c-.1.4-.1.8-.2 1-.3.8-.8 1.6-1.3 2.1-.2.1-.3.2-.4.4-.3.2-.6.4-.8.6-.2.1-.4.2-.5.2-.4.1-.7.2-.9.3-.4.1-.8.1-1 .1h-.5c-.1 0-.4-.1-.5-.1-.3-.1-.6-.2-.8-.3l-.6-.3c-.5-.3-.8-.7-1.2-.9-.1-.2-.2-.3-.3-.4v-6.4c.8-.9 2.3-2 3.8-2 3 0 5.3 1.9 5.3 5.1 0 .2 0 .4-.1.6zM132.3 40c-1.3-1.1-2.9-1.7-5-1.7-1.8 0-3.5.6-4.8 1.9v-.8c0-.4-.3-.7-.7-.7h-3.6v17.6h4.5V44.2c.8-1 2.3-1.8 3.7-1.8 2.5 0 3.5 1.1 3.5 4v9.9h4.5V46c.1-3-.5-4.7-2.1-6zm-41.9.2v-.8c0-.4-.3-.7-.7-.7h-3.8v17.6h4.5V44.2c2.3-2.6 6.1-1.4 6.1-1.4v-4.1s-.8-.3-2.1-.3c-1.3-.1-3.1.9-4 1.8zm17.1-1.9c-3.1 0-4.6 1.9-4.6 1.9v-9.9h-4.4v26.2h3.8c.3 0 .7-.4.7-.7V55s1.4 2 4.6 2c5.2 0 9.1-3.9 9.1-9.3-.1-5.3-4.1-9.4-9.2-9.4zm4.5 9.9c-.1.4-.1.8-.2 1-.3.8-.8 1.6-1.3 2.1-.2.1-.3.2-.4.4-.3.2-.6.4-.8.6-.2.1-.4.2-.5.2-.4.1-.7.2-.9.3-.4.1-.8.1-1 .1h-.5c-.2 0-.4-.1-.5-.1-.3-.1-.6-.2-.8-.3l-.6-.3c-.5-.3-.8-.7-1.2-.9-.1-.2-.2-.3-.3-.4v-6.4c.8-.9 2.3-2 3.8-2 1.1 0 2.2.3 3 .8.3.2.6.4.8.6.3.3.5.5.7.8.6.8.8 1.9.8 3 0 .1 0 .3-.1.5zM80.9 30.4c-1.8 0-3.1 1.3-3.1 3.1s1.3 3.1 3.1 3.1 3.1-1.3 3.1-3.1c-.1-1.7-1.4-3.1-3.1-3.1zm-2.2 8.4h4.5v17.6h-4.5zM47.8 54.9c-.3-.6-.5-1.1-.8-1.7-.4-.8-.8-1.7-1-2.3l-.1-.1c-3.3-7-6.8-14.2-10.3-21.2l-.2-.3c-.4-.8-.8-1.4-1.1-2.3-.5-.8-.9-1.8-1.7-2.5-1.5-1.9-3.7-2.9-5.9-2.9-2.3 0-4.4 1-6 2.8-.8.8-1.2 1.8-1.7 2.5-.4.8-.8 1.5-1.1 2.3l-.2.3c-3.7 7-7.1 14.2-10.3 21.2v.1c-.4.8-.8 1.6-1 2.3-.3.6-.6 1.1-.8 1.8-.7 1.8-.8 3.4-.6 5.1.6 3.6 2.8 6.5 6.1 7.8 1.2.6 2.4.8 3.8.8.4 0 .8-.1 1.2-.1 1.6-.2 3.2-.8 4.7-1.6 2-1 3.8-2.6 5.8-4.9 2.1 2.3 3.9 3.8 5.8 4.9 1.6.8 3.2 1.4 4.7 1.6.4.1.8.1 1.2.1 1.3 0 2.6-.3 3.8-.8 3.3-1.3 5.5-4.3 6.1-7.8.4-1.8.2-3.4-.4-5.1zm-21.2 2.5c-2.5-3.2-4.1-6.2-4.8-8.7-.3-1-.3-2.1-.2-2.8.1-.8.4-1.4.8-2 .8-1.2 2.3-2.1 4.1-2.1s3.3.8 4.1 2.1c.4.6.7 1.2.8 2 .2.8.1 1.9-.2 2.8-.3.9-.6 2-1 3-.8 1.6-1.9 3.6-3.6 5.7zm19 2.1c-.1.4-.4.8-.6 1.3-.3.8-.7 1.3-1 2-.3.4-.7.8-.9.9s-.5.4-.8.6c-.3.2-.6.4-.8.5s-.3.2-.5.2c-.5.2-.8.4-1.3.4-.3.1-.7.1-.8.1h-.5c-.3 0-.7 0-.8-.1-1-.2-2.1-.5-3.1-.9-.2-.1-.3-.2-.5-.3-1-.6-2.2-1.3-3.3-2.3-.4-.4-.8-.7-1-.9-.4-.4-.8-.8-1-1.1.2-.3.4-.5.6-.8.4-.5.8-.9 1-1.4.2-.3.4-.5.5-.8.4-.5.7-.8.8-1.3 1.3-2.3 2.3-4.3 2.7-6.3.4-1.4.4-2.7.3-3.9-.2-1.1-.7-2.3-1.2-3.2-1.4-2.2-3.8-3.4-6.7-3.4S21.5 40 20 42.2c-.7.9-1 2.1-1.2 3.2-.2 1.2-.2 2.5.3 3.9.8 3.1 2.6 6.7 5.6 10.4-.5.6-.9 1-1.4 1.5s-.8.8-1.3 1.2c-.8.8-1.8 1.3-2.5 1.9-1.2.8-2.3 1-3.6 1.2-1.2.2-2.4-.1-3.6-.5-2.3-.9-3.9-3.1-4.2-5.4-.2-1.1-.1-2.3.5-3.7.2-.5.4-.9.7-1.5.4-.8.8-1.6 1-2.3l.1-.1c2.4-5.3 5-10.5 7.7-15.8.8-1.8 1.8-3.6 2.6-5.3l.2-.3c.4-.8.8-1.4 1.1-2.2.4-.8.8-1.4 1.3-2.1.9-1.1 2.3-1.8 3.8-1.8 1 0 2.2.4 2.9.9.2.1.3.3.5.4l.4.4c.6.7.9 1.3 1.3 2.1s.8 1.4 1.1 2.2l.2.3c.8 1.8 1.8 3.6 2.6 5.3.8 1.8 1.8 3.6 2.6 5.3 1.8 3.6 3.4 7 5.1 10.5v.1c.4.8.8 1.6 1 2.3.1.2.1.3.2.5.1.3.2.7.3.8.1.2.1.3.2.4.1.4.2.7.3.8.1.3.1.7.2.8-.3 1.2-.2 1.4-.4 1.9z"/></g><g id="facebook-logo-big"><rect fill="#0075FB" width="160" height="90" rx="15" ry="15"/><path fill="#FFF" d="M19.1 30.3v4.6h-2.5s-2.2-.3-2.2 1.9v3.6h4.8l-.6 5h-4.2v13.8H8.8v-14H5v-4.9h3.9v-4.1s-.5-2.3 1.5-4.1c2.1-1.9 4.7-1.7 4.7-1.7l4-.1zm13.3 10.1v2.4c-1.4-1.9-3.4-3-5.5-3-4.3 0-7.8 3.8-7.8 9.9s3.5 9.9 7.8 9.9c2.2 0 4.2-1.2 5.6-3.1v2.4h5.3V40.3l-5.4.1zm-.3 11.3c0 1.9-1.6 3.7-3.6 3.7S25 53.5 25 51.7v-3.6c0-1.9 1.6-3.7 3.6-3.7s3.6 1.8 3.6 3.7v3.6h-.1zm49.1 7.5v-2.4c1.4 1.9 3.4 3 5.5 3 4.3 0 7.8-3.8 7.8-9.9S91 40 86.7 40c-2.3 0-4.2 1.2-5.6 3.1V30.6l-5.5.7v27.9h5.6zm.4-11.3c0-1.9 1.6-3.7 3.6-3.7s3.6 1.8 3.6 3.7v3.6c0 1.9-1.6 3.7-3.6 3.7s-3.6-1.8-3.6-3.7v-3.6zm-31.8 7.3s-4.3.3-4.3-5.2v-.3c0-5.5 4.3-5.2 4.3-5.2 2.9 0 3.9.9 3.9.9l1.3-4c-2.3-1.7-9.3-2-12.5.9-2.7 2.5-2.7 6.6-2.6 7.6-.1 1-.1 5.1 2.6 7.6 3.1 2.9 10.1 2.6 12.5.9l-1.3-4c0-.2-1.1.8-3.9.8zm23.6-3.4S75.6 40.1 65 40s-9.2 10.6-9.2 10.6c.3 6.5 3.2 8.3 8.3 8.9 5.2.6 8.9-1.3 8.9-1.3l-1.2-3.8s-4.1 1.2-7.4.9-3-3.7-3-3.7l12 .2zm-12-3.8s-.3-4.1 3.5-4.1 3.5 4.1 3.5 4.1h-7zm44.2-7.9c-6.9 0-9.3 4.2-9.3 9.8 0 6 3 9.8 9.3 9.8 5.2 0 9.3-3.5 9.3-9.8.1-5.4-2.7-9.8-9.3-9.8zm3.6 11.5c0 1.9-1.7 3.7-3.7 3.7-2.1 0-3.7-1.8-3.7-3.7V48c0-1.9 1.7-3.7 3.7-3.7 2.1 0 3.7 1.8 3.7 3.7v3.6zm17-11.5c-6.9 0-9.3 4.2-9.3 9.8 0 6 3 9.8 9.3 9.8 5.2 0 9.3-3.5 9.3-9.8 0-5.4-2.7-9.8-9.3-9.8zm3.6 11.5c0 1.9-1.7 3.7-3.7 3.7-2.1 0-3.7-1.8-3.7-3.7V48c0-1.9 1.7-3.7 3.7-3.7 2.1 0 3.7 1.8 3.7 3.7v3.6zm25.2 7.6l-6.1-9.4 5.8-9.5h-5.9l-5.7 8.5V30.5l-5.6.5v28.2h5.6v-9.6l6.1 9.6z"/></g><g id="google-logo-big"><rect fill="#FFF" width="160" height="90" rx="10" ry="10"/><path fill="#4285F4" d="M41.8 37.8H24.4V43h12.4c-.7 7.3-6.7 10.4-12.4 10.4-7.3 0-13.7-5.7-13.7-13.8 0-7.9 6.1-13.9 13.7-13.9 5.9 0 9.4 3.7 9.4 3.7l3.7-3.7s-4.7-5.2-13.2-5.2c-11-.1-19.3 9-19.3 19 0 9.7 7.9 19.1 19.5 19.1 10.2 0 17.7-7 17.7-17.3 0-2.3-.4-3.5-.4-3.5z"/><path fill="#EA4335" d="M56.2 34c-7.2 0-12.4 5.6-12.4 12.2 0 6.7 5 12.4 12.4 12.4 6.8 0 12.2-5.2 12.2-12.2.2-8.2-6.3-12.4-12.2-12.4zm.1 4.8c3.6 0 6.8 2.8 6.8 7.5 0 4.5-3.4 7.4-6.9 7.4-3.9 0-7-3.1-7-7.5.1-4.2 3.1-7.4 7.1-7.4z"/><path fill="#FBBC05" d="M83 34c-7.2 0-12.4 5.6-12.4 12.2 0 6.7 5 12.4 12.4 12.4 6.7 0 12.2-5.2 12.2-12.2C95.4 38.2 88.9 34 83 34zm.1 4.8c3.6 0 6.8 2.8 6.8 7.5 0 4.5-3.4 7.4-6.9 7.4-3.9 0-7-3.1-7-7.5.1-4.2 3.2-7.4 7.1-7.4z"/><path fill="#4285F4" d="M109.3 34c-6.6 0-11.8 5.8-11.8 12.3 0 7.4 6 12.3 11.6 12.3 3.5 0 5.3-1.4 6.8-3V58c0 4.2-2.5 6.8-6.5 6.8-3.8 0-5.6-2.8-6.3-4.4l-4.7 2c1.7 3.6 5.1 7.2 11.1 7.2 6.6 0 11.5-4.1 11.5-12.8v-22h-5.2v2.1c-1.4-1.7-3.6-2.9-6.5-2.9zm.5 4.8c3.2 0 6.6 2.7 6.6 7.5s-3.3 7.4-6.7 7.4c-3.5 0-6.7-2.8-6.7-7.4 0-4.7 3.3-7.5 6.8-7.5z"/><path fill="#EA4335" d="M143.9 34c-6.2 0-11.4 5-11.4 12.3 0 7.7 5.8 12.3 12 12.3 5.2 0 8.3-2.8 10.3-5.3l-4.2-2.8c-1.1 1.7-2.9 3.4-6 3.4-3.5 0-5.1-1.9-6-3.8l16.4-6.8-.8-2c-1.6-4-5.4-7.3-10.3-7.3zm.2 4.7c2.2 0 3.8 1.2 4.5 2.6l-10.9 4.6c-.4-3.5 3-7.2 6.4-7.2z"/><path fill="#34A853" d="M124.6 57.8h5.4V21.7h-5.4v36.1z"/></g><g id="twitter-logo-big"><rect fill="#00CDFF" width="160" height="90" rx="10" ry="10"/><path fill="#FFF" d="M155 44.1c-1.1 1.3-2.6 1.6-4.2 1.9-.3.1-.6.3-.7.5-.8 1.3-1.3 2.8-2.1 4.1-1.6 2.5-3.8 4.3-6.4 5.7-3.6 2-7.4 2.9-11.4 2.8-5.9-.2-10.9-2.3-14.8-6.8-.3-.3-.5-.7-.7-1.1 4.8 3.3 9.4 3.4 14-.1-.8-.6-1.5-.9-2.1-1.5-.6-.7-.4-1.2.7-2.2-1.2-.1-2.2-.5-3.1-1.2-.1-.1-.2-.1-.3-.2-1.1-1.2-1-1.8.7-2.3.1 0 .2-.1.4-.1-.6-.3-1.1-.6-1.7-.8-.8-.6-1.4-1.4-1.8-2.3-.2-.6-.2-1 .7-1 .3 0 .6-.1 1-.2-1.6-1.3-2.9-2.7-2.8-5.1 2.5.8 4.8 1.8 7.1 2.8 2.2 1 4.6 2.1 6.4 4 .7-1.4 1.2-2.8 1.9-4.1.9-1.9 2.1-3.5 3.7-4.8.3-.3.7-.8 1.1-.3.1.1.4-.1.6-.2.4-.2.8-.4 1.2-.5.7-.2.7-.1.7.7.4 0 .8-.1 1.2-.1.3 0 .7.2.7.4.1.2-.1.6-.4.7-.5.3-.9.5-1.5.8.8.4 1.6.6 2.2.9 2.4 1.3 4.1 3.4 4.8 6.1.1.5.4.8.9.8h2.5c.5 0 .9-.1 1.5-.2-.6 1.7-1.9 2-3.2 2.3v.3c1 .1 2.1.1 3.2.3 0-.2 0-.1 0 0zM35.2 54.7c-1.6 1.3-3.4 2-5.4 1.9-3-.1-5.1-1.7-6.6-4.1-.7-1.1-.8-2.4-.8-3.8-.1-1.7-.1-3.4 0-5.1.1-2.1 1.4-3.2 3.4-2.9 1.1.2 2.1 1.1 2.1 2.3.1 1.9 0 3.8.1 5.7 0 .9.7 2 1.4 2.3 1 .4 2.1.4 2.7-.6.4-.5.6-1.2.6-1.8.1-1.6 0-3.3 0-4.9.1-2.1 1.5-3.3 3.4-2.9 1.2.2 2.2 1.5 2.2 3v5c0 .9.3 1.8 1.3 2.2s2.2.3 2.7-.6c.4-.6.7-1.2.7-2 .1-1.7 0-3.4 0-5.2 0-1.4 1-2.5 2.4-2.6s2.7.8 2.8 2.2c.2 2.8.5 5.7-.3 8.4-.8 2.9-4 5.2-7 5.2-2.2.1-4-.4-5.7-1.7zM10.8 41h7.6c2 0 3.2 1.9 2.5 3.7-.4 1-1.3 1.7-2.5 1.7h-7.5c-.5 1.9 0 3.4 1.2 4 .3.2.8.3 1.2.3h5.2c2 0 3.4 1.9 2.9 3.8-.3 1.2-1.5 2.1-2.7 2.1h-6.1c-4 0-7.7-3.8-7.8-7.8 0-3.8.1-7.8 0-11.6 0-1.5 1.2-2.8 2.8-2.9 1.5-.1 3 1.2 3 2.8.2 1.2.2 2.5.2 3.9zm80.7 9.3c.7 1.2 1.8 1.4 2.8 1.5 1.7.1 3.5 0 5.2 0 1.1 0 2 .6 2.2 1.5.3.9.3 2-.7 2.6-.4.3-.8.6-1.3.6-2.3.1-4.7.1-7 0-3-.1-6.3-2.7-7-5.7-.7-2.6-.4-5.2 1.3-7.4 1.1-1.5 2.8-2.3 4.6-2.6 1.9-.3 3.8-.3 5.5.3 2.9.9 5.3 3.8 5.2 6.8-.1 1.5-.8 2.4-2.4 2.4H92c.1-.1-.2 0-.5 0zm.2-4h5c-.6-1.1-1.6-1.6-3.2-1.3-1.1.1-1.6.5-1.8 1.3zM77.4 41h4.5c1.3 0 2.2.7 2.6 1.6.5 1.2.2 2.3-.8 3.2-.5.4-1.1.5-1.7.6-1.5.1-2.9 0-4.4 0-.4 2-.2 3.3 1.2 4 .4.2.8.3 1.2.3.8.1 1.8 0 2.6 0 1.3.1 2.3.9 2.6 2.2.3 1.4-.2 2.6-1.4 3.4-.2.1-.5.3-.7.3-1.9-.1-3.8.1-5.5-.3-2.5-.6-4.3-2.2-5.3-4.7-.5-1.1-.8-2.4-.8-3.7-.1-3.6-.1-7.1 0-10.7 0-2.2 2-3.5 4-2.8 1 .4 1.9 1.5 1.9 2.6v4zM63 41h4.5c2.1 0 3.2 1.4 2.7 3.5-.2.9-.9 1.7-2 1.8-1.5.1-3 .1-4.6.1H63c-.4 1.9-.2 3.4 1.3 4 .4.2.8.3 1.2.3H68c1.4.1 2.3.9 2.6 2.2.3 1.3-.3 2.5-1.5 3.2-.2.1-.5.3-.7.3-1.9-.1-3.8.1-5.5-.3-2.4-.6-4.1-2.3-5.2-4.5-.6-1.2-.8-2.5-.8-3.8V37.4c0-1.8 1.3-3.1 2.9-3.1s2.9 1.3 2.9 3.1c.3 1 .3 2.3.3 3.6z"/><path fill="#FFF" d="M103.6 51c.2-1.6.1-3.2.6-4.7.6-2.2 2.2-3.7 4.1-4.7 1.2-.7 2.6-.7 3.9-.7h3.1c1.5 0 2.7 1.2 2.7 2.6 0 1.5-1.1 2.6-2.6 2.7h-3.3c-1.9 0-3.1 1.1-3 2.9.1 1.5 0 3 0 4.5 0 1.6-1 2.7-2.6 2.7-1.7 0-2.7-.9-2.8-2.6 0-.8 0-1.8-.1-2.7.1 0 0 0 0 0zm-48.1-2.4c0 1.7-.1 3.4 0 5.2.1 1-1.1 2.4-2.1 2.7-1.4.3-2.8-.3-3.4-1.4-.2-.5-.4-1.1-.4-1.6v-9.6c0-2.2 1.6-3.5 3.7-3.1 1.1.2 2.2 1.4 2.2 2.6v5.2zm.1-12c0 1.6-1.2 2.8-2.9 2.9-1.6.1-3-1.4-3-3s1.4-2.8 3-2.8c1.7 0 3.1 1.5 2.9 2.9z"/></g><g id="maps-logo-big"><rect fill="#FFF" width="160" height="90" rx="10" ry="10"/><path fill="#767676" d="M95.1 48.6l5-2.1c-.3-.7-1.1-1.2-2.1-1.2-1.2-.1-3 1-2.9 3.3m5.8 1.8l1.9 1.2c-.7.9-2.1 2.4-4.7 2.4-3.2 0-5.4-2.4-5.4-5.5 0-3.3 2.3-5.5 5.1-5.5 2.9 0 4.3 2.3 4.8 3.6l.3.7-7.5 3.1c.6 1.1 1.5 1.7 2.7 1.7 1.4-.1 2.3-.7 2.8-1.7M88.8 37.5h2.4v16.4h-2.4zm-3.9 11.1c0-2-1.3-3.4-3-3.4s-3.1 1.4-3.1 3.4 1.4 3.4 3.1 3.4 3-1.4 3-3.4zm2.1-5.2v10c0 4.1-2.4 5.8-5.3 5.8-2.7 0-4.3-1.8-5-3.3l2.2-.8c.4.9 1.3 2 2.8 2 1.9 0 3-1.1 3-3.3V53h-.1c-.6.7-1.6 1.3-2.9 1.3-2.8 0-5.3-2.4-5.3-5.5 0-3.2 2.5-5.6 5.3-5.6 1.3 0 2.3.6 2.9 1.2h.1v-.9c0-.1 2.3-.1 2.3-.1zm-26.7 5.2c0-2-1.4-3.4-3.1-3.4-1.7 0-3.1 1.4-3.1 3.4s1.4 3.4 3.1 3.4c1.6 0 3.1-1.4 3.1-3.4m2.4 0c0 3.2-2.4 5.5-5.5 5.5-3 0-5.5-2.3-5.5-5.5s2.4-5.5 5.5-5.5c3-.1 5.5 2.3 5.5 5.5m9.9 0c0-2-1.4-3.4-3.1-3.4s-3.1 1.4-3.1 3.4 1.4 3.4 3.1 3.4 3.1-1.4 3.1-3.4m2.5 0c0 3.2-2.4 5.5-5.5 5.5s-5.5-2.3-5.5-5.5 2.4-5.5 5.5-5.5 5.5 2.3 5.5 5.5m-32.7 5.6c-4.8 0-8.8-3.8-8.8-8.6s4-8.6 8.8-8.6c2.6 0 4.5 1 5.9 2.3L46.6 41c-1-.9-2.3-1.7-4.3-1.7-3.5 0-6.2 2.8-6.2 6.3s2.7 6.3 6.2 6.3c2.2 0 3.6-.9 4.4-1.7.7-.7 1.1-1.7 1.3-3h-5.6v-2.3h8c.1.4.1.9.1 1.5 0 1.8-.5 3.9-2.1 5.5-1.5 1.4-3.5 2.3-6 2.3"/><path id="path3911" fill="#767676" d="M108.7 53.7V39.2h1.9l5.1 8.9h.1l5.1-8.9h1.9v14.5h-1.9v-8.6l.1-2.4h-.1l-4.6 8H115l-4.6-8h-.1l.1 2.4v8.6h-1.7z"/><path id="path3913" fill="#767676" d="M128.3 54.2c-1 0-2-.3-2.6-.9-.7-.7-1-1.4-1-2.4 0-1.1.5-2 1.3-2.5.8-.7 1.9-.9 3.1-.9 1.1 0 2 .2 2.7.7v-.3c0-.7-.3-1.3-.7-1.8-.5-.5-1.1-.7-1.9-.7-.6 0-1 .1-1.5.4-.5.3-.7.7-.9 1l-1.7-.7c.2-.6.7-1.1 1.4-1.7.7-.6 1.6-.7 2.7-.7 1.3 0 2.3.4 3.2 1.1.8.7 1.3 1.8 1.3 3.2v6h-1.8v-1.3h-.1c-1 .7-2 1.5-3.5 1.5zm.5-1.9c.7 0 1.5-.3 2.1-.8.7-.6.9-1.2.9-2.1-.6-.5-1.3-.7-2.3-.7-.9 0-1.6.2-2.1.6-.5.4-.7.8-.7 1.4 0 .5.2.8.7 1.1.3.5.7.5 1.4.5z"/><path id="path3915" fill="#767676" d="M140.8 54.2c-.7 0-1.4-.2-2.1-.5-.6-.4-1-.7-1.3-1.2h-.1l.1 1.4v4.4h-1.9V43.9h1.8v1.4h.1c.3-.5.7-.8 1.3-1.2.7-.4 1.3-.5 2.1-.5 1.3 0 2.3.5 3.3 1.5.9 1 1.4 2.2 1.4 3.7s-.5 2.8-1.4 3.7c-.8 1.1-2 1.7-3.3 1.7zm-.3-1.9c.8 0 1.6-.4 2.2-1 .7-.7.9-1.5.9-2.6s-.3-2-.9-2.6c-.7-.7-1.4-1-2.2-1s-1.6.4-2.2.9c-.7.7-.9 1.5-.9 2.6s.3 2 .9 2.6c.6.8 1.3 1.1 2.2 1.1z"/><path id="path3917" fill="#767676" d="M151 54.2c-1.1 0-2.1-.3-2.7-.8-.7-.6-1.2-1.2-1.6-2.1l1.7-.7c.6 1.2 1.4 1.9 2.7 1.9.6 0 1-.1 1.4-.4.4-.3.6-.6.6-1 0-.7-.5-1.1-1.4-1.3l-2-.5c-.7-.2-1.2-.5-1.8-.9-.6-.5-.8-1-.8-1.9s.4-1.6 1.1-2.2c.7-.6 1.7-.8 2.8-.8.8 0 1.7.2 2.3.7.7.4 1.2.9 1.5 1.7l-1.6.7c-.4-.8-1.1-1.3-2.2-1.3-.6 0-1 .1-1.4.4s-.6.6-.6.9c0 .6.5.9 1.3 1.1l2 .5c.9.2 1.6.6 2.1 1.1.5.6.7 1.1.7 1.8 0 .8-.4 1.7-1.1 2.2s-1.8.9-3 .9z"/><path id="path835_1_" fill="#34A853" d="M10.5 51.8c.8 1.1 1.8 2.5 2.2 3.4.6 1.1.8 1.9 1.2 3.2.3.7.5.9 1 .9s.8-.4 1-.9c.4-1.3.7-2.2 1.1-3.2.9-1.7 2.2-3.3 3.4-4.8.3-.4 2.4-2.8 3.4-4.8 0 0 1.1-2.2 1.1-5.1 0-2.8-1.1-4.7-1.1-4.7l-3.3.8-2 5.2-.5.8-.1.1-.2.2-.2.3"/><path id="path833_1_" fill="#FBBC04" d="M5.9 45.4C7 47.8 9 50 10.4 51.9l7.4-8.8s-1 1.4-2.9 1.4c-2.2 0-3.8-1.7-3.8-3.8 0-1.5.8-2.4.8-2.4"/><path id="path831_1_" fill="#4285F4" d="M18 31c2.4.8 4.6 2.4 5.9 5l-6 7s.8-1 .8-2.4c0-2.2-1.9-3.8-3.8-3.8s-3 1.4-3 1.4"/><path id="path829_1_" fill="#1A73E8" d="M7.3 34.1c1.5-1.8 4-3.6 7.7-3.6 1.7 0 3.1.5 3.1.5l-6 7.1"/><path id="path827" fill="#EA4335" d="M5.9 45.4s-.9-2-.9-4.8c0-2.6 1-5 2.3-6.5L12 38l-6.1 7.4z"/></g><path id="airbnb-logo-small" fill="#FF5A5F" d="M24.7 19.1c-.2-.3-.3-.6-.5-1-.2-.5-.5-1-.6-1.3l-.1-.1c-1.9-4-3.9-8.2-5.9-12.2l-.1-.2c-.2-.5-.5-.8-.6-1.3-.3-.5-.5-1-1-1.4-.8-1-2.1-1.6-3.4-1.6S10 .6 9.1 1.6c-.5.5-.7 1-1 1.4-.2.5-.5.9-.6 1.4l-.1.1c-2.1 4-4.1 8.2-5.9 12.2v.1c-.2.5-.5.9-.6 1.3-.2.3-.3.6-.5 1-.4 1-.5 2-.3 2.9.3 2.1 1.6 3.7 3.5 4.5.6.4 1.3.5 2.1.5h.7c.9-.1 1.8-.5 2.7-.9 1.1-.6 2.2-1.5 3.3-2.8 1.2 1.3 2.2 2.2 3.3 2.8.9.5 1.8.8 2.7.9h.8c.7 0 1.5-.2 2.2-.5 1.9-.7 3.2-2.5 3.5-4.5.2-1 .1-1.9-.2-2.9zm-12.2 1.5c-1.4-1.8-2.4-3.6-2.8-5-.2-.6-.2-1.2-.1-1.6.1-.5.2-.8.5-1.1.5-.7 1.3-1.2 2.4-1.2s1.9.5 2.4 1.2c.2.3.4.7.5 1.1.1.5.1 1.1-.1 1.6s-.3 1.1-.6 1.7c-.6.9-1.3 2.1-2.2 3.3zm10.9 1.2c-.1.2-.2.5-.3.7-.2.5-.4.7-.6 1.1-.2.2-.4.5-.5.5-.1.1-.3.2-.5.3-.2.1-.3.2-.5.3-.1.1-.2.1-.3.1-.3.1-.5.2-.7.2-.2.1-.4.1-.5.1h-.3c-.2 0-.4 0-.5-.1-.6-.1-1.2-.3-1.8-.5-.1-.1-.2-.1-.3-.2-.6-.3-1.3-.7-1.9-1.3-.2-.2-.5-.4-.6-.5l-.6-.6c.1-.2.2-.3.3-.5.2-.3.5-.5.6-.8.1-.2.2-.3.3-.5.2-.3.4-.5.5-.7.7-1.3 1.3-2.5 1.6-3.6.2-.8.2-1.6.2-2.2-.1-.6-.4-1.3-.7-1.8-.8-1.3-2.2-2-3.9-2s-3 .7-3.9 2c-.2.6-.4 1.2-.5 1.9-.1.7-.1 1.4.2 2.2.5 1.8 1.5 3.9 3.2 6-.3.3-.5.6-.8.9l-.7.7c-.5.5-1 .7-1.4 1.1-.7.5-1.3.6-2.1.7-.7.1-1.4-.1-2.1-.3-1.3-.5-2.2-1.8-2.4-3.1-.1-.6-.1-1.3.3-2.1.1-.3.2-.5.4-.9.2-.5.5-.9.6-1.3l.1-.1c1.4-3 2.9-6 4.4-9.1.5-1 1-2.1 1.5-3l.1-.2c.2-.5.5-.8.6-1.3.2-.5.5-.8.7-1.2.5-.6 1.3-1 2.2-1 .6 0 1.3.2 1.7.5.1.1.2.2.3.2l.2.2c.3.4.5.7.7 1.2s.5.8.6 1.3l.1.2c.5 1 1 2.1 1.5 3 .5 1 1 2.1 1.5 3 1 2.1 2 4 2.9 6v.1c.2.5.5.9.6 1.3.1.2.1.3.1.4.1.2.1.4.2.5s.1.2.1.2c.1.2.1.4.2.5.1.2.1.4.1.5-.2.6-.1.7-.2 1z"/><g id="lipari-logo"><g opacity=".75" fill="#FFF"><path d="M133.1 195.4c1.8.8 3.3 1.5 4.7 2.1 4.3 1.8 8.6 3.7 13.4 3.9 2.4.1 4.8.3 7.2.2 2.3-.2 4.7-.6 7-1.1 5.1-1.1 10.1-2.3 15.2-3.7 2.7-.7 5.3-1.8 7.9-2.7 3.2-1.1 6.4-2.1 9.5-3.2 3.4-1.2 6.7-2.7 10.1-3.5 4.4-1 6.3-4.6 8.8-7.6 1.4-1.7 2.6-3.7 3.9-5.6.4-.1.2-.6.4-.9 1.8-2.8 3.6-5.4 5.3-8.2.6-.9.6-2.1 1-3.7-.9.4-1.2.5-1.5.7-2.3 1.5-4.6 2.7-6.8 4.4-2.2 1.7-5.2 2.3-7.7 3.6-4.1 2.1-8.1 1.7-12.2.4-1.6-.5-3.5-1.2-5-.9-3.2.7-6.4 2.1-9.5 3.2-3.6 1.3-7.2 2.4-10.9.6-1-.5-2.2-.9-3.2-.7-2.5.6-4.9 1.5-7.3 2.2-2.6.8-5.3 2.1-7.9 2.2-3.4.2-6.9-.3-10.3-.8-1.7-.3-3 .3-4.1 1.2-3.5 3-6.9 6.1-10.4 9.2-1.6 1.4-3 3-4.4 4.4.9 1.1 1.5 1.9 2 2.6 1.3.2 1.7.4 2.6 1l.7.2c.5.1.8 0 1.5.5z"/><path d="M131.6 198.3s-2.1-.8-3.2-1.3c-3.4-1.8-6.4-3.6-9.5-5.1-4.5-2.1-9.1-4.3-13.8-6.1-4.8-1.8-9.7-3.3-14.8-3.7-9.5-.7-19-1-28.5 0-5.5.6-10.8 1.8-16.3 2.7-1.8.3-3.7.6-5.4.9l-.9.4c-3.2.8-6 1.4-8.8 2.2-3 .9-6 2-9 3.1-1.3.5-2.6 1.1-3.9 1.7-.5.3-1 .6-1.6 1 .4.5.7 1.2 1.2 1.3 2 .7 4 1.1 6.1 1.7 3.5 1 6.9 2.2 10.1 4 1.6.9 3.5 1.4 5.3 2.1 3.7 1.3 7.3 2.9 11.1 3.8 3.7.8 7.5.8 11.3 1.1 1.9.1 3.9.4 5.6 0 1.9-.5 3.4-.2 5 .6 4.8 2.4 8.5 6.2 12.4 9.7 2.6 2.4 4.9 5 7.4 7.5 3.2 3.2 6.5 6.3 10.5 8.5 3.7 2.1 7.6 3.5 12 2.7 1.1-.2 2 .1 2.9 1.1 2.8 2.8 6 4.7 10.1 4.7 6.1.1 10.6-3 14.5-7.2 2-2.2 3.9-4.4 5.9-6.6.6.5.7.5.7.6.2.3.3.7.5 1 1.1 3.2 3.1 5.8 5.4 8.2 3.6 3.7 8.2 4.9 13.1 5.8 2 .4 3.7.5 5-1.5 1.9-2.9 3.9-5.9 7.6-7.1 2.3-.7 4.6-1.9 7-2.1 4.9-.4 9.6-1.2 13.3-4.4 2.2-1.9 4.8-3.1 7.4-3.8 3.5-1 6.7.3 9.4 2.7 2 1.8 5.9 2.3 8.3 1.2 2.7-1.3 5.1-3.1 8.2-3.6 2.3-.4 4.4-1.5 6-3.4.9-1.1 1.8-2.3 2.9-3.1 2.4-1.7 5.1-2.5 8.1-2.1 2.3.3 4.5.5 6.8.5 5.2.1 9.2-2.7 12.5-6.4 3-3.3 6.5-5.1 11-5.1 2.3 0 4.5-.7 6.5-3-1.5-.5-2.8-.7-3.8-1.3-4.2-2.4-8.3-4.8-12.3-7.4-4.9-3.2-9.8-6.4-15.3-8.6-5.9-2.4-11.8-2.1-17.8-1.7-2.8.2-5.5.7-8.2 1.2-4.8.9-9.7 1.7-14.5 2.8-2.3.5-4.5 1.5-6.8 2.2-2.3.7-4.6 1.3-6.8 2-1.8.6-3.6 1.6-5.5 2-3.4.8-6.6 2.1-9.9 3.2-3.4 1.1-6.8 2.4-10.3 3.3-3.7 1-7.4 2-11.2 2.6-3.6.6-7.4 1.1-11 1-5-.1-10-.9-14.7-3-2.1-.9-4.3-1.9-6.2-2.7l-1.1-.8z"/><path d="M70 81.1c3.3 3.5 5.8 7.7 10.9 8.4 2.6 8.9 7.7 12.5 11.9 14.1.5 1.6.8 3.5 1.5 5.1.8 1.9 1.7 3.9 3 5.5 2.1 2.6 5.4 2.3 8.3 2.2 4.4-.2 4.7-.6 4.1 4.3-.4 3.3-1.1 6.5-1.5 9.8-.5 3.7-.8 7.4-1.1 11.1-.3 3.2-.6 6.4-.7 9.5-.1 2.3-.1 4.7 0 7 .4 7.3.8 14.5 1.2 21.8.1 1.9-.9 2.9-2.8 2.4-4-1.1-8.1-1.9-12-3.2-2.1-.7-4.2-1.8-6-3.1-3.3-2.4-6.5-4.8-9.5-7.6-4.4-4-8.7-8.1-12.1-13-2-2.9-4.3-5.7-6-8.8-2-3.7-3.8-7.7-5.3-11.7-1.2-3.2-2.2-6.4-2.8-9.8-.8-4.5-1.2-9.2-1.6-13.8-.2-1.6 0-3.2 0-4.8-.2 0-.5 0-.7-.1-.2 1.2-.5 2.3-.5 3.5.3 5.2.5 10.4 1.1 15.6.8 6 2.5 11.7 5 17.3 2.7 6.2 6.1 12.1 10.2 17.3 3.1 4 7 7.4 10.6 10.9 1.5 1.4 3.2 2.5 4.8 3.8.8.7 1.7 1.3 2.5 2-2.3 2.5-4.8 1.6-7.1 1.8-2.9.3-5.7.3-8.6.4-1.4.1-2.7.1-4.1.2-3.6.3-7.2.6-10.9.9-1.5-2.8-2.8-5.7-4.5-8.2-1.2-1.7-2.9-3.2-4.6-4.4-1.8-1.3-2.1-2.8-1.7-4.7.6-3 .3-3.4-2.3-4.8-2.3-1.2-4.4-2.5-4.8-5.6-.2-1.2-1.2-2.4-2.1-3.3-2.1-2.1-2.5-4.5-1.6-7.2.8-2.6 1.9-5.1 1.2-7.9-.3-1.3-.8-2.7-1.7-3.7-2.7-3.2-4.1-6.5-2.9-10.8.7-2.7-.1-5.1-1.6-7.4-1.3-2.2-2.5-4.4-3.7-6.7-.3-.5-.4-1.2-.4-1.8-.3-7.4-.3-14.8 1.5-22.1 1.7-6.8 3.6-13.6 7.8-19.4 2.3-3.2 5.3-6 7.9-9 3.9-4.5 7.7-9 11.6-13.4 2.7-3.1 5.4-6.5 9.9-6.8 2.2-.2 4.6.4 6.8 1 2.7.8 4.9 3.3 8.2 3.1-.2-2.6-.4-5.2-.6-7.7-.2-3.3 1.7-6 5-6.2 3.8-.2 5.1-3.1 6.5-6 .8-1.6 1.9-3.2 3.1-4.5 2.6-3 6.2-2.9 9.7-2.7 4 .2 8 .8 12 .9 3.6.1 6.7-1.6 9.8-3.1 3.8-1.9 7.7-2.9 11.9-2.8 6.1.1 11.8 1.5 17.4 3.7 5.4 2.1 11 3.6 16.9 3.6 2.9 0 6 .4 8.8 1.3 2.5.8 4.8 2.5 7.1 3.8.7.4 1.3 1 2 1.4 4.9 2.7 8.1 6.8 10.7 11.5-1 .6-1.9 1.2-3.1 1.9h-1.3c-2.5 1.5-4.7 2.9-7.5 3.1-5.2.4-10.1 2.1-14.2 5.5-1 .8-1.6 2.1-2 3.3-.9 2.6-2.9 4.2-5.2 5.3-4.5 2.3-9.3 2.7-14.3 2.2-2.8-.3-5.7.8-8.3 2.6-2.5 1.7-5.2 2.9-7.9 4.3-.8.4-1.9.5-2.5 1-1.5 1.4-2.9.6-4-.3-3.1-2.7-6.7-4.2-10.7-4.9-3.1-.5-6.2-1.6-9.3-1.6-5.9-.1-11.6 1.3-16.7 4.4-3.7 2.2-7.3 4.5-9.7 8.1-1.9 2.8-3.3 6-4.9 9-1.3 2.4-2.3 4.6-3.5 7z"/><path d="M259.1 92.3c-.5-7.1-.5-7.1-3.6-10.8-3.5 2.8-6.4 1.5-9.1-1.5-.9-1-2.1-1.8-3.2-2.6-.7-.4-1.5-.5-2.3-.7-1.4-.4-2.9-.6-4.3-1.1-1.4-.6-1.5-1.9-1-3.2 1.2-3.2.6-5.6-2.2-7.7-1.1-.8-1.8-2.3-2.3-3.6-1.2-3.2-3.1-5.5-6.1-7.2-3.3-1.8-6.4-3.8-9.5-5.9-.8-.5-1.5-1.4-2-2.2-2.3-4.3-5-8.1-8.9-11.1-1.3-1-2.6-1.8-4.2-2.2-1.4-.4-2.1-1.5-2.9-2.8-1.9-2.9-4.3-5.5-6.6-8.2-2.5-3-5.9-4.6-8.9-6.8-2.8-2-6-2.7-9-4-.8-1.5.1-2.4 1.1-3.1 4.8-3.8 10.2-5.6 16.3-4.2 2.7.6 5.3.2 7.9-1C203.4.2 208.9-.3 214.4.3c6.5.7 12.9 1.8 19.3 2.6 3.6.4 7.3.6 10.9.9 2.9.3 5.4 1.5 7.3 3.8.9 1.1.8 3.6-.2 4.8-.7 1-1.3 2-2 3 3.6 1.2 6.9 2.6 10.3 3.4 1.7.4 3.7-.2 5.5-.4 5.1-.5 9.8.7 13.5 4.2 1.4 1.4 2.2 3.5 3.6 4.9 1.8 1.9 4 3.4 5.9 5.3 1.1 1.1 1.9 2.6 2.5 4 1 2.6 2.1 5.1 3.8 7.4 1.2 1.6 1.8 4 1.7 6-.2 3.6.9 6.7 2.3 9.7 2.7 5.9 5.4 11.9 6 18.5.1 1.2 0 2.4-.2 3.6-.3 3.1.9 5.8 1.6 8.7.9 3.8.8 7.9.9 11.9.2 4.3-2 7.7-3.7 11.4-1.2 2.5-2.2 5.2-2.7 7.9-.3 1.6.5 3.5.8 5.3.5 3.4 1.2 6.8 1.3 10.2.1 6-1.7 11.4-5.3 16.3-2.2 3-5.1 4.9-8.4 6.5-2 1-3.7 2.4-4.6 4.5-1.3 3-3.1 5.3-6.4 6.5-3.7 1.3-6.7 3.6-8.7 7.3-1.3 2.4-2.8 4.9-5.5 5.9-.9.4-2.2.6-3 .2-4.4-2.1-8.9-3.6-13.7-3.6-4.6 0-9.2.6-13.8.9-3.1.2-6.2.5-9.2.9-1.5.2-3 .5-5.2.9.6-1.3.8-2.3 1.3-3 2.2-3.4 4.6-6.6 6.6-10 2.3-3.8 4.1-8 6.5-11.7.9-1.3 3-2 4.7-2.6 3.8-1.5 7.8-2.6 11.5-4.2 1.8-.8 3.3-2.4 5.1-3.4.8-.5 1.8-.7 2.8-.7 3 0 5.9-.1 8.6-1.4 1.2-.6 2.5-1.1 3.4-2.1 2.3-2.4 5.4-3.4 8.3-4.9 3.6-1.8 4.5-3.7 3.8-7.7-.1-.7.2-1.4.3-2 2.2-.2 4.4-.2 6.3-.7 4.3-1.1 5.9-6.6 3-10.1-1.1-1.4-1.8-3.2-3-4.4-5.5-5.5-11.6-10.3-18.1-14.6-3.7-2.6-7.3-5.3-11-7.9zm-145.2 22.5c6.8 1.2 13.1 2 18.9 5.5 3.1 1.9 6.7 3 10.2 4 3.2 1 6.6 1.4 10 1.9 5.1.8 9.7 3.2 14.2 5.5 4.4 2.2 8.1 5.5 11.6 8.9 2.4 2.3 4.7 4.7 7 7.1-.2.5-.5 1.1-.8 1.8-2.6.8-5.4 1.3-7.9 2.4-7 3.1-13.9 6.4-20.4 10.6-4.7 3-9.1 6.4-13.4 9.9-.5.4-1 .8-1.6 1.1-4.2 1.9-7.1 5.6-10.5 8.5-2.5 2.2-4.8 4.6-7.3 6.8-.6.5-1.8.8-2.5.5-2.4-1-4.5-2.8-7-3.4-3.5-.9-3.4-3.7-3.6-6.1-.6-5.8-1.4-11.6-1.3-17.4 0-9.1.6-18.2 1.1-27.3.3-4.7 1-9.5 1.7-14.2.4-1.9 1-3.9 1.6-6.1z"/><path d="M239.9 101.7c-.1-1.3 0-2.7-.3-3.9-1.2-4.2-.3-7.8 2.6-11.1.8-.9.8-2.4 1.3-4.1 1 .3 2.1.4 2.7 1 2 1.9 4.1 3 7 2.3.9-.2 1.9.5 2.9.9v6.9c3.9 2.8 8 5.6 12 8.5 1.5 1.1 2.9 2.2 4.4 3.4 4 3.3 8 6.4 11.8 9.9 1.8 1.7 3.3 3.8 4.4 6 1.4 2.9 0 4.8-3.2 4.8-2.7 0-5.4-.1-8.2-.1-.4 0-.8.2-1.7.5 1.1 2.5 2.1 4.9 3.1 7.4-1.1 2.3-3.4 3.3-5.6 4.4-1.9 1-3.8 2.2-5.4 3.6-1.9 1.7-4.2 2.4-6.5 2.8-1.7.3-3.4-.3-5.2-.4-.8 0-1.8.2-2.3.7-2.9 2.9-6.2 5.1-10.3 6.2-2.1.6-4.1 1.7-6.2 2.4-1.9.7-4 1.1-5.9 1.8-2.1.8-4 1.9-6 3-5 2.9-9.8 6-14.9 8.7-3.4 1.8-7.1 1.5-10.5 0-4.2-1.8-7.8-.5-11.6 1-3.9 1.4-7.7 3.5-12.1 2.8-1-.2-1.9-1-2.9-1-2.1 0-4.2-.1-6.2.4-2.7.7-5.3 2.1-8 2.8-3.2.8-6.4 1.8-9.9.5-.1-.6-.1-1.2-.2-1.7 1.2-1 2.4-2 3.5-2.9 4.7-3.8 9.9-6.7 15.2-9.5 6.7-3.6 13.8-6.1 21.1-7.8 6.6-1.6 13.5-2.4 20.2-3.7 3.1-.6 6.6.4 9.4-1.6 2.4-1.6 4.5-3.7 6.8-5.3 2.8-2 5.8-3.6 8.7-5.6 2.4-1.7 4.8-3.4 7.1-5.3 2.5-2 5-4 7.2-6.3 4.2-4.4 4.8-10.2 2.3-15.4-2-4.5-4.5-6.1-10.6-7z"/><path d="M126 104.9c-1.1 1.7-2.2 1.7-3.5 1.3-2.9-.7-6.3-1.8-9.1-2.8-.9-.3-4.2-.8-7.1-6-2.7-4.7-4.9-12.5-6-17.4.7 9.1 5 18.6 8.2 21.5 2.7 2.4 8.6 5.5 11.9 6.7 1.8.6 3.8.4 5.7.6.6.1 1.2.2 1.7.6 4.8 4.2 9.9 7.7 16 9.7 2 .6 4.3.9 6.4.9 7.5-.2 14.3 2.2 20.7 5.8 2.7 1.5 4.9 4 7.4 5.9 1.6 1.3 3.4 2.4 5 3.7 4 3.1 7.9 6.2 11.7 9.3-.8 2.7-3.4 3.6-5.2 1.9-2.3-2.1-4.4-4.4-6.6-6.5-1.6-1.5-3.4-2.9-5-4.4-.8-.7-1.6-1.5-2.4-2.2-4.3-3.4-8.9-6.1-14.1-7.8-2.1-.7-4.2-1.5-6.3-2-2.3-.5-4.7-.8-7-1-4.3-.4-8.1-2.2-11.9-4-4.4-2.1-8.6-4.7-13.6-5.4-5.1-.7-10.1-.8-15.2.1-2.3.4-4.8-.1-7.2-.4-.7-.1-1.5-.9-2-1.5-1.9-2.9-2.7-6.2-2.4-9.7-2-.9-4-1.8-5.9-2.8-3.2-1.9-5.1-4.9-6.2-8.4-.6-2.1-1-3.9-3.8-4-2.8-.2-6.4-4.6-6.6-6 1.1-3 1.6-5.3 2.6-7.2 1.6-3.1 2.6-6.5 5.6-8.7 1.7-1.3 3.3-2.8 5-4.1 3.9-2.9 8.2-4.9 13.1-5.1 4.2-.2 8.5-.5 12.6.3 3.8.7 7.6 2.4 10.6 5.3.9.9.9 1.6.4 2.8-.9 2.4-1.4 4.9-2.3 7.3-.5 1.3-1.5 2.3-2.3 3.5-2.3 3.6-3.4 7.2-.9 11.2.7 1.1.8 2.6.8 4-.1 3.8.5 7.3 3.3 10.1 1.3 1.6 2.6 3.3 3.9 4.9zm105.2-30c.7 2.2 2.4 2.8 4.2 3 2.1.2 3.4 1.5 4 3.2.6 1.5 1.2 3.2-.4 5-1.5 1.5-2.2 3.8-3.2 5.7-.2.4-.1 1.1.1 1.6 1.7 4.7.6 9.1-1.9 13-1.6 2.5-3.9 4.6-6 6.7-.5.5-1.4.7-2.2.7-4.9.3-9 3.2-13.4 4.9-2.6 1-5.2 2.3-7.8 3.5-3.9 1.9-8.1 2.3-12.3 2.8-2 .2-4.1.1-6-.3-.7-.1-1.1-1.5-2-2.7 4.8-1.3 9.1-2.1 13.1-3.5 7.7-2.6 16-8.5 17-18.4.1-1.4-.2-2.9-.1-4.3.1-1.3.2-2.7.7-3.9.9-2.4 1.5-4.6.1-7.1-.9-1.6-1.1-3.7-1.3-5.6-.3-3.3-.2-6.8-2.5-9.4-4-4.5-8-9.2-14.8-9.2-3.1 0-5.8-1.3-8.2-3.2-4.1-3.3-9-4.9-13.7-7.1-.6-.3-1.2-.7-1.9-1.1-1.2.6-3.4 0-4.8-1.6.7-4.2 3.5-6.8 7.4-7.6 5.8-1.3 11.3-3 16.9-4.9 3.6-1.2 7.5-.7 10.7 1.1 3.4 1.9 5.6 5.3 7.4 8.9 1.1 2.2 1.8 4.7 4.6 5.6 1.1.3 1.6 1.6 3 2.1 2.2.7 4.2 2.4 6.2 3.6 3 1.8 4.7 4.7 5.5 7.9.5 1.7 1.7 2.4 2.8 3.3 1.3 1.2 1 2.4.5 3.7-.5 1.2-1.2 2.5-1.7 3.6z"/><path d="M212.5 88.7c-3.2-2.1-6.1-3.7-8.6-5.7-1.1-.9-1.8-2.4-2.4-3.8-1.3-2.8-3.7-4.3-6.1-5.8-2.2-1.3-4.4-2.8-6.6-4.1-1.3-.7-2.7-1.4-4-1.5-2.4-.2-4.2-1.3-6.1-2.6-2.5-1.8-5.1-2.5-8.2-1.5-1.8.5-3.8.4-5.7.2-6-.7-10.9 1.2-15.1 5.5-.8.8-1.3 1.9-1.6 3-.7 2.5-1.6 4.8-3.2 6.9-1.1 1.4-1.3 3.4-2 5.2-.2.5-.4 1.1-.8 1.5-1 1.6-1.3 3.2-.8 5.1.5 1.8.7 3.7.7 5.5 0 .7-.8 1.4-1.4 2.5-1.3-2.1-6-7.5-9.3-19.5-.2.9 2.2 10.2 5 15.1 2 3 3.8 6 6.2 8.7 1.5 1.7 4 2.6 5.5 4.4 2.6 2.9 5.9 4.2 9.4 5.4 4.6 1.5 9.2 2.9 13.6 4.8 3.3 1.4 6.5 3.3 9.2 5.6 1.6 1.4 3.8 3.2 3.3 6.1-1.2.4-2 .3-3.1-.6-2.4-1.9-4.5-4.2-7.4-5.7-4.5-2.5-9.1-4.6-14-5.7-3-.6-6.2-.6-9.3-.9-3.5-.3-6.8-1.2-9.9-3-2.7-1.6-5.5-3.2-8.2-4.9-.7-.5-1.5-1.4-1.7-2.2-.8-2.7-2.4-4.8-4.3-6.9-1.4-1.6-2.7-3.3-3.8-5.1-.6-1.1-1.1-2.7-.9-3.9.6-2.8-.1-5.1-1.6-7.4-1.5-2.3-1-5.1.5-7 1.1-1.4 2.4-2.8 3.1-4.4.8-2 1.1-4.3 1.8-7.1 1.9-1.3 4.1-3.6 6.8-4.4 3.8-1.2 6.7-3.6 10-5.4 1.9-1 4.5-1.1 6.8-1.3 2.7-.2 5.4 0 8-.2 1.3-.1 2.6-.6 3.9-1 6.3-2.1 12.2-.9 18.2 1.7 3.1 1.3 5.6 3.4 8.6 4.8 1.5.7 2.8 1.9 4.2 2.7.8.4 1.9.7 2.8.7 2.5-.2 4.7.7 6.9 1.6 4.2 1.6 6.6 4.8 8.7 8.5.6 1.1.8 2.4 1 3.7.6 3.1 1 6.2 1.5 9.2.4 1.1.3 2.1.4 3.2z"/><path d="M193.9 82.1h-9.2c-3-.1-6.1-.6-9-.2-3.5.4-6.7 1.8-9.8 3.7-4.7 2.8-7.4 7.1-9.9 11.7-.5.9-.9 1.7-1.4 2.5-1.3 2-3.6 2.7-5.7 3.1-1.7.3-2.5-1.4-2.9-2.8-.6-1.8-.7-3.6-1.1-5.5-.3-1.4-.3-2.9-.8-4.2-.7-1.9 0-3 1.3-4.3.6-.6 1-1.6.9-2.4-.2-1.6.2-2.8 1.3-4 .9-1 1.6-2.4 1.7-3.7.2-2.6 1.3-4.3 3.3-6 3.1-2.8 6.6-4 10.7-4 2.5 0 5 .1 7.4-.3 3.8-.6 6.4 1.1 9.1 3.4.9.8 2.3 1.3 3.4 1.2 2.7-.2 4.4 1.4 6.4 2.7 1.9 1.2 4 1.9 5.8 3.2 1.3.9 2.3 2.3 3.2 3.7.2.2-.6 1.6-1.2 1.8-1.1.4-2.3.3-3.5.4 0 .1 0 0 0 0z"/><path d="M151.4 104.8c2.2-.9 4.5-2 6.8-2.8 3.6-1.1 7.2-2.1 10.8-2.9 1-.2 2.5.4 3.2 1.1 3.3 3.4 6.9 6.1 11.6 7 4.5.9 9.1 1.5 13.6-.1 3.6-1.3 6.9-3 7.8-7.5.8-3.6-2-7.3-4.9-8.7-2.8-1.3-5.7-.8-8.6-.7-1.5.1-3 .2-4.5.1-1.1-.1-2.1-.4-3.1-.7.2-2.8 1.3-3.7 4.3-4.5 4-1.1 7.9-.7 11.8.1 2.5.5 5.3 1.5 7.1 3.2 2.8 2.8 4.5 6.4 4 10.7-.8 7.3-5.4 11.7-11.4 14.6-3.5 1.7-7.4 2.5-11.2 3.6-2 .6-4.1 1.4-6.2 1.8-1.1.2-2.5.1-3.4-.5-4.5-2.7-9-5-14.2-6.1-1.9-.4-3.7-1.3-5.6-2-2-.7-4-1.4-6-2.3-1.2-.2-2.5-1.2-1.9-3.4zm53.5 39.5c1.2-1.5 2.2-2.8 3.1-4 5-6.2 9.2-12.9 12.1-20.4.7-2 2.3-2.9 4.3-2.8 2.5.2 4.2-.9 6.1-2.5 2.5-2 4.7-4.1 6.4-6.8 1-1.6 1.8-3.3 4.3-2.8 1.9.3 3.4.9 4.8 2.4 3.3 3.6 3.9 9 1.1 13.1-2.1 3.1-4.9 5.5-8 7.6-3.6 2.4-7.1 4.9-10.6 7.4-3 2.1-5.7 4.5-8.9 6.3-2.6 1.5-5.1 3.6-8.6 3-1.2-.2-2.6.3-3.9.3-.6-.2-1.2-.5-2.2-.8zm10.5-21.8c-1.4 2.5-2.6 5.1-4.1 7.6-2.1 3.4-4.2 6.9-6.8 9.7-1.6 1.7-2.6 4.9-5.8 4.1-3.1-2.6-6.2-4.9-8.9-7.5-1-.9-1.2-2.7-1.6-4.2-.8-3.5-.7-3.3 2.8-3.8 4.5-.7 9-1.5 13.4-2.7 2.8-.8 5.4-2.3 8.1-3.4.7-.3 1.6-.3 2.4-.5.2.2.4.4.5.7z"/><path d="M172.9 95.2c5.5-.6 10.6-1.1 15.7-1.6 2-.2 4.1-.8 6.1-.6 2 .2 4.2.2 6 1.9 1.8 1.7 2.2 3.7 1.1 5.9-1.5 2.9-4.3 3.6-7 4.1-6.5 1.3-12.5-.2-17.8-3.9-1.6-1.1-2.7-3.1-3.9-4.8-.4-.3-.2-.9-.2-1zm8.4-11.1c-.1 1.1-.1 1.8-.2 2.6-.1.9-.3 1.8-.2 2.7.1 1.9-.6 2.7-2.6 2.6-2.5-.1-4.9-.2-7.4-.1-1.4 0-2.1.7-2.2 2.4 0 .9-.9 2.2-1.7 2.5-2.1.7-4.4.9-6.7 1.3-.2 0-.5-.1-.8-.1-.8-2.4 1-3.9 2.1-5.4 3.6-5 8.9-7.2 14.6-8.5 1.6-.3 3.2 0 5.1 0z"/></g><path fill="#424242" d="M59.8 96.6c-.9 3.3-4 12.2-5.5 14.8-2.7.7-10.1 2.3-17.1 2.3C11.7 113.7 0 95.5 0 78.8c0-21.6 15.7-35.2 38.9-35.2 8.3 0 14.5 1.7 17.8 2.1.6 4.8.9 10.4 1.6 14.6l-1.6.3c-1.9-6.2-3.3-10.5-9.1-13-2.9-1.3-7.7-1.7-11.6-1.7-18.2.2-27.1 14.8-27.1 31 0 19.5 10.3 34.2 28.7 34.2 11.6 0 16.2-6.5 20.6-15.2l1.6.7zm45 10.2c-1 .7-1.9 1-3.2 1-2 0-3.8-1.6-3.8-6.7 0-6.2.1-12.3.1-18.4 0-5.5-1-9.4-4.5-12.6-2-1.6-4.8-2.4-7.5-2.4-4.2.9-11.5 4.9-14.2 6.9-1.7 1.3-2.4 2.1-2.4 3 0 2 2.2 3.7 3.7 3.7.4 0 1.6-.1 2-1.6.7-2.4 1.6-5.1 2.7-6.2 1.1-1.3 2.9-1.9 4.8-1.9 5.5 0 9.1 4.8 9.1 12.2v3C88.8 88.7 81.5 91 76 93c-4.8 1.6-7.4 4.5-7.4 9.1 0 5.5 4.5 11.3 11.4 11.3 2.3 0 7.7-4.1 11.5-6.7.4 2.4 1.3 3.4 2.3 4.7 1.6 1.4 3.2 2 4.7 2l7.1-5.2-.8-1.4zm-13.6-2.2c-2.2 2.4-5.5 3.7-8.1 3.7-3.7 0-7.5-2.7-7.5-7.7 0-3.8 2.4-5.5 6-6.9 2.7-1.3 8.1-3.3 9.8-4.5 0 5-.2 10.4-.2 15.4zm43.4-25c-1.6-6.7-5.5-9.5-10.1-9.5-4.5 0-7 2.3-7 6.8 0 5.1 3.7 7.2 8.5 9.8 7.3 3.7 11.5 6.9 11.5 13.2 0 8.7-7.7 13.5-15.1 13.5-4.2 0-8.4-1.3-10.1-2-.4-1.3-1.7-8.1-2-11l1.3-.4c1.6 5.9 5.7 11.2 12.4 11.2 4.8 0 7.7-2.7 7.7-7.4 0-4.9-3-7.5-8.1-10.2-6-3.3-11.5-6.5-11.5-13.5-.1-6.9 5.8-12.3 14.2-12.3 4 0 7 .9 8.7 1 0 2 1 8.7 1.3 10.4l-1.7.4zm47.2 27.2c-.9.7-1.9 1-3.2 1-2 0-3.8-1.6-3.8-6.7 0-6.2.1-12.3.1-18.4 0-5.5-1-9.4-4.5-12.6-2-1.6-4.8-2.4-7.5-2.4-4.2.9-11.5 4.9-14.2 6.9-1.7 1.3-2.4 2.1-2.4 3 0 2 2.2 3.7 3.7 3.7.4 0 1.6-.1 2-1.6.7-2.4 1.6-5.1 2.7-6.2 1.1-1.3 2.9-1.9 4.8-1.9 5.5 0 9.1 4.8 9.1 12.2v3c-2.7 1.9-10 4.1-15.5 6.1-4.8 1.6-7.4 4.5-7.4 9.1 0 5.5 4.5 11.3 11.4 11.3 2.3 0 7.7-4.1 11.5-6.7.4 2.4 1.3 3.4 2.3 4.7 1.6 1.4 3.2 2 4.7 2l7.1-5.2-.9-1.3zm-13.5-2.2c-2.2 2.4-5.5 3.7-8.1 3.7-3.7 0-7.5-2.7-7.5-7.7 0-3.8 2.4-5.5 6-6.9 2.7-1.3 8.1-3.3 9.8-4.5.1 5-.2 10.4-.2 15.4z"/><path d="M142.9 144c-.6 2.9-2.6 11.9-3.8 15.5H93.5v-1.3c9.1-1.3 9.7-2 9.7-10.5v-43.5c0-8.4-1-9.1-9-10.1v-1.3h24.6V94c-7.1 1.3-8.4 1.7-8.4 10.1v45.1c0 7.4 1.3 7.7 8.1 7.7l7-.1c6.1 0 8.5-.1 11.4-4.1 1.7-2.6 3.2-5.5 4.7-9.1l1.3.4zm5 15.7v-1.3c6-1.1 6.8-1.6 6.8-9v-20.7c0-6.9-.6-7.4-6-8.5v-1c4.1-.9 8.7-2 12.8-4.1-.1 2-.1 8.1-.1 12.7v21.4c0 7.7.9 7.9 6.8 9.1v1.3l-20.3.1zm9.7-57.8c-2.2 0-4.4-2-4.4-4.4 0-2.7 2.2-4.5 4.5-4.5 2.4 0 4.4 1.7 4.4 4.5 0 2.5-2 4.4-4.5 4.4zm14 16.8c4.2-.7 9.6-2.4 13.2-4.4-.1 1.6-.3 4.8-.3 7.9l8.1-4.8c2.3-1.3 4.5-2.1 6.3-2.1 10.9 0 17 9.4 17 18.5 0 14.6-11.6 24.7-24.6 26.9-2.7-.1-5.4-1-6.7-1.9v15.5c0 9.5.9 10 8.1 11.2v1.3h-21.8v-1.3c6-1.1 7.1-1.6 7.1-9.4v-48.5c0-6.2-1.1-6.8-6.3-7.9v-1h-.1zm13 34.2c2.3 2.6 6.3 3.8 9.8 3.8 8.1 0 14.4-6.2 14.4-19.3 0-10.9-6.4-16.9-13.5-16.9-4 0-8.1 2-10.9 4.2v28.1l.2.1zm75.5 1.6c-.9.7-1.9 1-3.2 1-2 0-3.8-1.6-3.8-6.7 0-6.2.1-12.3.1-18.4 0-5.5-1-9.4-4.5-12.6-2-1.6-4.8-2.4-7.5-2.4-4.2.9-11.5 4.9-14.2 6.9-1.7 1.3-2.4 2.1-2.4 3 0 2 2.2 3.7 3.7 3.7.4 0 1.6-.1 2-1.6.7-2.4 1.6-5.1 2.7-6.2 1.1-1.3 2.9-1.9 4.8-1.9 5.5 0 9.1 4.8 9.1 12.2v3c-2.7 1.9-10 4.1-15.5 6.1-4.8 1.6-7.4 4.5-7.4 9.1 0 5.5 4.5 11.3 11.4 11.3 2.3 0 7.7-4.1 11.5-6.7.4 2.4 1.3 3.4 2.3 4.7 1.6 1.4 3.2 2 4.7 2l7.1-5.2-.9-1.3zm-13.5-2.4c-2.2 2.4-5.5 3.7-8.1 3.7-3.7 0-7.5-2.7-7.5-7.7 0-3.8 2.4-5.5 6-6.9 2.7-1.3 8.1-3.3 9.8-4.5.1 5.2-.2 10.5-.2 15.4zm39 7.6h-21.1v-1.3c5.7-1 6.4-1.4 6.4-9v-20.7c0-6.7 0-7.2-5.2-8.4v-1c4.7-.9 8.4-2.3 12.4-4.4-.1 1.9-.1 7.4-.3 11.2 2.4-4.4 7.7-10.7 12.5-10.7 3 0 5.1 2 5.1 4.1 0 1.9-1.1 3.8-2.6 4.8-1 .7-1.9.6-2.3 0-1.6-1.6-2.7-2.6-4.7-2.6s-5.2 2.3-8 7.4v20.6c0 7.4.6 7.8 8 9v1.1h-.2v-.1zm14.1 0v-1.3c6-1.1 6.8-1.6 6.8-9v-20.7c0-6.9-.6-7.4-6-8.5v-1c4.1-.9 8.7-2 12.8-4.1-.1 2-.1 8.1-.1 12.7v21.4c0 7.7.9 7.9 6.8 9.1v1.3l-20.3.1zm9.7-57.8c-2.2 0-4.4-2-4.4-4.4 0-2.7 2.2-4.5 4.5-4.5s4.4 1.7 4.4 4.5c-.2 2.5-2 4.4-4.5 4.4z"/></g></svg>